<?xml version="1.0" encoding="utf-8"?>
<!-- Generator: Adobe Illustrator 24.0.0, SVG Export Plug-In . SVG Version: 6.00 Build 0)  -->
<svg version="1.1" xmlns="http://www.w3.org/2000/svg" xmlns:xlink="http://www.w3.org/1999/xlink" x="0px" y="0px"
	 viewBox="0 0 510 350" style="enable-background:new 0 0 510 350;" xml:space="preserve">
<style type="text/css">
	.st0{fill:#EDE7D4;}
	.st1{clip-path:url(#SVGID_2_);fill-rule:evenodd;clip-rule:evenodd;fill:#0092F9;}
	.st2{opacity:0.6;clip-path:url(#SVGID_2_);fill-rule:evenodd;clip-rule:evenodd;fill:#0092F9;}
	.st3{opacity:0.6;clip-path:url(#SVGID_2_);fill:#0092F9;}
	.st4{opacity:0.2;clip-path:url(#SVGID_4_);fill-rule:evenodd;clip-rule:evenodd;fill:#FFC300;}
	.st5{clip-path:url(#SVGID_4_);fill-rule:evenodd;clip-rule:evenodd;fill:#FFC300;}
	.st6{clip-path:url(#SVGID_6_);fill-rule:evenodd;clip-rule:evenodd;fill:#FF5722;}
	.st7{opacity:0.6;clip-path:url(#SVGID_6_);fill-rule:evenodd;clip-rule:evenodd;fill:#FF5722;}
	.st8{opacity:0.6;clip-path:url(#SVGID_6_);fill:#FF5722;}
	.st9{opacity:0.2;clip-path:url(#SVGID_8_);fill-rule:evenodd;clip-rule:evenodd;fill:#00A5FA;}
	.st10{clip-path:url(#SVGID_8_);fill-rule:evenodd;clip-rule:evenodd;fill:#00A5FA;}
	.st11{clip-path:url(#SVGID_8_);fill-rule:evenodd;clip-rule:evenodd;fill:#7ED3FC;}
	.st12{clip-path:url(#SVGID_8_);fill:#B1E5FD;}
	.st13{clip-path:url(#SVGID_8_);fill-rule:evenodd;clip-rule:evenodd;fill:#B1E5FD;}
	.st14{clip-path:url(#SVGID_10_);fill-rule:evenodd;clip-rule:evenodd;fill:#9F06B4;}
	.st15{opacity:0.6;clip-path:url(#SVGID_10_);fill-rule:evenodd;clip-rule:evenodd;fill:#9F06B4;}
	.st16{opacity:0.2;clip-path:url(#SVGID_12_);fill-rule:evenodd;clip-rule:evenodd;fill:#009888;}
	.st17{clip-path:url(#SVGID_12_);fill-rule:evenodd;clip-rule:evenodd;fill:#009888;}
	.st18{opacity:0.6;clip-path:url(#SVGID_12_);fill-rule:evenodd;clip-rule:evenodd;fill:#B2E0DC;}
	.st19{clip-path:url(#SVGID_12_);fill-rule:evenodd;clip-rule:evenodd;fill:#B2E0DC;}
	.st20{opacity:0.2;clip-path:url(#SVGID_14_);fill-rule:evenodd;clip-rule:evenodd;fill:#EF075F;}
	.st21{clip-path:url(#SVGID_14_);fill-rule:evenodd;clip-rule:evenodd;fill:#EF075F;}
	.st22{clip-path:url(#SVGID_16_);fill-rule:evenodd;clip-rule:evenodd;fill:#FF9A00;}
	.st23{opacity:0.6;clip-path:url(#SVGID_16_);fill-rule:evenodd;clip-rule:evenodd;fill:#FF9A00;}
	.st24{opacity:0.6;clip-path:url(#SVGID_16_);fill:#FF9A00;}
	.st25{opacity:0.2;clip-path:url(#SVGID_18_);fill-rule:evenodd;clip-rule:evenodd;fill:#42B145;}
	.st26{clip-path:url(#SVGID_18_);fill-rule:evenodd;clip-rule:evenodd;fill:#42B145;}
	.st27{clip-path:url(#SVGID_20_);fill-rule:evenodd;clip-rule:evenodd;fill:#672CBD;}
	.st28{opacity:0.6;clip-path:url(#SVGID_20_);fill-rule:evenodd;clip-rule:evenodd;fill:#672CBD;}
	.st29{opacity:0.6;clip-path:url(#SVGID_20_);fill:#672CBD;}
	.st30{opacity:0.2;clip-path:url(#SVGID_22_);fill-rule:evenodd;clip-rule:evenodd;fill:#FA3F20;}
	.st31{clip-path:url(#SVGID_22_);fill:#FD3D07;}
	.st32{clip-path:url(#SVGID_22_);fill-rule:evenodd;clip-rule:evenodd;fill:#FD3D07;}
	.st33{clip-path:url(#SVGID_24_);fill-rule:evenodd;clip-rule:evenodd;fill:#00BCD8;}
	.st34{opacity:0.6;clip-path:url(#SVGID_24_);fill-rule:evenodd;clip-rule:evenodd;fill:#00BCD8;}
</style>
<g id="Layer_3">
	<rect x="12" y="12" class="st0" width="79.82" height="62.8"/>
	<rect x="282.79" y="12" class="st0" width="79.82" height="62.8"/>
	<rect x="12" y="143.16" class="st0" width="79.82" height="62.8"/>
	<rect x="417.36" y="143.16" class="st0" width="79.82" height="62.8"/>
	<rect x="417.36" y="274.31" class="st0" width="79.82" height="62.8"/>
	<rect x="147.36" y="274.31" class="st0" width="79.82" height="62.8"/>
</g>
<g id="Layer_1">
	<g>
		<defs>
			<rect id="SVGID_1_" x="10" y="10" width="84.12" height="66.09"/>
		</defs>
		<clipPath id="SVGID_2_">
			<use xlink:href="#SVGID_1_"  style="overflow:visible;"/>
		</clipPath>
		<path class="st1" d="M52.81,13h37.56c0.41,0,0.75,0.34,0.75,0.75v58.59c0,0.41-0.33,0.75-0.75,0.75H52.81V13z M13,13.75
			c0-0.41,0.33-0.75,0.75-0.75h37.56v60.08H13.75c-0.41,0-0.75-0.34-0.75-0.75V13.75z M10,13.01c0-1.66,1.34-3.01,3.01-3.01h78.1
			c1.66,0,3.01,1.35,3.01,3.01v60.07c0,1.66-1.34,3.01-3.01,3.01h-78.1c-1.66,0-3.01-1.35-3.01-3.01V13.01z"/>
		<path class="st2" d="M58.82,52.06H79.1v0.75H58.82V52.06z M58.82,48.3H85.1v0.75H58.82V48.3z M58.82,44.55H85.1v0.75H58.82V44.55z
			 M58.82,40.79H85.1v0.75H58.82V40.79z M58.82,37.04H85.1v0.75H58.82V37.04z M58.82,33.28H85.1v0.75H58.82V33.28z"/>
		<path class="st3" d="M37.79,43.42c0,1.56-0.55,2.88-1.65,3.98c-1.1,1.1-2.43,1.65-3.98,1.65s-2.88-0.55-3.98-1.65
			c-1.1-1.1-1.65-2.43-1.65-3.98s0.55-2.88,1.65-3.98c1.1-1.1,2.43-1.65,3.98-1.65s2.88,0.55,3.98,1.65
			C37.24,40.54,37.79,41.87,37.79,43.42z"/>
	</g>
	<g>
		<defs>
			<rect id="SVGID_3_" x="145.19" y="10" width="84.12" height="66.09"/>
		</defs>
		<clipPath id="SVGID_4_">
			<use xlink:href="#SVGID_3_"  style="overflow:visible;"/>
		</clipPath>
		<path class="st4" d="M148.19,10h78.11c2,0,3,1,3,3v26.29c0,2-1,3-3,3h-78.11c-2,0-3-1-3-3V13C145.19,11,146.19,10,148.19,10z"/>
		<path class="st5" d="M159.46,19.01h26.29c0.5,0,0.75,0.25,0.75,0.75v4.51c0,0.5-0.25,0.75-0.75,0.75h-26.29
			c-0.5,0-0.75-0.25-0.75-0.75v-4.51C158.71,19.26,158.96,19.01,159.46,19.01z"/>
		<path class="st5" d="M188.75,19.01h26.29c0.5,0,0.75,0.25,0.75,0.75v4.51c0,0.5-0.25,0.75-0.75,0.75h-26.29
			c-0.5,0-0.75-0.25-0.75-0.75v-4.51C188,19.26,188.25,19.01,188.75,19.01z"/>
		<path class="st5" d="M159.46,27.27h16.52c0.5,0,0.75,0.25,0.75,0.75v4.51c0,0.5-0.25,0.75-0.75,0.75h-16.52
			c-0.5,0-0.75-0.25-0.75-0.75v-4.51C158.71,27.52,158.96,27.27,159.46,27.27z"/>
		<path class="st5" d="M178.98,27.27h16.52c0.5,0,0.75,0.25,0.75,0.75v4.51c0,0.5-0.25,0.75-0.75,0.75h-16.52
			c-0.5,0-0.75-0.25-0.75-0.75v-4.51C178.23,27.52,178.48,27.27,178.98,27.27z"/>
		<path class="st5" d="M198.51,27.27h16.52c0.5,0,0.75,0.25,0.75,0.75v4.51c0,0.5-0.25,0.75-0.75,0.75h-16.52
			c-0.5,0-0.75-0.25-0.75-0.75v-4.51C197.76,27.52,198.01,27.27,198.51,27.27z"/>
		<path class="st4" d="M148.19,43.8h78.11c2,0,3,1,3,3v26.29c0,2-1,3-3,3h-78.11c-2,0-3-1-3-3V46.8
			C145.19,44.8,146.19,43.8,148.19,43.8z"/>
		<path class="st5" d="M178.98,61.07h36.05c0.5,0,0.75,0.25,0.75,0.75v4.51c0,0.5-0.25,0.75-0.75,0.75h-36.05
			c-0.5,0-0.75-0.25-0.75-0.75v-4.51C178.23,61.32,178.48,61.07,178.98,61.07z"/>
		<path class="st5" d="M159.46,61.07h16.52c0.5,0,0.75,0.25,0.75,0.75v4.51c0,0.5-0.25,0.75-0.75,0.75h-16.52
			c-0.5,0-0.75-0.25-0.75-0.75v-4.51C158.71,61.32,158.96,61.07,159.46,61.07z"/>
		<path class="st5" d="M159.46,52.81h27.04c0.5,0,0.75,0.25,0.75,0.75v4.51c0,0.5-0.25,0.75-0.75,0.75h-27.04
			c-0.5,0-0.75-0.25-0.75-0.75v-4.51C158.71,53.06,158.96,52.81,159.46,52.81z"/>
		<path class="st5" d="M189.5,52.81h11.27c0.5,0,0.75,0.25,0.75,0.75v4.51c0,0.5-0.25,0.75-0.75,0.75H189.5
			c-0.5,0-0.75-0.25-0.75-0.75v-4.51C188.75,53.06,189,52.81,189.5,52.81z"/>
		<path class="st5" d="M203.77,52.81h11.27c0.5,0,0.75,0.25,0.75,0.75v4.51c0,0.5-0.25,0.75-0.75,0.75h-11.27
			c-0.5,0-0.75-0.25-0.75-0.75v-4.51C203.02,53.06,203.27,52.81,203.77,52.81z"/>
	</g>
	<g>
		<defs>
			<rect id="SVGID_5_" x="280.38" y="10" width="84.12" height="66.09"/>
		</defs>
		<clipPath id="SVGID_6_">
			<use xlink:href="#SVGID_5_"  style="overflow:visible;"/>
		</clipPath>
		<path class="st6" d="M283.38,63.32h78.11v9.01c0,0.41-0.33,0.75-0.75,0.75h-76.61c-0.41,0-0.75-0.34-0.75-0.75V63.32z
			 M283.38,13.75c0-0.41,0.33-0.75,0.75-0.75h76.61c0.41,0,0.75,0.34,0.75,0.75v48.07h-78.11V13.75z M280.38,13.01
			c0-1.66,1.34-3.01,3.01-3.01h78.1c1.66,0,3.01,1.35,3.01,3.01v60.07c0,1.66-1.34,3.01-3.01,3.01h-78.1
			c-1.66,0-3.01-1.35-3.01-3.01V13.01z"/>
		<path class="st7" d="M308.16,49.81h27.79v0.75h-27.79V49.81z M305.16,42.29h34.55v0.75h-34.55V42.29z M305.16,46.05h34.55v0.75
			h-34.55V46.05z"/>
		<path class="st8" d="M329.94,30.28c0,2.07-0.73,3.84-2.2,5.31c-1.47,1.47-3.24,2.2-5.31,2.2c-2.07,0-3.84-0.73-5.31-2.2
			c-1.47-1.47-2.2-3.24-2.2-5.31c0-2.07,0.73-3.84,2.2-5.31c1.47-1.47,3.24-2.2,5.31-2.2c2.07,0,3.84,0.73,5.31,2.2
			C329.21,26.43,329.94,28.2,329.94,30.28z"/>
		<path class="st7" d="M323.94,67.83h9.01v0.75h-9.01V67.83z M335.95,67.83h9.01v0.75h-9.01V67.83z M347.97,67.83h9.01v0.75h-9.01
			V67.83z"/>
		<rect x="288.64" y="67.83" class="st8" width="9.01" height="0.75"/>
	</g>
	<g>
		<defs>
			<rect id="SVGID_7_" x="414.81" y="10" width="84.12" height="66.09"/>
		</defs>
		<clipPath id="SVGID_8_">
			<use xlink:href="#SVGID_7_"  style="overflow:visible;"/>
		</clipPath>
		<path class="st9" d="M417.82,10h78.11c2,0,3,1,3,3v60.08c0,2-1,3-3,3h-78.11c-2,0-3-1-3-3V13C414.81,11,415.81,10,417.82,10z"/>
		<path class="st10" d="M447.11,26.52h19.53c0.5,0,0.75,0.25,0.75,0.75v31.54c0,0.5-0.25,0.75-0.75,0.75h-19.53
			c-0.5,0-0.75-0.25-0.75-0.75V27.27C446.36,26.77,446.61,26.52,447.11,26.52z"/>
		<path class="st11" d="M449.74,52.81h14.27c0.25,0,0.38,0.13,0.38,0.38v3c0,0.25-0.13,0.38-0.38,0.38h-14.27
			c-0.25,0-0.38-0.13-0.38-0.38v-3C449.36,52.93,449.49,52.81,449.74,52.81z"/>
		<path class="st12" d="M461.38,37.04c0,1.24-0.44,2.31-1.32,3.19c-0.88,0.88-1.94,1.32-3.19,1.32c-1.24,0-2.31-0.44-3.19-1.32
			c-0.88-0.88-1.32-1.94-1.32-3.19c0-1.24,0.44-2.31,1.32-3.19c0.88-0.88,1.94-1.32,3.19-1.32c1.24,0,2.31,0.44,3.19,1.32
			C460.94,34.73,461.38,35.79,461.38,37.04z"/>
		<path class="st13" d="M452.36,48.3h9.01v0.75h-9.01V48.3z M450.11,43.8h13.52v0.75h-13.52V43.8z M450.11,46.05h13.52v0.75h-13.52
			V46.05z"/>
		<rect x="450.11" y="29.53" class="st12" width="13.52" height="0.75"/>
		<path class="st10" d="M426.08,28.78h18.02c0.5,0,0.75,0.25,0.75,0.75v27.04c0,0.5-0.25,0.75-0.75,0.75h-18.02
			c-0.5,0-0.75-0.25-0.75-0.75V29.53C425.33,29.03,425.58,28.78,426.08,28.78z"/>
		<path class="st11" d="M427.96,51.31h14.27c0.25,0,0.38,0.13,0.38,0.38v3c0,0.25-0.13,0.38-0.38,0.38h-14.27
			c-0.25,0-0.38-0.13-0.38-0.38v-3C427.58,51.43,427.71,51.31,427.96,51.31z"/>
		<path class="st12" d="M438.85,37.79c0,1.04-0.37,1.92-1.1,2.66c-0.73,0.73-1.62,1.1-2.66,1.1c-1.04,0-1.92-0.37-2.66-1.1
			c-0.73-0.73-1.1-1.62-1.1-2.66c0-1.04,0.37-1.92,1.1-2.66c0.73-0.73,1.62-1.1,2.66-1.1c1.04,0,1.92,0.37,2.66,1.1
			C438.48,35.87,438.85,36.75,438.85,37.79z"/>
		<path class="st13" d="M431.34,46.05h7.51v0.75h-7.51V46.05z M429.08,43.8h12.02v0.75h-12.02V43.8z"/>
		<rect x="429.08" y="31.03" class="st12" width="12.02" height="0.75"/>
		<path class="st10" d="M469.64,28.78h18.03c0.5,0,0.75,0.25,0.75,0.75v27.04c0,0.5-0.25,0.75-0.75,0.75h-18.03
			c-0.5,0-0.75-0.25-0.75-0.75V29.53C468.89,29.03,469.14,28.78,469.64,28.78z"/>
		<path class="st11" d="M471.52,51.31h14.27c0.25,0,0.38,0.13,0.38,0.38v3c0,0.25-0.13,0.38-0.38,0.38h-14.27
			c-0.25,0-0.38-0.13-0.38-0.38v-3C471.14,51.43,471.27,51.31,471.52,51.31z"/>
		<path class="st12" d="M482.41,37.79c0,1.04-0.37,1.92-1.1,2.66c-0.73,0.73-1.62,1.1-2.66,1.1s-1.92-0.37-2.66-1.1
			c-0.73-0.73-1.1-1.62-1.1-2.66c0-1.04,0.37-1.92,1.1-2.66c0.73-0.73,1.62-1.1,2.66-1.1s1.92,0.37,2.66,1.1
			C482.04,35.87,482.41,36.75,482.41,37.79z"/>
		<path class="st13" d="M474.9,46.05h7.51v0.75h-7.51V46.05z M472.64,43.8h12.02v0.75h-12.02V43.8z"/>
		<rect x="472.64" y="31.03" class="st12" width="12.02" height="0.75"/>
	</g>
	<g>
		<defs>
			<rect id="SVGID_9_" x="10" y="141.43" width="84.12" height="66.09"/>
		</defs>
		<clipPath id="SVGID_10_">
			<use xlink:href="#SVGID_9_"  style="overflow:visible;"/>
		</clipPath>
		<path class="st14" d="M39.29,175.23h24.78v29.29H39.29V175.23z M65.58,175.23h25.54v28.54c0,0.42-0.34,0.75-0.75,0.75H65.58
			V175.23z M13,175.23h24.78v29.29H13.76c-0.42,0-0.76-0.33-0.76-0.75V175.23z M65.58,144.44h24.79c0.41,0,0.75,0.33,0.75,0.75
			v28.54H65.58V144.44z M13,145.19c0-0.42,0.34-0.75,0.75-0.75h50.32v29.29H13V145.19z M10,144.44c0-1.66,1.34-3.01,3.01-3.01h78.1
			c1.66,0,3.01,1.35,3.01,3.01v60.07c0,1.66-1.34,3.01-3.01,3.01h-78.1c-1.66,0-3.01-1.35-3.01-3.01V144.44z"/>
		<path class="st15" d="M17.51,156.45H43.8v0.75H17.51V156.45z M17.51,152.7h34.55v0.75H17.51V152.7z M17.51,148.94h34.55v0.75
			H17.51V148.94z"/>
	</g>
	<g>
		<defs>
			<rect id="SVGID_11_" x="145.19" y="141.43" width="84.12" height="66.09"/>
		</defs>
		<clipPath id="SVGID_12_">
			<use xlink:href="#SVGID_11_"  style="overflow:visible;"/>
		</clipPath>
		<path class="st16" d="M148.19,141.43h78.11c2,0,3,1,3,3v60.08c0,2-1,3-3,3h-78.11c-2,0-3-1-3-3v-60.08
			C145.19,142.43,146.19,141.43,148.19,141.43z"/>
		<path class="st17" d="M156.45,160.21h16.52c0.5,0,0.75,0.25,0.75,0.75v26.29c0,0.5-0.25,0.75-0.75,0.75h-16.52
			c-0.5,0-0.75-0.25-0.75-0.75v-26.29C155.7,160.46,155.95,160.21,156.45,160.21z"/>
		<path class="st18" d="M158.33,162.46h12.77c0.25,0,0.38,0.13,0.38,0.38v9.76c0,0.25-0.13,0.38-0.38,0.38h-12.77
			c-0.25,0-0.38-0.13-0.38-0.38v-9.76C157.96,162.59,158.08,162.46,158.33,162.46z"/>
		<path class="st19" d="M157.96,179.74h9.01v0.75h-9.01V179.74z M157.96,177.48h13.52v0.75h-13.52V177.48z M157.96,175.23h13.52
			v0.75h-13.52V175.23z"/>
		<path class="st17" d="M178.98,160.21h16.52c0.5,0,0.75,0.25,0.75,0.75v26.29c0,0.5-0.25,0.75-0.75,0.75h-16.52
			c-0.5,0-0.75-0.25-0.75-0.75v-26.29C178.23,160.46,178.48,160.21,178.98,160.21z"/>
		<path class="st18" d="M180.86,162.46h12.77c0.25,0,0.38,0.13,0.38,0.38v9.76c0,0.25-0.13,0.38-0.38,0.38h-12.77
			c-0.25,0-0.38-0.13-0.38-0.38v-9.76C180.49,162.59,180.61,162.46,180.86,162.46z"/>
		<path class="st19" d="M180.49,184.24h9.01v0.75h-9.01V184.24z M180.49,181.99h13.52v0.75h-13.52V181.99z M180.49,179.74h13.52
			v0.75h-13.52V179.74z M180.49,175.23h13.52v0.75h-13.52V175.23z M180.49,177.48h13.52v0.75h-13.52V177.48z"/>
		<path class="st17" d="M201.52,160.21h16.52c0.5,0,0.75,0.25,0.75,0.75v26.29c0,0.5-0.25,0.75-0.75,0.75h-16.52
			c-0.5,0-0.75-0.25-0.75-0.75v-26.29C200.76,160.46,201.02,160.21,201.52,160.21z"/>
		<path class="st18" d="M203.39,162.46h12.77c0.25,0,0.38,0.13,0.38,0.38v9.76c0,0.25-0.13,0.38-0.38,0.38h-12.77
			c-0.25,0-0.38-0.13-0.38-0.38v-9.76C203.02,162.59,203.14,162.46,203.39,162.46z"/>
		<path class="st19" d="M203.02,181.99h9.01v0.75h-9.01V181.99z M203.02,179.74h13.52v0.75h-13.52V179.74z M203.02,175.23h13.52
			v0.75h-13.52V175.23z M203.02,177.48h13.52v0.75h-13.52V177.48z"/>
	</g>
	<g>
		<defs>
			<rect id="SVGID_13_" x="280.38" y="141.43" width="84.12" height="66.09"/>
		</defs>
		<clipPath id="SVGID_14_">
			<use xlink:href="#SVGID_13_"  style="overflow:visible;"/>
		</clipPath>
		<path class="st20" d="M283.38,141.43h78.11c2,0,3,1,3,3v60.08c0,2-1,3-3,3h-78.11c-2,0-3-1-3-3v-60.08
			C280.38,142.43,281.38,141.43,283.38,141.43z"/>
		<path class="st21" d="M293.89,159.46h42.06v0.75h-42.06V159.46z M293.89,156.45h57.08v0.75h-57.08V156.45z M293.89,153.45h57.08
			v0.75h-57.08V153.45z"/>
		<path class="st21" d="M294.65,167.72h25.54c0.5,0,0.75,0.25,0.75,0.75v25.54c0,0.5-0.25,0.75-0.75,0.75h-25.54
			c-0.5,0-0.75-0.25-0.75-0.75v-25.54C293.89,167.97,294.14,167.72,294.65,167.72z"/>
		<path class="st21" d="M324.69,167.72h10.51c0.5,0,0.75,0.25,0.75,0.75v10.51c0,0.5-0.25,0.75-0.75,0.75h-10.51
			c-0.5,0-0.75-0.25-0.75-0.75v-10.51C323.94,167.97,324.19,167.72,324.69,167.72z"/>
		<path class="st21" d="M339.71,167.72h10.51c0.5,0,0.75,0.25,0.75,0.75v10.51c0,0.5-0.25,0.75-0.75,0.75h-10.51
			c-0.5,0-0.75-0.25-0.75-0.75v-10.51C338.96,167.97,339.21,167.72,339.71,167.72z"/>
		<path class="st21" d="M324.69,182.74h10.51c0.5,0,0.75,0.25,0.75,0.75v10.51c0,0.5-0.25,0.75-0.75,0.75h-10.51
			c-0.5,0-0.75-0.25-0.75-0.75v-10.51C323.94,182.99,324.19,182.74,324.69,182.74z"/>
		<path class="st21" d="M339.71,182.74h10.51c0.5,0,0.75,0.25,0.75,0.75v10.51c0,0.5-0.25,0.75-0.75,0.75h-10.51
			c-0.5,0-0.75-0.25-0.75-0.75v-10.51C338.96,182.99,339.21,182.74,339.71,182.74z"/>
	</g>
	<g>
		<defs>
			<rect id="SVGID_15_" x="414.81" y="141.43" width="84.12" height="66.09"/>
		</defs>
		<clipPath id="SVGID_16_">
			<use xlink:href="#SVGID_15_"  style="overflow:visible;"/>
		</clipPath>
		<path class="st22" d="M480.9,155.7h15.02v37.55H480.9V155.7z M417.82,155.7h15.02v37.55h-15.02V155.7z M434.34,155.7h45.06v37.55
			h-45.06V155.7z M417.82,194.76h78.11v9.01c0,0.41-0.33,0.75-0.75,0.75h-76.61c-0.41,0-0.75-0.34-0.75-0.75V194.76z M417.82,145.19
			c0-0.41,0.33-0.75,0.75-0.75h76.61c0.41,0,0.75,0.34,0.75,0.75v9.01h-78.11V145.19z M414.81,144.44c0-1.66,1.34-3.01,3.01-3.01
			h78.1c1.66,0,3.01,1.35,3.01,3.01v60.07c0,1.66-1.34,3.01-3.01,3.01h-78.1c-1.66,0-3.01-1.35-3.01-3.01V144.44z"/>
		<path class="st23" d="M441.85,174.48h23.24v0.75h-23.24V174.48z M441.85,170.72h30.04v0.75h-30.04V170.72z M441.85,166.97h30.04
			v0.75h-30.04V166.97z M441.85,163.21h30.04v0.75h-30.04V163.21z"/>
		<path class="st23" d="M440.35,199.26h9.01v0.75h-9.01V199.26z M452.36,199.26h9.01v0.75h-9.01V199.26z M464.38,199.26h9.01v0.75
			h-9.01V199.26z"/>
		<rect x="422.32" y="148.94" class="st24" width="9.01" height="0.75"/>
		<path class="st23" d="M470.39,148.94h9.01v0.75h-9.01V148.94z M482.41,148.94h9.01v0.75h-9.01V148.94z"/>
	</g>
	<g>
		<defs>
			<rect id="SVGID_17_" x="10" y="272.11" width="84.12" height="66.09"/>
		</defs>
		<clipPath id="SVGID_18_">
			<use xlink:href="#SVGID_17_"  style="overflow:visible;"/>
		</clipPath>
		<path class="st25" d="M13,272.11h78.11c2,0,3,1,3,3v26.29c0,2-1,3-3,3H13c-2,0-3-1-3-3v-26.29C10,273.12,11,272.11,13,272.11z"/>
		<path class="st25" d="M13,305.91h78.11c2,0,3,1,3,3v26.29c0,2-1,3-3,3H13c-2,0-3-1-3-3v-26.29C10,306.91,11,305.91,13,305.91z"/>
		<path class="st26" d="M32.53,279.62c1.04,0,1.92,0.37,2.66,1.1c0.73,0.73,1.1,1.62,1.1,2.66c0,1.04-0.37,1.92-1.1,2.66
			c-0.73,0.73-1.62,1.1-2.66,1.1c-1.04,0-1.92-0.37-2.66-1.1c-0.73-0.73-1.1-1.62-1.1-2.66c0-1.04,0.37-1.92,1.1-2.66
			C30.61,279.99,31.49,279.62,32.53,279.62z"/>
		<path class="st26" d="M28.03,296.15h9.01v0.75h-9.01V296.15z M25.77,293.89h13.52v0.75H25.77V293.89z M25.77,291.64h13.52v0.75
			H25.77V291.64z M25.77,289.39h13.52v0.75H25.77V289.39z"/>
		<path class="st26" d="M52.06,279.62c1.04,0,1.92,0.37,2.66,1.1c0.73,0.73,1.1,1.62,1.1,2.66c0,1.04-0.37,1.92-1.1,2.66
			c-0.73,0.73-1.62,1.1-2.66,1.1c-1.04,0-1.92-0.37-2.66-1.1c-0.73-0.73-1.1-1.62-1.1-2.66c0-1.04,0.37-1.92,1.1-2.66
			C50.14,279.99,51.02,279.62,52.06,279.62z"/>
		<path class="st26" d="M47.55,296.15h9.01v0.75h-9.01V296.15z M45.3,293.89h13.52v0.75H45.3V293.89z M45.3,291.64h13.52v0.75H45.3
			V291.64z M45.3,289.39h13.52v0.75H45.3V289.39z"/>
		<path class="st26" d="M32.53,310.42c1.24,0,2.31,0.44,3.19,1.32s1.32,1.94,1.32,3.19c0,1.24-0.44,2.31-1.32,3.19
			c-0.88,0.88-1.94,1.32-3.19,1.32s-2.31-0.44-3.19-1.32c-0.88-0.88-1.32-1.94-1.32-3.19c0-1.24,0.44-2.31,1.32-3.19
			C30.22,310.86,31.29,310.42,32.53,310.42z"/>
		<path class="st26" d="M40.04,317.93h19.53v0.75H40.04V317.93z M40.04,315.67h35.3v0.75h-35.3V315.67z M40.04,313.42h35.3v0.75
			h-35.3V313.42z M40.04,311.17h35.3v0.75h-35.3V311.17z"/>
		<path class="st26" d="M71.59,324.69c1.24,0,2.31,0.44,3.19,1.32c0.88,0.88,1.32,1.94,1.32,3.19c0,1.24-0.44,2.31-1.32,3.19
			c-0.88,0.88-1.94,1.32-3.19,1.32s-2.31-0.44-3.19-1.32c-0.88-0.88-1.32-1.94-1.32-3.19c0-1.24,0.44-2.31,1.32-3.19
			C69.28,325.13,70.34,324.69,71.59,324.69z"/>
		<path class="st26" d="M28.78,332.2H48.3v0.75H28.78V332.2z M28.78,329.94h35.3v0.75h-35.3V329.94z M28.78,327.69h35.3v0.75h-35.3
			V327.69z M28.78,325.44h35.3v0.75h-35.3V325.44z"/>
		<path class="st26" d="M71.59,279.62c1.04,0,1.92,0.37,2.66,1.1c0.73,0.73,1.1,1.62,1.1,2.66c0,1.04-0.37,1.92-1.1,2.66
			c-0.73,0.73-1.62,1.1-2.66,1.1c-1.04,0-1.92-0.37-2.66-1.1c-0.73-0.73-1.1-1.62-1.1-2.66c0-1.04,0.37-1.92,1.1-2.66
			C69.66,279.99,70.55,279.62,71.59,279.62z"/>
		<path class="st26" d="M67.08,296.15h9.01v0.75h-9.01V296.15z M64.83,293.89h13.52v0.75H64.83V293.89z M64.83,291.64h13.52v0.75
			H64.83V291.64z M64.83,289.39h13.52v0.75H64.83V289.39z"/>
	</g>
	<g>
		<defs>
			<rect id="SVGID_19_" x="145.19" y="272.11" width="84.12" height="66.09"/>
		</defs>
		<clipPath id="SVGID_20_">
			<use xlink:href="#SVGID_19_"  style="overflow:visible;"/>
		</clipPath>
		<path class="st27" d="M148.19,286.38h78.11v37.55h-78.11V286.38z M148.19,325.44h78.11v9.01c0,0.41-0.33,0.75-0.75,0.75h-76.61
			c-0.41,0-0.75-0.34-0.75-0.75V325.44z M148.19,275.87c0-0.41,0.33-0.75,0.75-0.75h76.61c0.41,0,0.75,0.34,0.75,0.75v9.01h-78.11
			V275.87z M145.19,275.13c0-1.66,1.34-3.01,3.01-3.01h78.1c1.66,0,3.01,1.35,3.01,3.01v60.07c0,1.66-1.34,3.01-3.01,3.01h-78.1
			c-1.66,0-3.01-1.35-3.01-3.01V275.13z"/>
		<path class="st28" d="M152.7,329.94h9.01v0.75h-9.01V329.94z M164.71,329.94h9.01v0.75h-9.01V329.94z M176.73,329.94h9.01v0.75
			h-9.01V329.94z"/>
		<rect x="152.7" y="279.62" class="st29" width="9.01" height="0.75"/>
		<path class="st28" d="M200.76,279.62h9.01v0.75h-9.01V279.62z M212.78,279.62h9.01v0.75h-9.01V279.62z"/>
		<path class="st28" d="M152.7,301.4h30.21v0.75H152.7V301.4z M152.7,297.65h39.05v0.75H152.7V297.65z M152.7,293.89h39.05v0.75
			H152.7V293.89z"/>
	</g>
	<g>
		<defs>
			<rect id="SVGID_21_" x="280.38" y="272.11" width="84.12" height="66.09"/>
		</defs>
		<clipPath id="SVGID_22_">
			<use xlink:href="#SVGID_21_"  style="overflow:visible;"/>
		</clipPath>
		<path class="st30" d="M283.38,272.11h78.11c2,0,3,1,3,3v60.08c0,2-1,3-3,3h-78.11c-2,0-3-1-3-3v-60.08
			C280.38,273.12,281.38,272.11,283.38,272.11z"/>
		<path class="st31" d="M328.44,303.66c0,1.66-0.59,3.08-1.76,4.25c-1.17,1.17-2.59,1.76-4.25,1.76c-1.66,0-3.08-0.59-4.25-1.76
			c-1.17-1.17-1.76-2.59-1.76-4.25c0-1.66,0.59-3.08,1.76-4.25c1.17-1.17,2.59-1.76,4.25-1.76c1.66,0,3.08,0.59,4.25,1.76
			C327.86,300.58,328.44,302,328.44,303.66z"/>
		<path class="st32" d="M313.42,312.67h18.02v0.75h-18.02V312.67z M316.43,315.67h12.02v0.75h-12.02V315.67z"/>
	</g>
	<g>
		<defs>
			<rect id="SVGID_23_" x="414.81" y="272.11" width="84.12" height="66.09"/>
		</defs>
		<clipPath id="SVGID_24_">
			<use xlink:href="#SVGID_23_"  style="overflow:visible;"/>
		</clipPath>
		<path class="st33" d="M441.85,275.12h53.33c0.41,0,0.74,0.34,0.74,0.75v58.59c0,0.41-0.33,0.75-0.74,0.75h-53.33V275.12z
			 M417.82,275.87c0-0.41,0.34-0.75,0.75-0.75h21.78v60.08h-21.78c-0.41,0-0.75-0.34-0.75-0.75V275.87z M414.81,275.13
			c0-1.66,1.34-3.01,3.01-3.01h78.1c1.66,0,3.01,1.35,3.01,3.01v60.07c0,1.66-1.34,3.01-3.01,3.01h-78.1
			c-1.66,0-3.01-1.35-3.01-3.01V275.13z"/>
		<path class="st34" d="M449.36,302.91h30.21v0.75h-30.21V302.91z M449.36,299.15h39.05v0.75h-39.05V299.15z M449.36,295.4h39.05
			v0.75h-39.05V295.4z M449.36,291.64h39.05v0.75h-39.05V291.64z M449.36,287.89h39.05v0.75h-39.05V287.89z M449.36,284.13h39.05
			v0.75h-39.05V284.13z"/>
		<path class="st34" d="M422.32,324.69h13.52v0.75h-13.52V324.69z M422.32,327.69h9.01v0.75h-9.01V327.69z"/>
	</g>
</g>
</svg>
