<?xml version="1.0" encoding="utf-8"?>
<!-- Generator: Adobe Illustrator 24.0.0, SVG Export Plug-In . SVG Version: 6.00 Build 0)  -->
<svg version="1.1" id="Layer_1" xmlns="http://www.w3.org/2000/svg" xmlns:xlink="http://www.w3.org/1999/xlink" x="0px" y="0px"
	 viewBox="0 0 510 350" style="enable-background:new 0 0 510 350;" xml:space="preserve">
<style type="text/css">
	.st0{fill:none;stroke:#248BD1;stroke-width:2.8346;stroke-dasharray:5.6693,5.6693;}
	.st1{fill:none;stroke:#647A82;stroke-width:2.8346;}
	.st2{fill:none;stroke:#EDE7D4;stroke-width:2.8346;}
	.st3{clip-path:url(#SVGID_2_);fill:#EDE7D4;}
	.st4{clip-path:url(#SVGID_2_);fill:#647A82;}
	.st5{clip-path:url(#SVGID_2_);fill:#073641;}
	.st6{clip-path:url(#SVGID_2_);fill:#248BD1;}
	.st7{fill:#073641;}
	.st8{clip-path:url(#SVGID_4_);fill:#073641;}
</style>
<line class="st0" x1="166.4" y1="22.1" x2="166.4" y2="298.3"/>
<line class="st0" x1="373" y1="22.1" x2="373" y2="298.3"/>
<line class="st1" x1="272" y1="204.3" x2="422" y2="203.5"/>
<line class="st1" x1="287.2" y1="255.5" x2="471.8" y2="296.5"/>
<line class="st1" x1="287" y1="255.6" x2="441.3" y2="254.4"/>
<line class="st1" x1="272.8" y1="297.6" x2="407.4" y2="308.3"/>
<line class="st1" x1="115.7" y1="186.1" x2="272.7" y2="203.8"/>
<line class="st1" x1="61.5" y1="235.6" x2="209.8" y2="264.5"/>
<line class="st1" x1="61.6" y1="235.6" x2="254.5" y2="296.5"/>
<line class="st1" x1="61.4" y1="235.6" x2="286.9" y2="253.3"/>
<line class="st1" x1="261.2" y1="75.9" x2="442.9" y2="56.7"/>
<line class="st1" x1="261.2" y1="75.9" x2="485.7" y2="89.2"/>
<line class="st2" x1="261.2" y1="75.9" x2="411.7" y2="105.5"/>
<line class="st1" x1="261.2" y1="75.9" x2="426.6" y2="147.8"/>
<line class="st2" x1="89.6" y1="93" x2="261.1" y2="75.9"/>
<g>
	<defs>
		<rect id="SVGID_1_" x="5" y="5" width="500" height="321"/>
	</defs>
	<clipPath id="SVGID_2_">
		<use xlink:href="#SVGID_1_"  style="overflow:visible;"/>
	</clipPath>
	<path class="st3" d="M89.6,133.1c22.2,0,40.1-18,40.1-40.1s-18-40.1-40.1-40.1S49.4,70.8,49.4,93S67.4,133.1,89.6,133.1"/>
	<path class="st4" d="M36.7,196.6c17.5,0,31.7-14.2,31.7-31.7c0-17.5-14.2-31.7-31.7-31.7S5,147.3,5,164.8
		C5,182.4,19.2,196.6,36.7,196.6"/>
	<path class="st4" d="M117.2,214.2c16.2,0,29.3-13.1,29.3-29.3c0-16.2-13.1-29.3-29.3-29.3c-16.2,0-29.3,13.1-29.3,29.3
		C87.9,201.1,101,214.2,117.2,214.2"/>
	<path class="st4" d="M61,258.9c13.4,0,24.3-10.9,24.3-24.3c0-13.4-10.9-24.3-24.3-24.3s-24.3,10.9-24.3,24.3
		C36.7,248,47.6,258.9,61,258.9"/>
	<path class="st4" d="M442.9,75.9c10.6,0,19.3-8.6,19.3-19.3c0-10.6-8.6-19.3-19.3-19.3c-10.6,0-19.3,8.6-19.3,19.3
		C423.7,67.3,432.3,75.9,442.9,75.9"/>
	<path class="st4" d="M420.1,222.5c10.6,0,19.3-8.6,19.3-19.3c0-10.6-8.6-19.3-19.3-19.3c-10.6,0-19.3,8.6-19.3,19.3
		C400.9,213.9,409.5,222.5,420.1,222.5"/>
	<path class="st4" d="M470.1,312.7c10.6,0,19.3-8.6,19.3-19.3c0-10.6-8.6-19.3-19.3-19.3c-10.6,0-19.3,8.6-19.3,19.3
		C450.8,304.1,459.5,312.7,470.1,312.7"/>
	<path class="st3" d="M411.7,124.7c10.6,0,19.3-8.6,19.3-19.3c0-10.6-8.6-19.3-19.3-19.3c-10.6,0-19.3,8.6-19.3,19.3
		C392.5,116.1,401.1,124.7,411.7,124.7"/>
	<path class="st4" d="M426.6,167c10.6,0,19.3-8.6,19.3-19.3c0-10.6-8.6-19.3-19.3-19.3c-10.6,0-19.3,8.6-19.3,19.3
		C407.4,158.4,416,167,426.6,167"/>
	<path class="st4" d="M441.3,272.1c10.6,0,19.3-8.6,19.3-19.3c0-10.6-8.6-19.3-19.3-19.3c-10.6,0-19.3,8.6-19.3,19.3
		C422,263.5,430.6,272.1,441.3,272.1"/>
	<path class="st4" d="M407.4,326c10.6,0,19.3-8.6,19.3-19.3c0-10.6-8.6-19.3-19.3-19.3c-10.6,0-19.3,8.6-19.3,19.3
		C388.1,317.4,396.7,326,407.4,326"/>
	<path class="st4" d="M485.7,108.4c10.6,0,19.3-8.6,19.3-19.3c0-10.6-8.6-19.3-19.3-19.3c-10.6,0-19.3,8.6-19.3,19.3
		C466.5,99.8,475.1,108.4,485.7,108.4"/>
	<path class="st3" d="M261.1,111.2c19.5,0,35.3-15.8,35.3-35.3s-15.8-35.3-35.3-35.3c-19.5,0-35.3,15.8-35.3,35.3
		S241.6,111.2,261.1,111.2"/>
	<path class="st4" d="M215.8,176c19.5,0,35.3-15.8,35.3-35.3s-15.8-35.3-35.3-35.3s-35.3,15.8-35.3,35.3S196.4,176,215.8,176"/>
	<path class="st4" d="M272.8,222.5c11.3,0,20.5-9.2,20.5-20.5s-9.2-20.5-20.5-20.5c-11.3,0-20.5,9.2-20.5,20.5
		S261.5,222.5,272.8,222.5"/>
	<path class="st4" d="M293.8,177.5c19.5,0,35.3-15.8,35.3-35.3S313.3,107,293.8,107s-35.3,15.8-35.3,35.3S274.3,177.5,293.8,177.5"
		/>
	<path class="st4" d="M211.3,286.4c11.5,0,20.8-9.3,20.8-20.8c0-11.5-9.3-20.8-20.8-20.8c-11.5,0-20.8,9.3-20.8,20.8
		C190.5,277.1,199.8,286.4,211.3,286.4"/>
	<path class="st4" d="M254.8,316.9c11.5,0,20.8-9.3,20.8-20.8c0-11.5-9.3-20.8-20.8-20.8c-11.5,0-20.8,9.3-20.8,20.8
		C234,307.6,243.3,316.9,254.8,316.9"/>
	<path class="st4" d="M346.3,157.4c7.4,0,13.5-6,13.5-13.5c0-7.4-6-13.5-13.5-13.5c-7.4,0-13.5,6-13.5,13.5
		C332.9,151.4,338.9,157.4,346.3,157.4"/>
	<path class="st4" d="M286.9,275.3c11.5,0,20.8-9.3,20.8-20.8c0-11.5-9.3-20.8-20.8-20.8c-11.5,0-20.8,9.3-20.8,20.8
		C266.1,265.9,275.4,275.3,286.9,275.3"/>
	<path class="st5" d="M93.8,100.9h3.7v-9c0.3-0.4,1.2-1.7,2.5-1.7c1.1,0,1.6,0.7,1.6,2v8.6h3.7v-9.2c0.5-0.6,1.4-1.5,2.5-1.5
		c1.2,0,1.6,0.7,1.6,2v8.6h3.7v-9.4c0-2.5-1-4.3-3.8-4.3c-1.9,0-3.2,0.9-4.3,2.1c-0.5-1.3-1.5-2.1-3.4-2.1c-2.1,0-3.3,1.2-4,2v-1.7
		h-3.6V100.9z M84.5,98.4c-2.1,0-2.9-1.8-2.9-4.3c0-2.5,0.7-4.2,2.8-4.2c2.1,0,3,1.8,3,4.3C87.3,96.7,86.6,98.4,84.5,98.4
		 M84.4,101.2c4.7,0,6.8-3.7,6.8-7.1c0-3.4-2.1-7-6.8-7c-4.7,0-6.7,3.6-6.7,7.1S79.7,101.2,84.4,101.2 M72.3,101.2
		c2.4,0,3.7-0.8,4.3-1.2l-1.1-2.4c-0.4,0.2-1.3,0.8-2.9,0.8c-2.3,0-3.4-1.8-3.4-4.3c0-2.5,1.1-4.2,3.3-4.2c1.3,0,2.2,0.4,2.8,0.8
		l1.2-2.5c-0.6-0.4-1.9-1.1-4.1-1.1c-4,0-7,2.5-7,7C65.3,98.3,68,101.2,72.3,101.2"/>
	<path class="st5" d="M49.6,171.3c1.3,0,2.2-0.4,2.7-0.6l-0.7-2.2c-0.2,0.1-0.8,0.4-1.4,0.4c-0.8,0-1.1-0.5-1.1-1.5v-4.8h2.5v-2.2
		h-2.5v-3.1h-2.9v3.1h-1.7v2.2h1.7v5.4C46.3,170,47.1,171.3,49.6,171.3 M36.6,164.5c0.2-1.4,0.9-2.2,2.1-2.2c1.3,0,1.8,1,1.8,2.2
		H36.6z M39.1,171.3c2.2,0,3.3-0.6,4-1l-0.9-1.9c-0.5,0.3-1.3,0.7-2.8,0.7c-1.8,0-2.6-1.2-2.7-2.7h6.7c0-0.3,0-0.7,0-1
		c0-3.3-1.6-5.2-4.6-5.2c-2.9,0-5.2,2.2-5.2,5.5C33.6,169.1,35.6,171.3,39.1,171.3 M22.2,171h2.9v-7.1c0.4-0.6,1.2-1.3,2.2-1.3
		c1,0,1.4,0.5,1.4,1.6v6.8h2.9v-7.4c0-2-0.9-3.4-3.2-3.4c-1.5,0-2.6,0.7-3.4,1.6v-1.3h-2.8V171z"/>
	<path class="st6" d="M134.8,18.8c2.3,0,3.6-1,3.6-2.9c0-1.5-1.1-2.2-2.5-2.8c-1.1-0.4-1.9-0.6-1.9-1.2c0-0.5,0.4-0.8,1.3-0.8
		s1.6,0.4,2,0.6l0.9-1.7c-0.4-0.2-1.4-0.7-2.9-0.7c-2.1,0-3.4,1.1-3.4,2.8c0,1.4,0.8,2.1,2.1,2.7c1.3,0.6,2.3,0.8,2.3,1.4
		c0,0.5-0.5,0.8-1.5,0.8c-1,0-1.9-0.5-2.3-0.8l-0.8,1.8C132.1,18.3,133.1,18.8,134.8,18.8 M121.9,16.4V8.1h1.1c3,0,4.4,1.2,4.4,4
		c0,2.8-1.4,4.2-4.3,4.2H121.9z M119.3,18.6h3.7c5,0,7.3-2.8,7.3-6.4c0-3.6-2.2-6.1-7.2-6.1h-3.8V18.6z M109.6,18.6h7.3v-2.1h-4.7V6
		h-2.7V18.6z M101.7,18.6h2.7V8.2h3.4V6h-9.6v2.2h3.5V18.6z M91.9,12.5c0.9,0,1.7-0.7,1.7-1.6c0-0.9-0.7-1.6-1.7-1.6
		s-1.7,0.7-1.7,1.6C90.2,11.8,90.9,12.5,91.9,12.5 M91.9,18.7c0.9,0,1.7-0.7,1.7-1.6c0-0.9-0.7-1.6-1.7-1.6s-1.7,0.7-1.7,1.6
		C90.2,18,90.9,18.7,91.9,18.7 M82.6,12.9c0.2-1.2,0.8-1.9,1.8-1.9c1.1,0,1.6,0.8,1.6,1.9H82.6z M84.8,18.8c1.9,0,2.8-0.5,3.4-0.9
		l-0.8-1.6c-0.5,0.2-1.1,0.6-2.4,0.6c-1.5,0-2.2-1-2.3-2.4h5.8c0-0.3,0-0.6,0-0.9c0-2.9-1.4-4.5-4-4.5c-2.5,0-4.5,1.9-4.5,4.8
		C80,16.8,81.7,18.8,84.8,18.8 M70.1,18.6h2.5v-6.2c0.4-0.5,1.1-1.1,1.9-1.1c0.9,0,1.2,0.5,1.2,1.4v5.9h2.5v-6.4c0-1.7-0.8-3-2.7-3
		c-1.3,0-2.3,0.6-2.9,1.4V9.4h-2.4V18.6z M63.7,16.9c-1.4,0-2-1.2-2-3c0-1.7,0.5-2.9,1.9-2.9c1.4,0,2,1.3,2,3
		C65.7,15.7,65.2,16.9,63.7,16.9 M63.7,18.8c3.2,0,4.6-2.5,4.6-4.9c0-2.4-1.5-4.8-4.7-4.8c-3.2,0-4.6,2.5-4.6,4.8
		S60.5,18.8,63.7,18.8 M49,18.6h9.1v-2.2h-6L58,7.7V6h-8.7v2.2h5.5L49,16.8V18.6z M41.9,18.8c1.1,0,1.9-0.3,2.3-0.5l-0.6-1.9
		c-0.2,0.1-0.7,0.3-1.2,0.3c-0.7,0-0.9-0.4-0.9-1.3v-4.2h2.1V9.4h-2.1V6.7H39v2.7h-1.5v1.9H39v4.7C39,17.7,39.8,18.8,41.9,18.8
		 M32,16.9c-1.4,0-2-1.2-2-3c0-1.7,0.5-2.9,1.9-2.9c1.4,0,2,1.3,2,3C34,15.7,33.5,16.9,32,16.9 M32,18.8c3.2,0,4.6-2.5,4.6-4.9
		c0-2.4-1.5-4.8-4.7-4.8c-3.2,0-4.6,2.5-4.6,4.8S28.8,18.8,32,18.8 M21.7,16.9c-1.4,0-2-1.2-2-3c0-1.7,0.5-2.9,1.9-2.9
		c1.4,0,2,1.3,2,3C23.6,15.7,23.1,16.9,21.7,16.9 M21.6,18.8c3.2,0,4.6-2.5,4.6-4.9c0-2.4-1.5-4.8-4.7-4.8s-4.6,2.5-4.6,4.8
		S18.4,18.8,21.6,18.8 M9.4,11.5V8.1h1.3c1.5,0,2.2,0.6,2.2,1.7c0,1.1-0.7,1.7-2.1,1.7H9.4z M6.8,18.6h2.7v-5.2h0.2
		c0.6,0,0.8,0.1,1.8,1.6l2.3,3.6h2.9l-2.4-3.7c-0.7-1.1-1.1-1.5-1.5-1.8v0c1.5-0.3,2.9-1.3,2.9-3.4c0-2.4-1.7-3.6-4.6-3.6H6.8V18.6z
		"/>
	<path class="st6" d="M356.7,18.8c2.3,0,3.6-1,3.6-2.9c0-1.5-1.1-2.2-2.5-2.8c-1.1-0.4-1.9-0.6-1.9-1.2c0-0.5,0.4-0.8,1.3-0.8
		c0.9,0,1.6,0.4,2,0.6l0.9-1.7c-0.4-0.2-1.4-0.7-2.9-0.7c-2.1,0-3.4,1.1-3.4,2.8c0,1.4,0.8,2.1,2.1,2.7c1.3,0.6,2.3,0.8,2.3,1.4
		c0,0.5-0.5,0.8-1.5,0.8c-1,0-1.9-0.5-2.3-0.8l-0.8,1.8C354,18.3,355.1,18.8,356.7,18.8 M343.7,18.6h2.5v-6.2
		c0.4-0.5,1.1-1.1,1.9-1.1c0.9,0,1.2,0.5,1.2,1.4v5.9h2.5v-6.4c0-1.7-0.8-3-2.7-3c-1.3,0-2.3,0.6-2.9,1.4V9.4h-2.4V18.6z
		 M338.6,18.6h2.5V9.4h-2.5V18.6z M339.8,8.2c0.9,0,1.5-0.7,1.5-1.5c0-0.8-0.7-1.5-1.5-1.5c-0.9,0-1.5,0.7-1.5,1.5
		C338.3,7.5,339,8.2,339.8,8.2 M331.9,17c-0.6,0-1.1-0.3-1.1-1c0-1.1,1-1.5,2.5-1.5h0.3v1.7C333.2,16.6,332.7,17,331.9,17
		 M331.1,18.8c1.2,0,2.1-0.6,2.6-1.2c0,0.3,0.1,0.8,0.2,1h2.5c-0.1-0.6-0.3-1.5-0.3-2.7v-3.3c0-2.4-1.2-3.4-3.7-3.4
		c-1.7,0-3,0.6-3.7,1.3l1.1,1.5c0.5-0.4,1.3-0.9,2.3-0.9c1.1,0,1.5,0.4,1.5,1.3v0.5h-0.3c-2.4,0-4.9,0.9-4.9,3.3
		C328.4,17.8,329.6,18.8,331.1,18.8 M313.5,18.6h2.5v-6.2c0.2-0.2,0.8-1.1,1.7-1.1c0.8,0,1.1,0.5,1.1,1.4v5.9h2.5v-6.3
		c0.4-0.4,0.9-1,1.7-1c0.8,0,1.1,0.5,1.1,1.4v5.9h2.5v-6.4c0-1.7-0.7-3-2.6-3c-1.3,0-2.2,0.6-2.9,1.5c-0.3-0.9-1.1-1.5-2.4-1.5
		c-1.5,0-2.3,0.8-2.7,1.4V9.4h-2.4V18.6z M307.1,16.9c-1.4,0-2-1.2-2-3c0-1.7,0.5-2.9,1.9-2.9c1.4,0,2,1.3,2,3
		C309,15.7,308.5,16.9,307.1,16.9 M307.1,18.8c3.2,0,4.6-2.5,4.6-4.9c0-2.4-1.5-4.8-4.7-4.8c-3.2,0-4.6,2.5-4.6,4.8
		S303.9,18.8,307.1,18.8 M292.8,16.4V8.1h1.1c3,0,4.4,1.2,4.4,4c0,2.8-1.4,4.2-4.3,4.2H292.8z M290.2,18.6h3.7c5,0,7.3-2.8,7.3-6.4
		c0-3.6-2.2-6.1-7.2-6.1h-3.8V18.6z M282.3,12.5c0.9,0,1.7-0.7,1.7-1.6c0-0.9-0.7-1.6-1.7-1.6c-0.9,0-1.7,0.7-1.7,1.6
		C280.6,11.8,281.3,12.5,282.3,12.5 M282.3,18.7c0.9,0,1.7-0.7,1.7-1.6c0-0.9-0.7-1.6-1.7-1.6c-0.9,0-1.7,0.7-1.7,1.6
		C280.6,18,281.3,18.7,282.3,18.7 M273.4,18.6h2.5v-5.8c0.2-0.4,0.9-1.4,2-1.4c0.5,0,0.8,0.1,1,0.2l0.6-2.2
		c-0.2-0.1-0.6-0.2-1.2-0.2c-1.2,0-1.9,0.8-2.3,1.5V9.4h-2.5V18.6z M265.6,12.9c0.2-1.2,0.8-1.9,1.8-1.9c1.1,0,1.6,0.8,1.6,1.9
		H265.6z M267.7,18.8c1.9,0,2.8-0.5,3.4-0.9l-0.8-1.6c-0.5,0.2-1.1,0.6-2.4,0.6c-1.5,0-2.2-1-2.3-2.4h5.8c0-0.3,0-0.6,0-0.9
		c0-2.9-1.4-4.5-4-4.5c-2.5,0-4.5,1.9-4.5,4.8C262.9,16.8,264.7,18.8,267.7,18.8 M256.7,18.6h2.4l3.4-9.2h-2.5l-2,6.1h0L256,9.4
		h-2.7L256.7,18.6z M246.7,18.6h2.5v-5.8c0.2-0.4,0.9-1.4,2-1.4c0.5,0,0.8,0.1,1,0.2l0.6-2.2c-0.2-0.1-0.6-0.2-1.2-0.2
		c-1.2,0-1.9,0.8-2.3,1.5V9.4h-2.5V18.6z M238.9,12.9c0.2-1.2,0.8-1.9,1.8-1.9c1.1,0,1.6,0.8,1.6,1.9H238.9z M241.1,18.8
		c1.9,0,2.8-0.5,3.4-0.9l-0.8-1.6c-0.5,0.2-1.1,0.6-2.4,0.6c-1.5,0-2.2-1-2.3-2.4h5.8c0-0.3,0-0.6,0-0.9c0-2.9-1.4-4.5-4-4.5
		c-2.5,0-4.5,1.9-4.5,4.8C236.3,16.8,238,18.8,241.1,18.8 M231.5,18.8c2.3,0,3.6-1,3.6-2.9c0-1.5-1.1-2.2-2.5-2.8
		c-1.1-0.4-1.9-0.6-1.9-1.2c0-0.5,0.4-0.8,1.3-0.8c0.9,0,1.6,0.4,2,0.6l0.9-1.7c-0.4-0.2-1.4-0.7-2.9-0.7c-2.1,0-3.4,1.1-3.4,2.8
		c0,1.4,0.8,2.1,2.1,2.7c1.3,0.6,2.3,0.8,2.3,1.4c0,0.5-0.5,0.8-1.5,0.8c-1,0-1.9-0.5-2.3-0.8l-0.8,1.8
		C228.8,18.3,229.8,18.8,231.5,18.8 M221.2,12.9c0.2-1.2,0.8-1.9,1.8-1.9c1.1,0,1.6,0.8,1.6,1.9H221.2z M223.3,18.8
		c1.9,0,2.8-0.5,3.4-0.9l-0.8-1.6c-0.5,0.2-1.1,0.6-2.4,0.6c-1.5,0-2.2-1-2.3-2.4h5.8c0-0.3,0-0.6,0-0.9c0-2.9-1.4-4.5-4-4.5
		c-2.5,0-4.5,1.9-4.5,4.8C218.5,16.8,220.3,18.8,223.3,18.8 M203.7,18.6h2.5v-6.2c0.2-0.2,0.8-1.1,1.7-1.1c0.8,0,1.1,0.5,1.1,1.4
		v5.9h2.5v-6.3c0.4-0.4,0.9-1,1.7-1c0.8,0,1.1,0.5,1.1,1.4v5.9h2.5v-6.4c0-1.7-0.7-3-2.6-3c-1.3,0-2.2,0.6-2.9,1.5
		c-0.3-0.9-1.1-1.5-2.4-1.5c-1.5,0-2.3,0.8-2.7,1.4V9.4h-2.4V18.6z M197.2,17c-0.6,0-1.1-0.3-1.1-1c0-1.1,1-1.5,2.5-1.5h0.3v1.7
		C198.5,16.6,197.9,17,197.2,17 M196.4,18.8c1.2,0,2.1-0.6,2.6-1.2c0,0.3,0.1,0.8,0.2,1h2.5c-0.1-0.6-0.3-1.5-0.3-2.7v-3.3
		c0-2.4-1.2-3.4-3.7-3.4c-1.7,0-3,0.6-3.7,1.3L195,12c0.5-0.4,1.3-0.9,2.3-0.9c1.1,0,1.5,0.4,1.5,1.3v0.5h-0.3
		c-2.4,0-4.9,0.9-4.9,3.3C193.6,17.8,194.8,18.8,196.4,18.8 M180.6,18.6h2.4v-7.2c0-0.8-0.1-1.5-0.1-1.7h0c0.2,0.2,0.5,0.9,1.2,1.9
		l4.9,7h2.4V6h-2.4v6.6c0,1,0.1,1.8,0.1,2h0c-0.1-0.2-0.6-1-1.3-2.1L183.3,6h-2.7V18.6z"/>
	<path class="st6" d="M491.1,18.8c2.3,0,3.6-1,3.6-2.9c0-1.5-1.1-2.2-2.5-2.8c-1.1-0.4-1.9-0.6-1.9-1.2c0-0.5,0.4-0.8,1.3-0.8
		s1.6,0.4,2,0.6l0.9-1.7c-0.4-0.2-1.4-0.7-2.9-0.7c-2.1,0-3.4,1.1-3.4,2.8c0,1.4,0.8,2.1,2.1,2.7c1.3,0.6,2.3,0.8,2.3,1.4
		c0,0.5-0.5,0.8-1.5,0.8c-1,0-1.9-0.5-2.3-0.8l-0.8,1.8C488.4,18.3,489.5,18.8,491.1,18.8 M478.1,18.6h2.5v-6.2
		c0.4-0.5,1.1-1.1,1.9-1.1c0.9,0,1.2,0.5,1.2,1.4v5.9h2.5v-6.4c0-1.7-0.8-3-2.7-3c-1.3,0-2.3,0.6-2.9,1.4V9.4h-2.4V18.6z M473,18.6
		h2.5V9.4H473V18.6z M474.2,8.2c0.9,0,1.5-0.7,1.5-1.5c0-0.8-0.7-1.5-1.5-1.5c-0.9,0-1.5,0.7-1.5,1.5C472.7,7.5,473.4,8.2,474.2,8.2
		 M466.3,17c-0.6,0-1.1-0.3-1.1-1c0-1.1,1-1.5,2.5-1.5h0.3v1.7C467.6,16.6,467.1,17,466.3,17 M465.5,18.8c1.2,0,2.1-0.6,2.6-1.2
		c0,0.3,0.1,0.8,0.2,1h2.5c-0.1-0.6-0.3-1.5-0.3-2.7v-3.3c0-2.4-1.2-3.4-3.7-3.4c-1.7,0-3,0.6-3.7,1.3l1.1,1.5
		c0.5-0.4,1.3-0.9,2.3-0.9c1.1,0,1.5,0.4,1.5,1.3v0.5h-0.3c-2.4,0-4.9,0.9-4.9,3.3C462.8,17.8,464,18.8,465.5,18.8 M447.9,18.6h2.5
		v-6.2c0.2-0.2,0.8-1.1,1.7-1.1c0.8,0,1.1,0.5,1.1,1.4v5.9h2.5v-6.3c0.4-0.4,0.9-1,1.7-1c0.8,0,1.1,0.5,1.1,1.4v5.9h2.5v-6.4
		c0-1.7-0.7-3-2.6-3c-1.3,0-2.2,0.6-2.9,1.5c-0.3-0.9-1.1-1.5-2.4-1.5c-1.5,0-2.3,0.8-2.7,1.4V9.4h-2.4V18.6z M441.5,16.9
		c-1.4,0-2-1.2-2-3c0-1.7,0.5-2.9,1.9-2.9c1.4,0,2,1.3,2,3C443.4,15.7,442.9,16.9,441.5,16.9 M441.5,18.8c3.2,0,4.6-2.5,4.6-4.9
		c0-2.4-1.5-4.8-4.7-4.8c-3.2,0-4.6,2.5-4.6,4.8S438.3,18.8,441.5,18.8 M430.9,16.8c-1.3,0-1.9-1-1.9-2.8c0-1.8,0.7-2.9,2-2.9
		c0.7,0,1.2,0.2,1.6,0.6v4.1C432.3,16.3,431.6,16.8,430.9,16.8 M430.2,18.8c1.1,0,2-0.5,2.6-1.2c0,0.3,0.1,0.8,0.2,1h2.5
		c-0.1-0.6-0.3-1.5-0.3-2.6V5h-2.5v4.8c-0.4-0.4-1.1-0.6-2.1-0.6c-2.4,0-4.1,1.9-4.1,4.8C426.4,17.1,427.9,18.8,430.2,18.8
		 M420.3,16.8c-0.6,0-1-0.1-1.3-0.2v-4.8c0.3-0.3,0.9-0.7,1.5-0.7c1.4,0,1.9,1.1,1.9,2.8C422.6,15.8,421.7,16.8,420.3,16.8
		 M420.3,18.8c2.8,0,4.9-1.8,4.9-4.9c0-3.2-1.6-4.7-3.9-4.7c-1,0-1.8,0.5-2.2,0.9V5h-2.5v13.1C417.2,18.4,418.5,18.8,420.3,18.8
		 M408.8,18.8c1.5,0,2.5-0.8,3-1.5c0,0.4,0.1,1,0.2,1.2h2.5c-0.1-0.5-0.2-1.5-0.2-2.6V9.4h-2.5v6.2c-0.2,0.2-0.9,1.1-1.9,1.1
		c-0.9,0-1.2-0.5-1.2-1.4V9.4H406v6.4C406,17.5,406.8,18.8,408.8,18.8 M399.8,18.8c2.8,0,4.5-1.5,4.5-3.7c0-2.3-1.6-3.2-3.2-3.9
		c-1.3-0.6-2.3-0.9-2.3-1.9c0-0.8,0.7-1.3,1.7-1.3c1.1,0,2,0.5,2.4,0.8l1.1-1.9c-0.5-0.4-1.6-1.1-3.7-1.1c-2.2,0-4,1.3-4,3.5
		c0,2,1.1,3,2.7,3.7c1.5,0.7,2.8,1.1,2.8,2.2c0,0.8-0.7,1.5-2,1.5c-1.5,0-2.4-0.7-2.7-0.9l-1.1,1.8C396.4,18,397.7,18.8,399.8,18.8"
		/>
	<path class="st5" d="M126.3,186c-1.1,0-1.8-0.7-1.8-1.8c0-1.1,0.7-1.8,1.8-1.8c1.1,0,1.8,0.7,1.8,1.8
		C128,185.3,127.4,186,126.3,186 M126.2,193.7c-1.4,0-1.9-0.5-1.9-1.3c0-0.6,0.3-1,0.8-1.4c0.4,0.1,0.9,0.1,1.3,0.1
		c1.4,0.1,2.3,0.1,2.3,1.1C128.8,193.1,127.9,193.7,126.2,193.7 M126.1,195.5c3.2,0,5.4-1.5,5.4-3.5c0-2.9-2.6-2.9-4.6-3
		c-1.4-0.1-2-0.2-2-0.7c0-0.2,0.1-0.4,0.4-0.6c0.4,0.1,0.8,0.1,1.2,0.1c2.7,0,4.2-1.4,4.2-3.5c0-0.6-0.1-1.1-0.4-1.6h1.3v-1.7H128
		c-0.5-0.2-1.1-0.2-1.7-0.2c-2.7,0-4.3,1.4-4.3,3.6c0,1.3,0.6,2.3,1.7,2.9c-0.6,0.4-1.1,0.9-1.1,1.8c0,0.7,0.3,1.2,0.9,1.5
		c-1,0.5-1.6,1.3-1.6,2.4C121.8,194.6,123.4,195.5,126.1,195.5 M114.7,190.7h2.7v-6.2c0.2-0.4,0.9-1.5,2.1-1.5c0.6,0,0.9,0.1,1,0.2
		l0.6-2.3c-0.2-0.1-0.6-0.3-1.3-0.3c-1.2,0-2,0.8-2.5,1.6v-1.3h-2.7V190.7z M107.9,188.9c-1.5,0-2.1-1.3-2.1-3.2
		c0-1.8,0.5-3.1,2-3.1c1.5,0,2.2,1.3,2.2,3.2S109.5,188.9,107.9,188.9 M107.9,190.9c3.4,0,4.9-2.7,4.9-5.2c0-2.5-1.5-5.1-5-5.1
		c-3.4,0-4.9,2.6-4.9,5.2C103,188.3,104.5,190.9,107.9,190.9"/>
	<path class="st5" d="M64.2,234.3c0.2-1.1,0.7-1.7,1.6-1.7c1,0,1.4,0.8,1.4,1.7H64.2z M66.1,239.6c1.7,0,2.5-0.5,3-0.8l-0.7-1.4
		c-0.4,0.2-1,0.6-2.1,0.6c-1.4,0-2-0.9-2.1-2.1h5.1c0-0.3,0-0.5,0-0.8c0-2.5-1.2-4-3.5-4c-2.3,0-4,1.7-4,4.2
		C61.9,237.8,63.4,239.6,66.1,239.6 M56.6,237.8c-1.1,0-1.7-0.9-1.7-2.5c0-1.6,0.6-2.6,1.8-2.6c0.6,0,1.1,0.2,1.4,0.5v3.7
		C57.8,237.4,57.2,237.8,56.6,237.8 M55.9,239.6c1,0,1.7-0.4,2.3-1.1c0,0.3,0.1,0.7,0.2,0.9h2.2c-0.1-0.5-0.2-1.3-0.2-2.3v-9.7h-2.2
		v4.3c-0.4-0.3-1-0.6-1.9-0.6c-2.1,0-3.6,1.7-3.6,4.3C52.6,238,53.9,239.6,55.9,239.6"/>
</g>
<path class="st7" d="M449.9,60.4h1.6l1.3-4.3h0l1.3,4.3h1.6l1.8-6.4h-1.8l-1,4.1h0l-1.1-4.1h-1.6l-1.1,4.1h0l-1-4.1h-1.9L449.9,60.4
	z M440,60.4h1.6l1.3-4.3h0l1.3,4.3h1.6l1.8-6.4h-1.8l-1,4.1h0l-1.1-4.1h-1.6l-1.1,4.1h0l-1-4.1h-1.9L440,60.4z M430,60.4h1.6
	l1.3-4.3h0l1.3,4.3h1.6l1.8-6.4H436l-1,4.1h0l-1.1-4.1h-1.6l-1.1,4.1h0l-1-4.1h-1.9L430,60.4z"/>
<path class="st7" d="M427.1,207h1.6l1.3-4.3h0l1.3,4.3h1.6l1.8-6.4H433l-1,4.1h0l-1.1-4.1h-1.6l-1.1,4.1h0l-1-4.1h-1.9L427.1,207z
	 M417.2,207h1.6l1.3-4.3h0l1.3,4.3h1.6l1.8-6.4h-1.8l-1,4.1h0l-1.1-4.1h-1.6l-1.1,4.1h0l-1-4.1h-1.9L417.2,207z M407.2,207h1.6
	l1.3-4.3h0l1.3,4.3h1.6l1.8-6.4h-1.8l-1,4.1h0l-1.1-4.1h-1.6l-1.1,4.1h0l-1-4.1h-1.9L407.2,207z"/>
<path class="st7" d="M477.1,297.2h1.6l1.3-4.3h0l1.3,4.3h1.6l1.8-6.4H483l-1,4.1h0l-1.1-4.1h-1.6l-1.1,4.1h0l-1-4.1h-1.9
	L477.1,297.2z M467.1,297.2h1.6l1.3-4.3h0l1.3,4.3h1.6l1.8-6.4h-1.8l-1,4.1h0l-1.1-4.1h-1.6l-1.1,4.1h0l-1-4.1h-1.9L467.1,297.2z
	 M457.2,297.2h1.6l1.3-4.3h0l1.3,4.3h1.6l1.8-6.4h-1.8l-1,4.1h0l-1.1-4.1h-1.6l-1.1,4.1h0l-1-4.1h-1.9L457.2,297.2z"/>
<g>
	<defs>
		<rect id="SVGID_3_" x="5" y="5" width="500" height="321"/>
	</defs>
	<clipPath id="SVGID_4_">
		<use xlink:href="#SVGID_3_"  style="overflow:visible;"/>
	</clipPath>
	<path class="st8" d="M421.4,109.2h1.8v-9.5h-1.8V109.2z M417.8,109.2h1.8v-6.4h-1.8V109.2z M418.6,102c0.6,0,1.1-0.5,1.1-1.1
		c0-0.6-0.5-1-1.1-1c-0.6,0-1.1,0.5-1.1,1C417.6,101.5,418,102,418.6,102 M413.1,108.1c-0.4,0-0.8-0.2-0.8-0.7
		c0-0.8,0.7-1.1,1.7-1.1h0.2v1.2C414,107.9,413.6,108.1,413.1,108.1 M412.5,109.4c0.8,0,1.5-0.4,1.8-0.8c0,0.2,0.1,0.5,0.1,0.7h1.7
		c-0.1-0.4-0.2-1-0.2-1.9V105c0-1.7-0.8-2.4-2.6-2.4c-1.2,0-2.1,0.4-2.6,0.9l0.8,1.1c0.4-0.3,0.9-0.6,1.6-0.6c0.8,0,1,0.3,1,0.9v0.4
		H414c-1.7,0-3.4,0.6-3.4,2.3C410.6,108.7,411.4,109.4,412.5,109.4 M400.2,109.2h1.8v-4.3c0.1-0.2,0.6-0.8,1.2-0.8
		c0.5,0,0.8,0.3,0.8,1v4.1h1.8v-4.4c0.3-0.3,0.7-0.7,1.2-0.7c0.6,0,0.8,0.3,0.8,1v4.1h1.8v-4.5c0-1.2-0.5-2.1-1.8-2.1
		c-0.9,0-1.5,0.4-2.1,1c-0.2-0.6-0.7-1-1.7-1c-1,0-1.6,0.6-1.9,1v-0.8h-1.7V109.2z"/>
	<path class="st8" d="M438.9,151.7c1.6,0,2.5-0.7,2.5-2.1c0-1.1-0.7-1.5-1.8-2c-0.7-0.3-1.3-0.4-1.3-0.8c0-0.3,0.3-0.6,0.9-0.6
		c0.6,0,1.1,0.3,1.4,0.4l0.6-1.2c-0.3-0.2-1-0.5-2.1-0.5c-1.5,0-2.4,0.8-2.4,2c0,1,0.5,1.5,1.4,1.9c0.9,0.4,1.6,0.6,1.6,1
		c0,0.4-0.4,0.6-1.1,0.6c-0.7,0-1.3-0.4-1.6-0.5l-0.6,1.2C437,151.3,437.7,151.7,438.9,151.7 M432.6,150.3c-0.6,0-0.9-0.2-1.1-0.4
		V147c0.1-0.2,0.6-0.7,1.2-0.7c0.9,0,1.3,0.8,1.3,2C434,149.6,433.5,150.3,432.6,150.3 M429.7,154.4h1.8v-3.2
		c0.2,0.2,0.7,0.5,1.5,0.5c1.7,0,2.9-1.3,2.9-3.4c0-2.2-1-3.4-2.6-3.4c-0.9,0-1.4,0.4-1.8,0.8v-0.7h-1.7V154.4z M425.2,150.4
		c-0.4,0-0.8-0.2-0.8-0.7c0-0.8,0.7-1.1,1.7-1.1h0.2v1.2C426.1,150.2,425.7,150.4,425.2,150.4 M424.6,151.7c0.8,0,1.5-0.4,1.8-0.8
		c0,0.2,0.1,0.5,0.1,0.7h1.7c-0.1-0.4-0.2-1-0.2-1.9v-2.3c0-1.7-0.8-2.4-2.6-2.4c-1.2,0-2.1,0.4-2.6,0.9l0.8,1.1
		c0.4-0.3,0.9-0.6,1.6-0.6c0.8,0,1,0.3,1,0.9v0.4h-0.2c-1.7,0-3.4,0.6-3.4,2.3C422.7,151,423.5,151.7,424.6,151.7 M412.3,151.5h1.8
		v-4.3c0.1-0.2,0.6-0.8,1.2-0.8c0.5,0,0.8,0.3,0.8,1v4.1h1.8v-4.4c0.3-0.3,0.7-0.7,1.2-0.7c0.6,0,0.8,0.3,0.8,1v4.1h1.8V147
		c0-1.2-0.5-2.1-1.8-2.1c-0.9,0-1.5,0.4-2.1,1c-0.2-0.6-0.7-1-1.7-1c-1,0-1.6,0.6-1.9,1v-0.8h-1.7V151.5z"/>
	<path class="st8" d="M455.5,253.9c-0.4,0-0.6-0.2-0.6-0.6c0-0.4,0.2-0.6,0.6-0.6c0.4,0,0.6,0.2,0.6,0.6
		C456.1,253.7,455.9,253.9,455.5,253.9 M455.5,256.6c-0.5,0-0.7-0.2-0.7-0.5c0-0.2,0.1-0.3,0.3-0.5c0.1,0,0.3,0,0.5,0
		c0.5,0,0.8,0,0.8,0.4C456.4,256.3,456.1,256.6,455.5,256.6 M455.5,257.2c1.1,0,1.9-0.5,1.9-1.2c0-1-0.9-1-1.6-1
		c-0.5,0-0.7-0.1-0.7-0.2c0-0.1,0-0.1,0.1-0.2c0.1,0,0.3,0,0.4,0c0.9,0,1.5-0.5,1.5-1.2c0-0.2,0-0.4-0.1-0.5h0.5v-0.6h-1.2
		c-0.2-0.1-0.4-0.1-0.6-0.1c-0.9,0-1.5,0.5-1.5,1.2c0,0.4,0.2,0.8,0.6,1c-0.2,0.1-0.4,0.3-0.4,0.6c0,0.2,0.1,0.4,0.3,0.5
		c-0.3,0.2-0.6,0.5-0.6,0.8C454,256.9,454.5,257.2,455.5,257.2 M450.4,255.5h0.9v-2.3c0.1-0.2,0.4-0.4,0.7-0.4
		c0.3,0,0.5,0.2,0.5,0.5v2.2h0.9v-2.4c0-0.6-0.3-1.1-1-1.1c-0.5,0-0.8,0.2-1.1,0.5v-0.4h-0.9V255.5z M447.5,255.6
		c0.6,0,0.9-0.3,1.1-0.5c0,0.1,0,0.4,0.1,0.5h0.9c0-0.2-0.1-0.5-0.1-1v-2.4h-0.9v2.3c-0.1,0.1-0.3,0.4-0.7,0.4
		c-0.3,0-0.5-0.2-0.5-0.5v-2.2h-0.9v2.4C446.5,255.1,446.7,255.6,447.5,255.6 M445.1,255.6c0.4,0,0.7-0.1,0.8-0.2l-0.2-0.7
		c-0.1,0-0.2,0.1-0.4,0.1c-0.3,0-0.3-0.1-0.3-0.5v-1.5h0.8v-0.7h-0.8v-1H444v1h-0.5v0.7h0.5v1.7C444,255.2,444.3,255.6,445.1,255.6
		 M441.9,255.5h0.9v-5h-0.9V255.5z M439.5,254.9c-0.2,0-0.4-0.1-0.4-0.4c0-0.4,0.4-0.6,0.9-0.6h0.1v0.6
		C439.9,254.8,439.8,254.9,439.5,254.9 M439.2,255.6c0.4,0,0.8-0.2,1-0.4c0,0.1,0,0.3,0.1,0.4h0.9c0-0.2-0.1-0.5-0.1-1v-1.2
		c0-0.9-0.4-1.3-1.4-1.3c-0.6,0-1.1,0.2-1.4,0.5l0.4,0.6c0.2-0.2,0.5-0.3,0.9-0.3c0.4,0,0.5,0.1,0.5,0.5v0.2H440
		c-0.9,0-1.8,0.3-1.8,1.2C438.2,255.2,438.6,255.6,439.2,255.6 M437,255.6c0.4,0,0.7-0.1,0.8-0.2l-0.2-0.7c-0.1,0-0.2,0.1-0.4,0.1
		c-0.3,0-0.3-0.1-0.3-0.5v-1.5h0.8v-0.7h-0.8v-1h-0.9v1h-0.5v0.7h0.5v1.7C435.9,255.2,436.2,255.6,437,255.6 M433.7,255.6
		c0.8,0,1.3-0.4,1.3-1.1c0-0.6-0.4-0.8-0.9-1c-0.4-0.2-0.7-0.2-0.7-0.4c0-0.2,0.1-0.3,0.5-0.3s0.6,0.1,0.7,0.2l0.3-0.6
		c-0.2-0.1-0.5-0.3-1.1-0.3c-0.8,0-1.3,0.4-1.3,1c0,0.5,0.3,0.8,0.8,1c0.5,0.2,0.9,0.3,0.9,0.5c0,0.2-0.2,0.3-0.6,0.3
		c-0.4,0-0.7-0.2-0.8-0.3l-0.3,0.6C432.7,255.4,433.1,255.6,433.7,255.6 M429.9,253.4c0.1-0.4,0.3-0.7,0.7-0.7
		c0.4,0,0.6,0.3,0.6,0.7H429.9z M430.7,255.6c0.7,0,1-0.2,1.3-0.3l-0.3-0.6c-0.2,0.1-0.4,0.2-0.9,0.2c-0.6,0-0.8-0.4-0.9-0.9h2.1
		c0-0.1,0-0.2,0-0.3c0-1.1-0.5-1.7-1.5-1.7c-0.9,0-1.7,0.7-1.7,1.8C428.9,254.9,429.5,255.6,430.7,255.6 M426.8,253.9
		c-0.4,0-0.6-0.2-0.6-0.6c0-0.4,0.2-0.6,0.6-0.6c0.4,0,0.6,0.2,0.6,0.6C427.4,253.7,427.1,253.9,426.8,253.9 M426.7,256.6
		c-0.5,0-0.7-0.2-0.7-0.5c0-0.2,0.1-0.3,0.3-0.5c0.1,0,0.3,0,0.5,0c0.5,0,0.8,0,0.8,0.4C427.6,256.3,427.3,256.6,426.7,256.6
		 M426.7,257.2c1.1,0,1.9-0.5,1.9-1.2c0-1-0.9-1-1.6-1c-0.5,0-0.7-0.1-0.7-0.2c0-0.1,0-0.1,0.1-0.2c0.1,0,0.3,0,0.4,0
		c0.9,0,1.5-0.5,1.5-1.2c0-0.2,0-0.4-0.1-0.5h0.5v-0.6h-1.2c-0.2-0.1-0.4-0.1-0.6-0.1c-0.9,0-1.5,0.5-1.5,1.2c0,0.4,0.2,0.8,0.6,1
		c-0.2,0.1-0.4,0.3-0.4,0.6c0,0.2,0.1,0.4,0.3,0.5c-0.3,0.2-0.6,0.5-0.6,0.8C425.2,256.9,425.8,257.2,426.7,257.2"/>
	<path class="st8" d="M413,307.3c0.1-0.4,0.3-0.7,0.7-0.7c0.4,0,0.6,0.3,0.6,0.7H413z M413.8,309.5c0.7,0,1-0.2,1.3-0.3l-0.3-0.6
		c-0.2,0.1-0.4,0.2-0.9,0.2c-0.6,0-0.8-0.4-0.9-0.9h2.1c0-0.1,0-0.2,0-0.3c0-1.1-0.5-1.7-1.5-1.7c-0.9,0-1.7,0.7-1.7,1.8
		C412,308.8,412.7,309.5,413.8,309.5 M410.4,309.4h0.9v-5h-0.9V309.4z M408.5,309.4h0.9V306h-0.9V309.4z M408.9,305.6
		c0.3,0,0.6-0.3,0.6-0.6c0-0.3-0.2-0.5-0.6-0.5c-0.3,0-0.6,0.3-0.6,0.5C408.4,305.3,408.6,305.6,408.9,305.6 M402.7,309.4h0.9v-2.3
		c0.1-0.1,0.3-0.4,0.6-0.4c0.3,0,0.4,0.2,0.4,0.5v2.2h0.9v-2.3c0.1-0.2,0.3-0.4,0.6-0.4c0.3,0,0.4,0.2,0.4,0.5v2.2h0.9V307
		c0-0.6-0.3-1.1-1-1.1c-0.5,0-0.8,0.2-1.1,0.5c-0.1-0.3-0.4-0.5-0.9-0.5c-0.5,0-0.8,0.3-1,0.5V306h-0.9V309.4z M400.7,309.5
		c0.8,0,1.3-0.4,1.3-1.1c0-0.6-0.4-0.8-0.9-1c-0.4-0.2-0.7-0.2-0.7-0.4c0-0.2,0.1-0.3,0.5-0.3c0.3,0,0.6,0.1,0.7,0.2l0.3-0.6
		c-0.2-0.1-0.5-0.3-1.1-0.3c-0.8,0-1.3,0.4-1.3,1c0,0.5,0.3,0.8,0.8,1c0.5,0.2,0.9,0.3,0.9,0.5c0,0.2-0.2,0.3-0.6,0.3
		c-0.4,0-0.7-0.2-0.8-0.3l-0.3,0.6C399.7,309.3,400.1,309.5,400.7,309.5"/>
	<path class="st8" d="M495.9,89c0.1-0.8,0.5-1.3,1.3-1.3c0.8,0,1.1,0.6,1.1,1.3H495.9z M497.4,93.1c1.3,0,2-0.4,2.4-0.6l-0.6-1.1
		c-0.3,0.2-0.8,0.4-1.7,0.4c-1.1,0-1.6-0.7-1.6-1.7h4.1c0-0.2,0-0.4,0-0.6c0-2-1-3.2-2.8-3.2c-1.8,0-3.2,1.3-3.2,3.3
		C494.1,91.8,495.3,93.1,497.4,93.1 M489.7,93h1.7l2.4-6.4h-1.8l-1.4,4.3h0l-1.3-4.3h-1.9L489.7,93z M484.4,93h1.8v-6.4h-1.8V93z
		 M485.3,85.7c0.6,0,1.1-0.5,1.1-1.1c0-0.6-0.5-1-1.1-1c-0.6,0-1.1,0.5-1.1,1C484.2,85.2,484.7,85.7,485.3,85.7 M479.2,93h1.8v-4.1
		c0.2-0.3,0.6-1,1.4-1c0.4,0,0.6,0.1,0.7,0.1l0.4-1.5c-0.1-0.1-0.4-0.2-0.9-0.2c-0.8,0-1.3,0.6-1.6,1v-0.9h-1.8V93z M474.5,91.7
		c-0.9,0-1.3-0.7-1.3-2c0-1.3,0.5-2,1.4-2c0.5,0,0.8,0.2,1.1,0.4v2.9C475.5,91.4,475.1,91.7,474.5,91.7 M474,93.1
		c0.8,0,1.4-0.3,1.8-0.9c0,0.2,0.1,0.5,0.1,0.7h1.7c-0.1-0.4-0.2-1.1-0.2-1.8v-7.7h-1.8v3.4c-0.3-0.3-0.8-0.4-1.5-0.4
		c-1.7,0-2.9,1.3-2.9,3.4C471.4,91.9,472.4,93.1,474,93.1"/>
	<path class="st8" d="M283.1,75.5c0.2-1.2,0.8-1.9,1.9-1.9c1.2,0,1.6,0.9,1.6,1.9H283.1z M285.4,81.7c1.9,0,2.9-0.6,3.5-0.9
		l-0.8-1.7c-0.5,0.2-1.2,0.7-2.5,0.7c-1.6,0-2.3-1.1-2.4-2.5h6c0-0.3,0-0.6,0-0.9c0-3-1.4-4.7-4.1-4.7c-2.6,0-4.7,1.9-4.7,4.9
		C280.4,79.7,282.2,81.7,285.4,81.7 M275.8,81.4h2.6v-14h-2.6V81.4z M268.9,76.9c-1.1,0-1.7-0.7-1.7-1.8c0-1.1,0.6-1.8,1.7-1.8
		c1.1,0,1.7,0.6,1.7,1.8C270.6,76.3,270,76.9,268.9,76.9 M268.9,84.4c-1.3,0-1.8-0.5-1.8-1.3c0-0.6,0.3-1,0.7-1.3
		c0.4,0.1,0.9,0.1,1.3,0.1c1.4,0.1,2.3,0.1,2.3,1.1C271.4,83.8,270.5,84.4,268.9,84.4 M268.7,86.1c3.1,0,5.2-1.4,5.2-3.4
		c0-2.8-2.5-2.8-4.5-2.9c-1.4-0.1-1.9-0.2-1.9-0.7c0-0.2,0.1-0.4,0.4-0.5c0.4,0.1,0.7,0.1,1.1,0.1c2.6,0,4.1-1.4,4.1-3.4
		c0-0.5-0.1-1.1-0.4-1.5h1.3V72h-3.4c-0.5-0.2-1.1-0.2-1.7-0.2c-2.6,0-4.2,1.4-4.2,3.4c0,1.2,0.6,2.3,1.7,2.8
		c-0.6,0.4-1.1,0.9-1.1,1.8c0,0.7,0.3,1.1,0.8,1.4c-0.9,0.5-1.6,1.3-1.6,2.3C264.6,85.3,266.1,86.1,268.7,86.1 M258.7,79.7
		c-1.5,0-2-1.3-2-3.1c0-1.8,0.5-3,1.9-3c1.5,0,2.1,1.3,2.1,3.1C260.7,78.5,260.2,79.7,258.7,79.7 M258.6,81.7c3.3,0,4.8-2.6,4.8-5
		c0-2.4-1.5-4.9-4.8-4.9c-3.3,0-4.7,2.6-4.7,5C253.9,79.2,255.3,81.7,258.6,81.7 M248,79.7c-1.5,0-2-1.3-2-3.1c0-1.8,0.5-3,1.9-3
		c1.5,0,2.1,1.3,2.1,3.1C250,78.5,249.4,79.7,248,79.7 M247.9,81.7c3.3,0,4.8-2.6,4.8-5c0-2.4-1.5-4.9-4.8-4.9c-3.3,0-4.7,2.6-4.7,5
		C243.2,79.2,244.6,81.7,247.9,81.7 M237.2,76.9c-1.1,0-1.7-0.7-1.7-1.8c0-1.1,0.6-1.8,1.7-1.8c1.1,0,1.7,0.6,1.7,1.8
		C238.9,76.3,238.3,76.9,237.2,76.9 M237.1,84.4c-1.3,0-1.8-0.5-1.8-1.3c0-0.6,0.3-1,0.7-1.3c0.4,0.1,0.9,0.1,1.3,0.1
		c1.4,0.1,2.3,0.1,2.3,1.1C239.6,83.8,238.7,84.4,237.1,84.4 M237,86.1c3.1,0,5.2-1.4,5.2-3.4c0-2.8-2.5-2.8-4.5-2.9
		c-1.4-0.1-1.9-0.2-1.9-0.7c0-0.2,0.1-0.4,0.4-0.5c0.4,0.1,0.7,0.1,1.1,0.1c2.6,0,4.1-1.4,4.1-3.4c0-0.5-0.1-1.1-0.4-1.5h1.3V72
		h-3.4c-0.5-0.2-1.1-0.2-1.7-0.2c-2.6,0-4.2,1.4-4.2,3.4c0,1.2,0.6,2.3,1.7,2.8c-0.6,0.4-1.1,0.9-1.1,1.8c0,0.7,0.3,1.1,0.8,1.4
		c-0.9,0.5-1.6,1.3-1.6,2.3C232.8,85.3,234.4,86.1,237,86.1"/>
	<path class="st8" d="M234,144.6c-0.5,0-0.8-0.1-1.1-0.2v-4c0.2-0.3,0.7-0.6,1.3-0.6c1.1,0,1.6,0.9,1.6,2.3
		C235.9,143.7,235.2,144.6,234,144.6 M234,146.2c2.3,0,4.1-1.5,4.1-4.1c0-2.7-1.3-4-3.3-4c-0.8,0-1.5,0.4-1.9,0.8v-4.3h-2.1v11
		C231.4,145.9,232.4,146.2,234,146.2 M224.3,146.2c1.3,0,2.1-0.7,2.5-1.2c0,0.3,0.1,0.8,0.2,1h2.1c-0.1-0.5-0.2-1.2-0.2-2.2v-5.5
		h-2.1v5.2c-0.2,0.2-0.8,1-1.6,1c-0.8,0-1-0.4-1-1.2v-5H222v5.4C222,145.1,222.6,146.2,224.3,146.2 M213.2,146h2.1v-5.2
		c0.2-0.2,0.8-1,1.6-1c0.7,0,1,0.4,1,1.2v5h2.1v-5.4c0-1.4-0.6-2.5-2.3-2.5c-1.3,0-2,0.7-2.4,1.1v-4.6h-2.1V146z M210,146.2
		c1,0,1.6-0.3,1.9-0.4l-0.5-1.6c-0.2,0.1-0.6,0.3-1,0.3c-0.6,0-0.8-0.3-0.8-1.1v-3.5h1.8v-1.6h-1.8v-2.2h-2.1v2.2h-1.2v1.6h1.2v3.9
		C207.6,145.3,208.2,146.2,210,146.2 M202.8,146h2.1v-7.7h-2.1V146z M203.8,137.3c0.7,0,1.3-0.6,1.3-1.3c0-0.7-0.6-1.2-1.3-1.2
		c-0.7,0-1.3,0.6-1.3,1.2C202.5,136.7,203.1,137.3,203.8,137.3 M197.1,142.4c-0.9,0-1.4-0.5-1.4-1.4c0-0.9,0.5-1.4,1.4-1.4
		c0.9,0,1.4,0.5,1.4,1.4C198.5,141.8,198,142.4,197.1,142.4 M197.1,148.4c-1.1,0-1.5-0.4-1.5-1c0-0.5,0.2-0.8,0.6-1.1
		c0.3,0.1,0.7,0.1,1.1,0.1c1.1,0.1,1.9,0,1.9,0.9C199.1,147.9,198.4,148.4,197.1,148.4 M197,149.8c2.5,0,4.2-1.2,4.2-2.8
		c0-2.3-2-2.3-3.6-2.4c-1.1-0.1-1.6-0.1-1.6-0.6c0-0.2,0.1-0.3,0.3-0.4c0.3,0,0.6,0.1,0.9,0.1c2.2,0,3.3-1.1,3.3-2.8
		c0-0.4-0.1-0.9-0.3-1.2h1.1v-1.4h-2.8c-0.4-0.1-0.9-0.2-1.4-0.2c-2.1,0-3.4,1.1-3.4,2.8c0,1,0.5,1.8,1.4,2.3
		c-0.5,0.3-0.9,0.7-0.9,1.5c0,0.6,0.3,0.9,0.7,1.2c-0.8,0.4-1.3,1-1.3,1.9C193.6,149.2,194.8,149.8,197,149.8"/>
	<path class="st8" d="M288.7,205.5c0.9,0,1.5-0.4,1.5-1.2c0-0.6-0.4-0.9-1-1.2c-0.4-0.2-0.8-0.2-0.8-0.5c0-0.2,0.2-0.3,0.5-0.3
		c0.4,0,0.7,0.1,0.8,0.2l0.4-0.7c-0.2-0.1-0.6-0.3-1.2-0.3c-0.9,0-1.4,0.5-1.4,1.2c0,0.6,0.3,0.9,0.8,1.1c0.5,0.3,1,0.3,1,0.6
		c0,0.2-0.2,0.3-0.6,0.3c-0.4,0-0.8-0.2-0.9-0.3l-0.4,0.7C287.6,205.3,288.1,205.5,288.7,205.5 M285.5,205.5c0.9,0,1.5-0.4,1.5-1.2
		c0-0.6-0.4-0.9-1-1.2c-0.4-0.2-0.8-0.2-0.8-0.5c0-0.2,0.2-0.3,0.5-0.3c0.4,0,0.7,0.1,0.8,0.2l0.4-0.7c-0.2-0.1-0.6-0.3-1.2-0.3
		c-0.9,0-1.4,0.5-1.4,1.2c0,0.6,0.3,0.9,0.8,1.1c0.5,0.3,1,0.3,1,0.6c0,0.2-0.2,0.3-0.6,0.3c-0.4,0-0.8-0.2-0.9-0.3l-0.4,0.7
		C284.4,205.3,284.8,205.5,285.5,205.5 M281.2,203.1c0.1-0.5,0.3-0.8,0.8-0.8c0.5,0,0.6,0.4,0.7,0.8H281.2z M282.1,205.5
		c0.8,0,1.2-0.2,1.4-0.4l-0.3-0.7c-0.2,0.1-0.5,0.3-1,0.3c-0.6,0-0.9-0.4-1-1h2.4c0-0.1,0-0.2,0-0.4c0-1.2-0.6-1.9-1.7-1.9
		c-1.1,0-1.9,0.8-1.9,2C280.1,204.7,280.8,205.5,282.1,205.5 M277.4,205.4h1v-2.4c0.1-0.2,0.4-0.6,0.8-0.6c0.2,0,0.3,0,0.4,0.1
		l0.2-0.9c-0.1,0-0.2-0.1-0.5-0.1c-0.5,0-0.8,0.3-1,0.6v-0.5h-1V205.4z M274.8,204.7c-0.3,0-0.5-0.1-0.7-0.3v-1.7
		c0.1-0.1,0.3-0.4,0.7-0.4c0.5,0,0.8,0.4,0.8,1.2C275.6,204.3,275.3,204.7,274.8,204.7 M273.1,207.1h1v-1.9c0.1,0.1,0.4,0.3,0.9,0.3
		c1,0,1.7-0.8,1.7-2c0-1.3-0.6-2-1.5-2c-0.5,0-0.8,0.2-1.1,0.5v-0.4h-1V207.1z M270.4,204.7c-0.5,0-0.8-0.4-0.8-1.2
		c0-0.7,0.3-1.2,0.8-1.2c0.3,0,0.5,0.1,0.7,0.2v1.7C270.9,204.5,270.7,204.7,270.4,204.7 M270,205.5c0.5,0,0.8-0.2,1.1-0.5
		c0,0.1,0,0.3,0.1,0.4h1c-0.1-0.2-0.1-0.6-0.1-1.1v-4.5h-1v2c-0.2-0.1-0.5-0.3-0.9-0.3c-1,0-1.7,0.8-1.7,2
		C268.5,204.8,269.1,205.5,270,205.5 M265.7,205.4h1v-2.4c0.1-0.2,0.4-0.6,0.8-0.6c0.2,0,0.3,0,0.4,0.1l0.2-0.9
		c-0.1,0-0.2-0.1-0.5-0.1c-0.5,0-0.8,0.3-1,0.6v-0.5h-1V205.4z M263.1,204.7c-0.6,0-0.8-0.5-0.8-1.2c0-0.7,0.2-1.2,0.8-1.2
		c0.6,0,0.8,0.5,0.8,1.2C263.9,204.3,263.7,204.7,263.1,204.7 M263.1,205.5c1.3,0,1.9-1.1,1.9-2c0-1-0.6-2-1.9-2c-1.3,0-1.9,1-1.9,2
		C261.2,204.5,261.7,205.5,263.1,205.5 M256.3,205.4h0.9l0.8-2.5h0l0.8,2.5h0.9l1.1-3.8h-1l-0.6,2.4h0l-0.6-2.4h-1l-0.6,2.4h0
		l-0.6-2.4h-1.1L256.3,205.4z"/>
	<path class="st8" d="M313.1,145.6h1.8v-4.4c0.1-0.2,0.6-0.8,1.2-0.8c0.5,0,0.8,0.3,0.8,1v4.2h1.8v-4.4c0.3-0.3,0.7-0.7,1.2-0.7
		c0.6,0,0.8,0.3,0.8,1v4.2h1.8v-4.6c0-1.2-0.5-2.1-1.9-2.1c-0.9,0-1.5,0.4-2.1,1c-0.2-0.6-0.7-1-1.7-1c-1,0-1.6,0.6-1.9,1v-0.8h-1.7
		V145.6z M308.4,144.5c-0.4,0-0.8-0.2-0.8-0.7c0-0.8,0.7-1.1,1.8-1.1h0.2v1.2C309.4,144.3,309,144.5,308.4,144.5 M307.9,145.8
		c0.8,0,1.5-0.4,1.8-0.9c0,0.2,0.1,0.5,0.1,0.7h1.7c-0.1-0.4-0.2-1-0.2-1.9v-2.3c0-1.7-0.8-2.4-2.6-2.4c-1.2,0-2.1,0.5-2.6,0.9
		l0.8,1.1c0.4-0.3,0.9-0.6,1.7-0.6c0.8,0,1.1,0.3,1.1,0.9v0.4h-0.2c-1.7,0-3.5,0.6-3.5,2.3C305.9,145.1,306.8,145.8,307.9,145.8
		 M301.2,145.6h1.8v-4.1c0.2-0.3,0.6-1,1.4-1c0.4,0,0.6,0.1,0.7,0.1l0.4-1.5c-0.1-0.1-0.4-0.2-0.9-0.2c-0.8,0-1.4,0.6-1.6,1v-0.9
		h-1.8V145.6z M296.5,142.5c-0.7,0-1.2-0.5-1.2-1.2c0-0.8,0.4-1.2,1.2-1.2c0.7,0,1.2,0.4,1.2,1.2
		C297.7,142.1,297.2,142.5,296.5,142.5 M296.5,147.6c-0.9,0-1.3-0.4-1.3-0.9c0-0.4,0.2-0.7,0.5-0.9c0.3,0.1,0.6,0.1,0.9,0.1
		c0.9,0.1,1.6,0,1.6,0.7C298.2,147.2,297.6,147.6,296.5,147.6 M296.4,148.8c2.1,0,3.6-1,3.6-2.3c0-1.9-1.7-1.9-3.1-2
		c-0.9-0.1-1.3-0.1-1.3-0.5c0-0.2,0.1-0.3,0.2-0.4c0.2,0,0.5,0.1,0.8,0.1c1.8,0,2.8-1,2.8-2.3c0-0.4-0.1-0.7-0.3-1h0.9v-1.2h-2.4
		c-0.3-0.1-0.7-0.2-1.2-0.2c-1.8,0-2.9,1-2.9,2.4c0,0.9,0.4,1.5,1.1,1.9c-0.4,0.2-0.7,0.6-0.7,1.2c0,0.5,0.2,0.8,0.6,1
		c-0.6,0.3-1.1,0.9-1.1,1.6C293.5,148.3,294.6,148.8,296.4,148.8 M289.4,144.5c-0.4,0-0.8-0.2-0.8-0.7c0-0.8,0.7-1.1,1.8-1.1h0.2
		v1.2C290.3,144.3,289.9,144.5,289.4,144.5 M288.8,145.8c0.8,0,1.5-0.4,1.8-0.9c0,0.2,0.1,0.5,0.1,0.7h1.7c-0.1-0.4-0.2-1-0.2-1.9
		v-2.3c0-1.7-0.8-2.4-2.6-2.4c-1.2,0-2.1,0.5-2.6,0.9l0.8,1.1c0.4-0.3,0.9-0.6,1.7-0.6c0.8,0,1.1,0.3,1.1,0.9v0.4h-0.2
		c-1.7,0-3.5,0.6-3.5,2.3C286.9,145.1,287.7,145.8,288.8,145.8 M284.6,145.8c0.8,0,1.4-0.2,1.6-0.4l-0.4-1.3
		c-0.1,0.1-0.5,0.2-0.9,0.2c-0.5,0-0.7-0.3-0.7-0.9v-3h1.5v-1.3h-1.5v-1.9h-1.8v1.9h-1v1.3h1v3.3C282.5,145,283,145.8,284.6,145.8
		 M278.3,145.8c1.6,0,2.6-0.7,2.6-2.1c0-1.1-0.7-1.6-1.8-2c-0.7-0.3-1.3-0.4-1.3-0.9c0-0.3,0.3-0.6,0.9-0.6s1.1,0.3,1.4,0.4l0.6-1.2
		c-0.3-0.2-1-0.5-2.1-0.5c-1.5,0-2.4,0.8-2.4,2c0,1,0.5,1.5,1.5,1.9c0.9,0.4,1.6,0.6,1.6,1c0,0.4-0.4,0.6-1.1,0.6
		c-0.7,0-1.3-0.4-1.6-0.5l-0.6,1.2C276.3,145.5,277.1,145.8,278.3,145.8 M269,145.6h1.8v-4.4c0.3-0.4,0.8-0.8,1.3-0.8
		c0.6,0,0.9,0.3,0.9,1v4.2h1.8v-4.6c0-1.2-0.5-2.1-1.9-2.1c-0.9,0-1.6,0.4-2.1,1v-0.8H269V145.6z M265.4,145.6h1.8v-6.5h-1.8V145.6z
		 M266.3,138.3c0.6,0,1.1-0.5,1.1-1.1c0-0.6-0.5-1-1.1-1s-1.1,0.5-1.1,1C265.2,137.8,265.7,138.3,266.3,138.3"/>
	<path class="st8" d="M227.7,268.2c0.6,0,1-0.3,1.2-0.6c0,0.2,0,0.4,0.1,0.5h1c0-0.2-0.1-0.6-0.1-1.1v-2.7h-1v2.6
		c-0.1,0.1-0.4,0.5-0.8,0.5c-0.4,0-0.5-0.2-0.5-0.6v-2.5h-1v2.7C226.6,267.7,226.9,268.2,227.7,268.2 M223.9,267.4
		c-0.2,0-0.5-0.1-0.5-0.4c0-0.4,0.4-0.6,1-0.6h0.1v0.7C224.4,267.3,224.2,267.4,223.9,267.4 M223.5,268.2c0.5,0,0.9-0.3,1.1-0.5
		c0,0.1,0,0.3,0.1,0.4h1c-0.1-0.2-0.1-0.6-0.1-1.1v-1.4c0-1-0.5-1.4-1.5-1.4c-0.7,0-1.2,0.3-1.6,0.6l0.5,0.6c0.2-0.2,0.6-0.4,1-0.4
		c0.5,0,0.6,0.2,0.6,0.5v0.2h-0.1c-1,0-2,0.4-2,1.4C222.4,267.8,222.9,268.2,223.5,268.2 M218.2,268.1h1v-2.6
		c0.1-0.1,0.4-0.5,0.8-0.5c0.4,0,0.5,0.2,0.5,0.6v2.5h1v-2.7c0-0.7-0.3-1.2-1.1-1.2c-0.6,0-1,0.3-1.2,0.6v-2.3h-1V268.1z
		 M216.4,268.2c0.7,0,1.1-0.2,1.2-0.3l-0.3-0.7c-0.1,0.1-0.4,0.2-0.8,0.2c-0.7,0-1-0.5-1-1.2c0-0.7,0.3-1.2,0.9-1.2
		c0.4,0,0.6,0.1,0.8,0.2l0.3-0.7c-0.2-0.1-0.6-0.3-1.2-0.3c-1.2,0-2,0.7-2,2C214.4,267.4,215.1,268.2,216.4,268.2 M212.4,268.2
		c0.9,0,1.5-0.4,1.5-1.2c0-0.6-0.4-0.9-1-1.2c-0.4-0.2-0.8-0.2-0.8-0.5c0-0.2,0.2-0.3,0.5-0.3c0.4,0,0.7,0.1,0.8,0.2l0.4-0.7
		c-0.2-0.1-0.6-0.3-1.2-0.3c-0.9,0-1.4,0.5-1.4,1.2c0,0.6,0.3,0.9,0.9,1.1c0.5,0.3,1,0.3,1,0.6c0,0.2-0.2,0.3-0.6,0.3
		c-0.4,0-0.8-0.2-0.9-0.3l-0.4,0.7C211.3,268,211.7,268.2,212.4,268.2 M209.1,268.2c0.9,0,1.5-0.4,1.5-1.2c0-0.6-0.4-0.9-1-1.2
		c-0.4-0.2-0.8-0.2-0.8-0.5c0-0.2,0.2-0.3,0.5-0.3c0.4,0,0.7,0.1,0.8,0.2l0.4-0.7c-0.2-0.1-0.6-0.3-1.2-0.3c-0.9,0-1.4,0.5-1.4,1.2
		c0,0.6,0.3,0.9,0.9,1.1c0.5,0.3,1,0.3,1,0.6c0,0.2-0.2,0.3-0.6,0.3c-0.4,0-0.8-0.2-0.9-0.3l-0.4,0.7
		C208,268,208.4,268.2,209.1,268.2 M204.8,265.7c0.1-0.5,0.3-0.8,0.8-0.8c0.5,0,0.7,0.4,0.7,0.8H204.8z M205.7,268.2
		c0.8,0,1.2-0.2,1.4-0.4l-0.3-0.7c-0.2,0.1-0.5,0.3-1,0.3c-0.6,0-0.9-0.4-1-1h2.4c0-0.1,0-0.2,0-0.4c0-1.2-0.6-1.9-1.7-1.9
		c-1.1,0-1.9,0.8-1.9,2C203.7,267.4,204.4,268.2,205.7,268.2 M201.2,266.3c-0.4,0-0.7-0.3-0.7-0.7c0-0.4,0.3-0.7,0.7-0.7
		c0.4,0,0.7,0.3,0.7,0.7C201.9,266,201.7,266.3,201.2,266.3 M201.2,269.3c-0.5,0-0.7-0.2-0.7-0.5c0-0.2,0.1-0.4,0.3-0.5
		c0.2,0,0.3,0,0.5,0.1c0.6,0,0.9,0,0.9,0.4C202.2,269.1,201.9,269.3,201.2,269.3 M201.2,270c1.3,0,2.1-0.6,2.1-1.4
		c0-1.1-1-1.1-1.8-1.2c-0.6,0-0.8-0.1-0.8-0.3c0-0.1,0-0.2,0.1-0.2c0.1,0,0.3,0,0.5,0c1.1,0,1.7-0.6,1.7-1.4c0-0.2-0.1-0.4-0.2-0.6
		h0.5v-0.7h-1.4c-0.2-0.1-0.4-0.1-0.7-0.1c-1.1,0-1.7,0.6-1.7,1.4c0,0.5,0.2,0.9,0.7,1.2c-0.2,0.1-0.4,0.4-0.4,0.7
		c0,0.3,0.1,0.5,0.3,0.6c-0.4,0.2-0.6,0.5-0.6,0.9C199.5,269.7,200.1,270,201.2,270 M197,267.4c-0.2,0-0.5-0.1-0.5-0.4
		c0-0.4,0.4-0.6,1-0.6h0.1v0.7C197.6,267.3,197.4,267.4,197,267.4 M196.7,268.2c0.5,0,0.9-0.3,1.1-0.5c0,0.1,0,0.3,0.1,0.4h1
		c-0.1-0.2-0.1-0.6-0.1-1.1v-1.4c0-1-0.5-1.4-1.5-1.4c-0.7,0-1.2,0.3-1.6,0.6l0.5,0.6c0.2-0.2,0.6-0.4,1-0.4c0.5,0,0.6,0.2,0.6,0.5
		v0.2h-0.1c-1,0-2,0.4-2,1.4C195.6,267.8,196.1,268.2,196.7,268.2 M194.2,268.2c0.5,0,0.8-0.1,1-0.2l-0.2-0.8
		c-0.1,0-0.3,0.1-0.5,0.1c-0.3,0-0.4-0.2-0.4-0.5v-1.7h0.9v-0.8H194v-1.1h-1v1.1h-0.6v0.8h0.6v2C193,267.7,193.3,268.2,194.2,268.2"
		/>
	<path class="st8" d="M264.3,299.5h1v-2.6c0.2-0.2,0.4-0.5,0.8-0.5c0.4,0,0.5,0.2,0.5,0.6v2.5h1v-2.7c0-0.7-0.3-1.2-1.1-1.2
		c-0.6,0-0.9,0.3-1.2,0.6v-0.5h-1V299.5z M261.6,298.8c-0.6,0-0.8-0.5-0.8-1.2c0-0.7,0.2-1.2,0.8-1.2c0.6,0,0.9,0.5,0.9,1.2
		C262.4,298.3,262.2,298.8,261.6,298.8 M261.6,299.6c1.3,0,1.9-1.1,1.9-2c0-1-0.6-2-1.9-2c-1.3,0-1.9,1-1.9,2
		C259.7,298.5,260.3,299.6,261.6,299.6 M256.2,299.5h3v-0.8h-1.7l1.7-2.4v-0.6h-2.9v0.8h1.6l-1.7,2.5V299.5z M253.7,298.8
		c-0.2,0-0.5-0.1-0.5-0.4c0-0.4,0.4-0.6,1-0.6h0.1v0.7C254.2,298.6,254,298.8,253.7,298.8 M253.4,299.6c0.5,0,0.9-0.3,1.1-0.5
		c0,0.1,0,0.3,0.1,0.4h1c-0.1-0.2-0.1-0.6-0.1-1.1v-1.4c0-1-0.5-1.4-1.5-1.4c-0.7,0-1.2,0.3-1.6,0.6l0.5,0.6c0.2-0.2,0.6-0.4,1-0.4
		c0.5,0,0.6,0.2,0.6,0.5v0.2h-0.1c-1,0-2,0.4-2,1.4C252.2,299.2,252.7,299.6,253.4,299.6 M246,299.5h1v-2.6c0.1-0.1,0.3-0.5,0.7-0.5
		c0.3,0,0.4,0.2,0.4,0.6v2.5h1v-2.6c0.1-0.2,0.4-0.4,0.7-0.4c0.3,0,0.5,0.2,0.5,0.6v2.5h1v-2.7c0-0.7-0.3-1.2-1.1-1.2
		c-0.6,0-0.9,0.2-1.2,0.6c-0.1-0.4-0.4-0.6-1-0.6c-0.6,0-1,0.3-1.2,0.6v-0.5h-1V299.5z M243.2,298.8c-0.2,0-0.5-0.1-0.5-0.4
		c0-0.4,0.4-0.6,1-0.6h0.1v0.7C243.8,298.6,243.6,298.8,243.2,298.8 M242.9,299.6c0.5,0,0.9-0.3,1.1-0.5c0,0.1,0,0.3,0.1,0.4h1
		c-0.1-0.2-0.1-0.6-0.1-1.1v-1.4c0-1-0.5-1.4-1.5-1.4c-0.7,0-1.2,0.3-1.6,0.6l0.5,0.6c0.2-0.2,0.6-0.4,1-0.4c0.5,0,0.6,0.2,0.6,0.5
		v0.2h-0.1c-1,0-2,0.4-2,1.4C241.8,299.2,242.3,299.6,242.9,299.6"/>
	<path class="st8" d="M351.8,146.1h0.9v-2.5h0.8v-0.6h-0.8v-0.3c0-0.4,0.2-0.6,0.5-0.6c0.2,0,0.4,0.1,0.4,0.1l0.2-0.7
		c-0.1,0-0.3-0.2-0.8-0.2c-0.8,0-1.3,0.5-1.3,1.3v0.3h-0.5v0.6h0.5V146.1z M349.4,145.5c-0.2,0-0.4-0.1-0.4-0.3
		c0-0.4,0.4-0.5,0.9-0.5h0.1v0.6C349.8,145.4,349.7,145.5,349.4,145.5 M349.1,146.2c0.4,0,0.7-0.2,0.9-0.4c0,0.1,0,0.3,0.1,0.3h0.9
		c0-0.2-0.1-0.5-0.1-0.9V144c0-0.8-0.4-1.2-1.3-1.2c-0.6,0-1,0.2-1.3,0.5l0.4,0.5c0.2-0.2,0.5-0.3,0.8-0.3c0.4,0,0.5,0.1,0.5,0.4
		v0.2h-0.1c-0.8,0-1.7,0.3-1.7,1.1C348.2,145.8,348.6,146.2,349.1,146.2 M346.6,146.1h0.9v-4.7h-0.9V146.1z M344.3,144.6
		c-0.4,0-0.6-0.2-0.6-0.6c0-0.4,0.2-0.6,0.6-0.6c0.4,0,0.6,0.2,0.6,0.6C344.9,144.4,344.7,144.6,344.3,144.6 M344.3,147.1
		c-0.4,0-0.6-0.2-0.6-0.4c0-0.2,0.1-0.3,0.2-0.4c0.1,0,0.3,0,0.4,0c0.5,0,0.8,0,0.8,0.4C345.1,146.9,344.8,147.1,344.3,147.1
		 M344.2,147.6c1,0,1.7-0.5,1.7-1.1c0-0.9-0.8-0.9-1.5-1c-0.5,0-0.6-0.1-0.6-0.2c0-0.1,0-0.1,0.1-0.2c0.1,0,0.2,0,0.4,0
		c0.9,0,1.4-0.5,1.4-1.1c0-0.2,0-0.4-0.1-0.5h0.4v-0.6h-1.2c-0.2-0.1-0.4-0.1-0.6-0.1c-0.9,0-1.4,0.5-1.4,1.2c0,0.4,0.2,0.8,0.6,1
		c-0.2,0.1-0.4,0.3-0.4,0.6c0,0.2,0.1,0.4,0.3,0.5c-0.3,0.2-0.5,0.4-0.5,0.8C342.8,147.4,343.4,147.6,344.2,147.6 M340.9,145.5
		c-0.5,0-0.7-0.4-0.7-1c0-0.6,0.2-1,0.7-1c0.5,0,0.7,0.4,0.7,1C341.5,145.1,341.4,145.5,340.9,145.5 M340.9,146.2
		c1.1,0,1.6-0.9,1.6-1.7c0-0.8-0.5-1.7-1.6-1.7c-1.1,0-1.6,0.9-1.6,1.7S339.7,146.2,340.9,146.2"/>
	<path class="st8" d="M300.4,256.8h0.8v-2c0.1-0.1,0.3-0.4,0.6-0.4c0.2,0,0.3,0.2,0.3,0.5v1.9h0.8v-2c0.1-0.1,0.3-0.3,0.6-0.3
		c0.3,0,0.4,0.2,0.4,0.5v1.9h0.8v-2.1c0-0.6-0.2-1-0.9-1c-0.4,0-0.7,0.2-1,0.5c-0.1-0.3-0.3-0.5-0.8-0.5c-0.5,0-0.7,0.3-0.9,0.4
		v-0.4h-0.8V256.8z M298.7,256.8h0.8v-3h-0.8V256.8z M299.1,253.4c0.3,0,0.5-0.2,0.5-0.5c0-0.3-0.2-0.5-0.5-0.5
		c-0.3,0-0.5,0.2-0.5,0.5C298.6,253.2,298.8,253.4,299.1,253.4 M296.1,254.9c0.1-0.4,0.3-0.6,0.6-0.6c0.4,0,0.5,0.3,0.5,0.6H296.1z
		 M296.8,256.8c0.6,0,0.9-0.2,1.1-0.3l-0.3-0.5c-0.1,0.1-0.4,0.2-0.8,0.2c-0.5,0-0.7-0.3-0.8-0.8h1.9c0-0.1,0-0.2,0-0.3
		c0-0.9-0.5-1.5-1.3-1.5c-0.8,0-1.5,0.6-1.5,1.5C295.3,256.2,295.8,256.8,296.8,256.8 M292.1,256.8h0.8v-2c0.1-0.1,0.3-0.4,0.6-0.4
		c0.3,0,0.4,0.2,0.4,0.5v1.9h0.8v-2.1c0-0.6-0.2-1-0.9-1c-0.5,0-0.8,0.3-0.9,0.4v-1.8h-0.8V256.8z M288.7,256.8h0.8v-2
		c0.1-0.2,0.3-0.4,0.6-0.4c0.3,0,0.4,0.2,0.4,0.5v1.9h0.8v-2.1c0-0.6-0.2-1-0.9-1c-0.4,0-0.7,0.2-0.9,0.4v-0.4h-0.8V256.8z
		 M285.3,256.8h0.8v-2c0.1-0.2,0.3-0.4,0.6-0.4c0.3,0,0.4,0.2,0.4,0.5v1.9h0.8v-2.1c0-0.6-0.2-1-0.9-1c-0.4,0-0.7,0.2-0.9,0.4v-0.4
		h-0.8V256.8z M283.2,256.2c-0.2,0-0.4-0.1-0.4-0.3c0-0.3,0.3-0.5,0.8-0.5h0.1v0.5C283.6,256.1,283.4,256.2,283.2,256.2
		 M282.9,256.8c0.4,0,0.7-0.2,0.8-0.4c0,0.1,0,0.2,0,0.3h0.8c0-0.2-0.1-0.5-0.1-0.9v-1.1c0-0.8-0.4-1.1-1.2-1.1
		c-0.6,0-1,0.2-1.2,0.4l0.4,0.5c0.2-0.1,0.4-0.3,0.8-0.3c0.4,0,0.5,0.1,0.5,0.4v0.2h-0.1c-0.8,0-1.6,0.3-1.6,1.1
		C282,256.5,282.4,256.8,282.9,256.8 M277.2,256.8h0.8v-2c0.1-0.1,0.3-0.4,0.6-0.4c0.2,0,0.3,0.2,0.3,0.5v1.9h0.8v-2
		c0.1-0.1,0.3-0.3,0.6-0.3c0.3,0,0.4,0.2,0.4,0.5v1.9h0.8v-2.1c0-0.6-0.2-1-0.9-1c-0.4,0-0.7,0.2-1,0.5c-0.1-0.3-0.3-0.5-0.8-0.5
		c-0.5,0-0.7,0.3-0.9,0.4v-0.4h-0.8V256.8z M275.1,255.4h1.4v-0.7h-1.4V255.4z M273.5,256.8c0.7,0,1.2-0.3,1.2-1
		c0-0.5-0.3-0.7-0.8-0.9c-0.3-0.1-0.6-0.2-0.6-0.4c0-0.2,0.1-0.3,0.4-0.3s0.5,0.1,0.6,0.2l0.3-0.6c-0.1-0.1-0.4-0.2-1-0.2
		c-0.7,0-1.1,0.4-1.1,0.9c0,0.5,0.3,0.7,0.7,0.9c0.4,0.2,0.8,0.3,0.8,0.5c0,0.2-0.2,0.3-0.5,0.3c-0.3,0-0.6-0.2-0.7-0.2l-0.3,0.6
		C272.6,256.7,272.9,256.8,273.5,256.8 M269.2,256.8h0.8v-2c0.1-0.1,0.3-0.4,0.6-0.4c0.3,0,0.4,0.2,0.4,0.5v1.9h0.8v-2.1
		c0-0.6-0.2-1-0.9-1c-0.5,0-0.8,0.3-0.9,0.4v-1.8h-0.8V256.8z"/>
</g>
</svg>
