<?xml version="1.0" encoding="utf-8"?>
<!-- Generator: Adobe Illustrator 24.0.0, SVG Export Plug-In . SVG Version: 6.00 Build 0)  -->
<svg version="1.1" id="Layer_1" xmlns="http://www.w3.org/2000/svg" xmlns:xlink="http://www.w3.org/1999/xlink" x="0px" y="0px"
	 viewBox="0 0 510 350" style="enable-background:new 0 0 510 350;" xml:space="preserve">
<style type="text/css">
	.st0{clip-path:url(#SVGID_2_);fill:#586E75;}
	.st1{clip-path:url(#SVGID_2_);fill:#FCF5E2;}
</style>
<g>
	<defs>
		<rect id="SVGID_1_" x="5" y="62.3" width="500" height="226.9"/>
	</defs>
	<clipPath id="SVGID_2_">
		<use xlink:href="#SVGID_1_"  style="overflow:visible;"/>
	</clipPath>
	<path class="st0" d="M125.2,66.9c-1.8-0.4-1.9-0.6-0.6-1.3c2-1,3.8-1.3,4.7-0.7c0.7,0.5,0.6,0.6-0.7,1.3
		C127.3,67.2,126.7,67.3,125.2,66.9 M132.6,70.4c-0.7-0.4-1.6-0.5-3-0.4c-1.3,0.1-2.4,0-2.9-0.3c-0.8-0.4-0.6-0.5,1.8-0.5
		c3,0,4.2-0.6,2.6-1.3c-0.8-0.3-0.6-0.4,0.7-0.2c1.7,0.2,2.4-0.2,1.4-1c-1-0.8,0.1-1.1,3.6-0.8c2.2,0.1,3.5,0.1,4.1-0.2
		c1.1-0.6,0.6-1.3-0.6-1c-0.8,0.2-6.7-0.1-6.5-0.4c0.2-0.2,8.5-0.9,13.9-1.3c2.8-0.2,6-0.4,7-0.6l1.8-0.2l-3,1.5
		c-2.9,1.4-7.5,2.7-9.4,2.7c-0.5,0-1.8,0.5-3,1.1c-1.2,0.6-2.4,1.1-2.6,1.1s-1.5,0.5-2.7,1.1c-1.2,0.6-2.2,1.1-2.2,1.1
		C133.5,71,133.1,70.7,132.6,70.4 M232.8,71.2c-1.9-1-2-1.4-0.6-1.4c0.6,0,1.3-0.2,1.6-0.4c0.5-0.4,0.5-0.4,0-0.2
		c-0.3,0.1-0.8,0-1.1-0.2c-0.3-0.3-0.5-0.3-0.7,0c-0.2,0.3-0.6,0.4-1.4,0.1c-2-0.6-2.4-0.9-2.4-1.5c0-0.5,0.5-0.5,3.6-0.3
		c2.4,0.2,3.6,0.1,3.6-0.1c0-0.7,1-0.4,1.3,0.5l0.3,0.8l0.2-0.8c0.1-0.5,0.4-0.9,0.7-0.9s0.5-0.2,0.5-0.5c0-0.4,0.1-0.4,0.5,0
		c0.3,0.3,1.5,0.5,3,0.5c2.7,0,3.3,0.5,1.5,1.2c-0.9,0.4-2.6,0.3-4.3-0.3c-0.4-0.1-0.7-0.1-0.7,0.1c0,0.3,2.1,1.6,2.7,1.6
		c0.2,0,0.6,0.2,0.9,0.5c0.5,0.5,0.5,0.6,0,0.7c-0.3,0.1-0.6,0-0.6-0.2c0-0.3-0.5-0.3-1.4-0.2c-1,0.2-1.3,0.1-1.1-0.2
		c0.1-0.2,0.1-0.7-0.2-1c-0.5-0.6-1.9-0.8-1.9-0.2c0,0.2-0.6,0.9-1.2,1.7l-1.2,1.4L232.8,71.2z M124.1,72.8
		c-2.5-0.2-4.6-0.4-4.6-0.5c-0.3-0.3,0.5-1.3,1.4-1.7c0.9-0.4,1.3-0.3,2.5,0.3c1.2,0.6,2,0.7,4.2,0.5c1.5-0.1,3.2-0.1,3.8,0.1
		l1.1,0.3l-1.3,0.7c-0.7,0.4-1.6,0.7-1.9,0.7C128.9,73.2,126.6,73,124.1,72.8z M112,75.6c-0.5-0.9,3.2-2.2,4.7-1.7
		c1.1,0.4,0.4,1-1.6,1.3c-0.9,0.1-1.9,0.4-2.2,0.5C112.5,75.8,112.1,75.8,112,75.6 M106.1,76.7c0-0.2-0.5-0.6-1-1l-1-0.6l1.4,0.2
		c1,0.2,1.5,0.1,1.7-0.3c0.3-0.5,2.7-1.4,3.6-1.4c0.2,0,0,0.5-0.3,1.1C109.7,76.2,106.1,77.8,106.1,76.7 M78.8,77.1
		c-0.6-0.6-0.5-0.7,2.5-2.3c3.4-1.9,5.1-2.1,8.2-1.2l1.7,0.5l-2.3,0.4c-1.9,0.4-5.8,1.7-8.9,3C79.7,77.7,79.2,77.5,78.8,77.1
		 M276.7,78.2c-1.9-0.8-1.9-0.7-1.3-1.4c0.3-0.3,0.3-0.6,0.1-0.6c-0.2,0,0-0.3,0.4-0.6s0.8-0.7,0.8-0.8c0-0.6,1.6-2,2.6-2.5
		c0.6-0.3,2.2-0.6,3.6-0.7c1.4-0.1,3.2-0.3,4-0.4c0.9-0.1,1.7-0.1,1.8,0.1c0.3,0.4-0.2,0.6-3.2,1.1c-2.9,0.5-4.7,1.3-5.8,2.7
		c-1.2,1.4-1.3,2.4-0.1,3.1l0.8,0.6l-1.1,0C278.7,78.8,277.5,78.6,276.7,78.2z M207.4,79.3c0.7-0.5,1.1-0.5,1.1,0
		c0,0.2-0.4,0.4-0.9,0.4C207,79.7,206.9,79.6,207.4,79.3 M103.2,81c-0.3-0.4-0.2-0.6,0.7-1c0.6-0.3,1.5-0.3,2-0.2
		c0.8,0.3,0.8,0.3-0.4,1C103.8,81.7,103.7,81.7,103.2,81 M88,81.3c-0.5-0.1-1.8-0.5-2.8-1l-1.9-0.8l2.6-0.2c1.4-0.1,2.6-0.4,2.6-0.6
		c0-0.2-1-0.5-2.3-0.6c-1.6-0.1-2-0.3-1.1-0.4c1.4-0.2,1.5-0.8,0.2-1.1c-0.9-0.2-0.9-0.2,0.4-0.8c2.3-1,4.7-1.2,6.8-0.5
		c1.8,0.5,2,0.5,2.9,0c0.6-0.4,0.9-0.4,1-0.2c0,0.2,0.1,0.6,0.1,0.9c0.1,0.8,0.8,0.7,1.7-0.2c0.8-0.9,2.3-1.3,2.3-0.7
		c0,0.2-0.3,0.8-0.7,1.5L99,77.8l1.2,0.6l1.2,0.6l-2,0.9c-1.8,0.8-2.2,0.9-3.8,0.5c-1.6-0.4-2-0.3-3.6,0.3
		C90.2,81.6,89.8,81.6,88,81.3 M190.6,88.4c-0.6-0.4-1.4-0.7-1.8-0.5c-0.5,0.2-0.6,0-0.4-0.5c0.2-0.9,3.5-2.1,4.7-1.7
		c0.4,0.1,1.4,0,2.2-0.2c1.3-0.4,1.7-0.4,2.5,0.2l1,0.7l-0.9,0.7c-0.8,0.6-2.2,1.1-5.6,2.1C192,89,191.2,88.8,190.6,88.4
		 M115.5,88.5c-0.7-0.4-1.3-0.4-2.4-0.1c-1.8,0.5-2.4,0.1-1.5-0.9c1.2-1.3,1.9-1.5,3.3-1.1c1.6,0.5,2.3,1.3,1.8,2
		C116.6,89,116.4,89,115.5,88.5 M207.4,90.6c0-0.2,0.3-0.3,0.6-0.3c0.3,0,0.6,0.1,0.6,0.3c0,0.2-0.3,0.3-0.6,0.3
		C207.6,90.9,207.4,90.7,207.4,90.6 M129.8,90.1c-0.8-0.5-1.8-1.4-2.2-2.1c-0.8-1.2-1.5-1.4-3.6-0.8c-0.7,0.2-1.5,0.2-1.9,0
		c-1.1-0.6,0.9-1.2,3.2-1c1.7,0.2,2.1,0.2,2.3-0.4c0.4-1,2.2-1.8,3.3-1.3c0.6,0.3,1.2,0.3,2,0c1.1-0.4,1.1-0.4,0.4-1
		c-0.4-0.3-0.9-0.5-1-0.5s-0.7-0.8-1.3-1.7c-0.5-0.9-1.6-2-2.3-2.5c-1.2-0.7-1.4-0.8-2.4-0.2c-0.9,0.5-1.5,0.5-2.9,0.2
		c-1-0.2-2.4-0.3-3.1-0.2c-1.2,0.2-3.4-0.4-3.4-0.9c0-1,3.2-3.3,5.1-3.6l1.5-0.3l-1.1,1.2c-1.5,1.6-0.9,2.3,0.7,0.9
		c0.7-0.6,1.9-1.2,2.6-1.4c1.2-0.2,1.7-0.1,3.1,0.9c1.9,1.3,2.1,1.3,3.2,0.7c0.7-0.4,0.9-0.3,1.6,0.6c0.5,0.6,1.6,1.3,2.7,1.6
		c1.7,0.5,1.8,0.7,1.8,1.9c0,0.9,0.3,1.5,0.9,1.9c2.5,1.8,2.5,1.7,1.9,2.6c-0.8,1.2-1.3,1.3-3,0.4c-1.2-0.6-1.7-0.7-2.2-0.4
		c-0.7,0.4-0.7,0.5-0.1,1.6c0.5,0.9,0.5,1.4,0.2,2.1c-0.4,0.9-0.5,0.9-1.5,0.3c-2.1-1.1-3.5-0.4-1.6,0.8c0.6,0.4,1,0.8,0.9,1
		C133.1,91.3,131.2,91,129.8,90.1z M156.6,92.6c-2.4-1.3-3.5-3.3-2.8-5c0.3-0.8,0.3-1.3,0-1.9c-0.6-1.2,0.2-2.5,2.3-3.8
		c1-0.6,2-1.4,2.2-1.9c0.6-1.1,0.1-3.1-1-3.5c-0.5-0.2-0.8-0.6-0.7-0.9c0.3-0.7-1-3.1-2.2-4.3c-0.9-0.9-1.3-0.9-4.5-1
		c-4.3,0-5.1-0.3-5-1.5c0-0.5,0.1-0.9,0.3-0.9c0.1,0,1.6-0.2,3.4-0.4c2.2-0.3,4.3-0.8,6.8-1.9c3.9-1.7,4.2-1.7,13.4-1.5
		c2.9,0.1,5.6-0.1,9.1-0.7c3.2-0.5,5.6-0.7,6.9-0.6c1.1,0.1,2.7,0,3.5-0.2c2.1-0.6,7.4,0.1,9.5,1.2c1.2,0.6,1.9,0.7,4,0.5
		c2.3-0.2,2.4-0.2,1.8,0.3c-0.4,0.3-1.7,0.7-2.8,0.8c-2.5,0.3-4.8,2.1-4.2,3.2c0.3,0.5,0.1,0.9-0.8,1.7c-0.6,0.6-1.2,1.3-1.3,1.7
		c-0.3,0.8-3.6,2.4-5.3,2.4c-1.8,0.1-2,0.5-0.6,1.2c0.7,0.4,1.7,1,2.2,1.4l1,0.7l-0.9,0.3c-0.7,0.2-1.2,0.1-2.3-0.7
		c-1.5-1-3.1-1-2.3,0c0.3,0.4,0.3,0.6-0.4,0.7c-1.4,0.4-0.4,1.1,1.1,0.8c1-0.2,1.5-0.1,1.8,0.3c0.4,0.4-0.1,0.6-2.9,1.2
		c-1.8,0.4-4.2,0.7-5.4,0.7c-2.1,0-3.7,0.6-5.9,2.4c-0.7,0.6-2.3,1.1-4.1,1.5c-3.8,0.7-5.1,1.6-7.4,4.8c-1.8,2.6-3,3.6-4.1,3.6
		C158.7,93.6,157.6,93.2,156.6,92.6 M239.6,94.5c-0.7-0.3-0.6-0.7,0.2-0.8c0.4,0,0.7,0.2,0.7,0.5C240.5,94.8,240.4,94.8,239.6,94.5z
		 M15.1,98.8c0-0.3,1.1-0.7,2.8-1.1c0.6-0.1,1-0.1,0.9,0.1c-0.1,0.2-0.7,0.4-1.3,0.6c-0.6,0.1-1.3,0.3-1.7,0.5
		C15.4,98.9,15.1,98.9,15.1,98.8 M39.5,99c-0.1-0.2,0-0.6,0.3-0.8c0.6-0.5,0.7-0.1,0.2,0.7C39.9,99.2,39.6,99.2,39.5,99 M40.1,101.9
		c-0.4-0.4-0.3-0.7,0.1-1c0.8-0.6,1.1-0.2,0.7,0.8C40.6,102.3,40.5,102.3,40.1,101.9 M207.8,103.7c0-0.1,0.2-0.3,0.4-0.4
		c0.2-0.1,0.4-0.1,0.4,0.2c0,0.2-0.2,0.4-0.4,0.4C207.9,103.8,207.8,103.8,207.8,103.7 M200.8,107.4c-0.1-0.3,0-1.1,0.3-1.7
		c0.4-0.7,0.4-1.2,0.2-1.3c-0.7-0.4-0.4-0.9,0.6-1.2c0.5-0.1,1.1-0.5,1.4-0.8c0.5-0.6,2.8-0.7,3.2-0.2c0.1,0.2,0,0.8-0.4,1.2
		c-0.3,0.5-0.6,1.3-0.6,1.8c0,0.8-0.3,1.1-1.6,1.6c-0.9,0.3-1.9,0.7-2.2,0.8C201.3,108,201,107.8,200.8,107.4 M207.2,109.5
		c0.4-0.2,1.2-0.5,1.8-0.8c1.3-0.5,1.1-1-0.6-1.3c-1.1-0.2-1.2-0.3-0.5-0.7c0.4-0.3,0.6-0.7,0.4-0.9c-0.1-0.2,0.3-0.6,0.9-0.8
		c0.6-0.2,1.1-0.6,1.1-0.8c0-0.9-0.8-2.3-1.2-2.3c-1,0.1-1.5,0-1.3-0.5c0.1-0.3,0-0.8-0.2-1.1c-0.5-0.9,0.6-2.9,1.7-2.9
		c0.2,0,0.2,0.2,0.2,0.5c-0.1,0.3,0.3,0.5,0.8,0.6l0.9,0.1l-0.8,0.9l-0.8,0.9l1,0.4c1,0.4,2,1.7,3,3.9c0.5,1.1,0.8,1.3,1.4,1.2
		c1.2-0.3,1.3,0.5,0.2,1.2c-0.7,0.5-0.9,0.8-0.6,1.1c0.3,0.3-0.3,0.5-2.5,0.9c-1.6,0.2-3.5,0.5-4.3,0.7
		C206.7,109.8,206.6,109.8,207.2,109.5z M40.8,111.4c-1.3-1.2-1.5-1.7-0.6-2.1c0.8-0.3,2.2,0.7,2.8,1.9c0.6,1.3,0.6,1.3-0.3,1.3
		C42.3,112.5,41.5,112,40.8,111.4 M132.9,114.2l-1.4-0.1l2.6-2.6c1.5-1.4,2.8-2.6,3.1-2.6c0.2,0,0.2,0.3-0.2,0.7
		c-0.8,0.9-0.3,1.8,1.2,2.2c0.6,0.1,1.3,0.6,1.5,1.1c0.4,0.9,0.3,0.9-1,1.3C137.3,114.4,135.7,114.4,132.9,114.2 M134.8,115.4
		c0-0.3,0.2-0.6,0.4-0.6s0.3,0.3,0.1,0.6c-0.1,0.3-0.3,0.6-0.4,0.6C134.9,115.9,134.8,115.7,134.8,115.4 M411.3,116
		c-0.3-0.4-1.1-1.7-1.7-2.9c-0.6-1.2-2.3-3.5-3.7-5.1c-1.6-1.7-2.3-2.9-2-3c0.3-0.1,0.8,0.3,1.3,0.9c1,1.4,2.3,2.6,4.3,4.1
		c1.7,1.2,2.5,2.4,1.4,2c-1.2-0.5-0.9,0.7,0.7,2.5c0.9,1.1,1.7,2,1.7,2.1C413.3,117,411.8,116.6,411.3,116 M225.8,124
		c-0.4-0.4-0.3-1.2,0.3-1.4c0.4-0.2,0.6,0,0.6,0.7C226.6,124.2,226.3,124.5,225.8,124 M413.7,123.6c-0.7-1-0.7-1.2-0.2-1.9
		c0.5-0.7,0.5-0.9,0-1.9c-0.8-1.6-0.7-1.7,0.7-0.6c0.7,0.6,2.2,1.3,3.2,1.6c2.1,0.6,2.6,1.1,1.5,1.5c-0.4,0.1-0.8,0.5-0.8,0.8
		c0,0.4-0.3,0.5-1,0.3c-2-0.5-2.6-0.4-2.4,0.5C414.9,124.9,414.6,124.9,413.7,123.6z M216.3,127.9c0.3-0.7,1.4-0.8,1.2-0.1
		c-0.1,0.3-0.4,0.5-0.8,0.6C216.3,128.4,216.1,128.3,216.3,127.9z M225.2,127.6c-0.3-0.9-0.3-1.3,0.1-1.7c0.8-0.8,1.4-0.2,1.4,1.2
		C226.6,128.8,225.7,129.1,225.2,127.6z M232.7,131.6c-1.5-0.8-1.6-0.9-0.8-1.1c0.9-0.2,3,0.1,3,0.4c0,0.1-0.1,0.5-0.3,0.9
		C234.4,132.4,234.2,132.4,232.7,131.6 M248,135.4l-1.1-0.5l1.5,0c1.9,0,3.3,0.3,3,0.8C251.1,136.1,249.3,136,248,135.4z
		 M260.9,136.1c-0.5-0.5-0.2-0.9,0.5-0.9c0.4,0,0.8-0.2,1-0.4c0.4-0.6,1-0.5,0.7,0.1C262.8,135.6,261.2,136.4,260.9,136.1z
		 M413.9,137.4c-0.7-1.1-1.8-1.3-4.1-0.6c-1,0.3-1.6,0.3-2.1,0c-0.4-0.2-0.5-0.4-0.2-0.4c0.2,0,1-0.4,1.6-1c0.8-0.7,1.4-0.9,2-0.7
		c0.7,0.2,1.4-0.2,2.9-1.3c3-2.2,3.3-3,2-5.4c-1.2-2.3-0.8-3,0.9-2c1.3,0.7,2.4,2.9,2.1,3.8c-0.1,0.3,0.1,1.3,0.4,2.3
		c0.5,1.3,0.5,1.8,0.2,2.5c-0.5,0.9-1.8,1.5-3.4,1.5c-0.9,0-1.1,0.2-1.4,1.2l-0.3,1.2L413.9,137.4L413.9,137.4z M410.5,138.7
		c-0.2-0.6,0.3-1.2,1.2-1.3c0.6,0,0.6,0.8,0,1.4C411.1,139.5,410.8,139.5,410.5,138.7 M115.2,139.2c0-0.1,0.2-0.3,0.4-0.4
		c0.2-0.1,0.4-0.1,0.4,0.2s-0.2,0.4-0.4,0.4C115.4,139.4,115.2,139.3,115.2,139.2 M408.4,141.5c0-0.3-0.4-1-0.9-1.6
		c-1.2-1.4-0.8-2.4,0.6-1.4c1,0.7,1.6,2,1.2,3C409,142.2,408.4,142.2,408.4,141.5 M91.5,149.8c0-0.3,0.3-0.6,0.7-0.6
		c0.6,0,0.7,0.1,0.2,0.6c-0.3,0.3-0.6,0.6-0.7,0.6S91.5,150.1,91.5,149.8 M93.9,150.1c-0.1-0.4-0.2-0.7-0.1-0.8
		c0.1-0.1,0.3,0.1,0.4,0.4c0.1,0.4,0.2,0.7,0.1,0.8C94.2,150.6,94,150.4,93.9,150.1 M91.7,153.1c-0.6-0.7-0.5-1.6,0.2-1.6
		c0.2,0,0.3,0.3,0.2,0.7c-0.1,0.4,0,0.8,0.2,0.9c0.2,0.1,0.3,0.3,0.2,0.4C92.4,153.6,92,153.4,91.7,153.1 M99.2,156.7
		c0.3-0.4,1.7-0.5,1.7-0.1c0,0.2-0.4,0.3-0.9,0.3C99.4,157,99.1,156.9,99.2,156.7 M397.6,157.2c-0.2-0.2-0.6-0.7-0.9-1.1
		c-0.4-0.7-0.3-1.1,0.2-2c0.9-1.5,1.5-1.7,1.8-0.6C399,154.7,398.1,157.6,397.6,157.2 M96.7,157.9c0.7-0.5,1.1-0.5,1.1,0
		c0,0.2-0.4,0.4-0.9,0.4C96.3,158.2,96.2,158.2,96.7,157.9 M94,161.1c-0.1-0.1-0.9-0.2-1.8-0.2c-1.2,0-1.5-0.1-1.2-0.5
		c0.3-0.3-0.1-0.8-1.5-1.7c-2.7-1.8-4.2-2.1-6.1-1.4c-1.7,0.7-1.8,0.7-1.8,0.3c0-0.8,3-1.7,5.2-1.5c2.1,0.2,3.2,0.6,7.3,2.8
		c3.3,1.8,3.3,1.8,2.3,2.1C95.1,161.3,94.2,161.3,94,161.1 M110.3,163.8c0-0.1,0.3-0.2,0.6-0.4c0.3-0.1,0.6-0.1,0.6,0.1
		s-0.3,0.4-0.6,0.4C110.5,163.9,110.3,163.9,110.3,163.8 M380.5,163.8c-1-1,0-2.2,1.8-2.2c0.8,0,0.8,0,0.1,1.2
		C381.6,164.2,381.1,164.5,380.5,163.8 M107.2,164.4c-0.4-0.4,0.1-0.9,1.1-0.9c0.6,0,0.9,0.2,0.8,0.5
		C108.9,164.5,107.6,164.8,107.2,164.4 M99.9,164.2c-0.3-0.2-1.1-0.2-1.7-0.1c-0.6,0.1-1.5,0.1-2-0.1c-0.8-0.3-0.7-0.4,0.6-0.3
		c2,0,2.5-0.3,2-1.2c-0.4-0.7-0.3-0.7,1.5-0.7c1.7,0,4.3,0.8,4.7,1.5C105.5,163.6,100.6,164.6,99.9,164.2z M90.4,164.4
		c-0.3-0.1-0.5-0.3-0.5-0.5c0-0.5,1.7-0.4,2.5,0.2c0.7,0.5,0.7,0.6-0.4,0.5C91.3,164.6,90.6,164.5,90.4,164.4 M116.3,165.4
		c0-0.2,0.1-0.4,0.2-0.4c0.1,0,0.3,0.2,0.4,0.4c0.1,0.2,0.1,0.4-0.2,0.4S116.3,165.6,116.3,165.4 M114.6,165.4
		c-0.1-0.2-0.1-0.4,0.2-0.4c0.2,0,0.4,0.2,0.4,0.4s-0.1,0.4-0.2,0.4C114.9,165.8,114.8,165.6,114.6,165.4 M173.2,166.2
		c-0.1-0.2-0.1-0.4,0.2-0.4c0.2,0,0.4,0.2,0.4,0.4c0,0.2-0.1,0.4-0.2,0.4C173.5,166.6,173.3,166.4,173.2,166.2 M113.1,166.2
		c-0.1-0.2,0-0.3,0.4-0.1c0.7,0.3,0.8,0.5,0.2,0.5C113.5,166.6,113.3,166.4,113.1,166.2 M116.3,167.7c0-0.2,0.2-0.5,0.4-0.6
		c0.2-0.1,0.4-0.1,0.4,0.1s-0.2,0.5-0.4,0.6C116.5,168,116.3,167.9,116.3,167.7 M176.8,169.2c0-0.2,0.2-0.4,0.4-0.4
		c0.2,0,0.4,0.2,0.4,0.4c0,0.2-0.2,0.4-0.4,0.4C176.9,169.6,176.8,169.4,176.8,169.2 M117.5,170.6c0-0.1,0.2-0.3,0.4-0.4
		c0.2-0.1,0.4-0.1,0.4,0.2c0,0.2-0.2,0.4-0.4,0.4C117.6,170.7,117.5,170.6,117.5,170.6 M404.5,172.9c-0.4-0.2-1.1-0.3-1.6-0.2
		c-0.7,0.2-1.2-0.1-2.6-1.5c-1.9-2-2.3-2.8-1.7-3.9c0.2-0.4,0.4-1.3,0.4-1.9c0-2.1,1.4-2,2.4,0.1c0.6,1.2,0.6,1.4,0,2.7
		c-0.6,1.4-0.6,1.4,0.5,2.5c0.7,0.8,1.3,1,1.8,0.9c0.5-0.1,1,0,1.3,0.4C405.6,172.8,405.3,173.4,404.5,172.9z M119.7,173
		c0-0.2,0.1-0.4,0.2-0.4c0.1,0,0.3,0.2,0.4,0.4c0.1,0.2,0.1,0.4-0.2,0.4C119.9,173.4,119.7,173.2,119.7,173 M102,173.7
		c0-0.2,0.1-0.4,0.2-0.4c0.1,0,0.3,0.2,0.4,0.4c0.1,0.2,0.1,0.4-0.2,0.4C102.2,174.1,102,173.9,102,173.7 M104.1,174.2
		c-0.1-0.1-0.3-0.4-0.3-0.6c0-0.2,0.2-0.2,0.4,0.1c0.2,0.2,0.4,0.5,0.3,0.6C104.5,174.4,104.3,174.4,104.1,174.2 M400.7,174.3
		c-0.3-0.3-0.6-0.8-0.6-1c0-0.2,0.4-0.1,0.8,0.4c0.5,0.5,0.7,0.9,0.6,1C401.4,174.8,401,174.6,400.7,174.3 M406.9,175.8
		c-0.4-0.6-0.7-1.1-0.6-1.1c0.3-0.3,1.4,0.4,1.9,1.2C409,177.2,407.9,177.1,406.9,175.8 M402.4,177.1c-0.5-0.6,0-1.5,0.8-1.4
		c0.5,0.1,0.5,0.3,0.1,1C402.9,177.4,402.8,177.5,402.4,177.1 M406.2,178c-0.1-0.4-0.3-0.8-0.4-1s0-0.3,0.2-0.3
		c0.4,0,0.9,1.6,0.6,1.8C406.6,178.7,406.4,178.4,406.2,178 M114.4,178.1c0.2-0.3,0.3-0.6,0.2-0.8c-0.1-0.1,0.1-0.2,0.5-0.2
		c0.6,0,0.7,0.2,0.6,0.8c-0.1,0.4-0.5,0.8-1,0.8C114.1,178.7,114.1,178.5,114.4,178.1L114.4,178.1z M403.7,179.6
		c-0.1-0.4-0.1-0.9,0.1-1.2c0.3-0.5,0.4-0.5,0.7,0c0.3,0.4,0.3,0.7-0.1,1.2C404,180.2,403.9,180.2,403.7,179.6 M395.5,180.6
		c0-0.2,0.8-1.1,1.7-2.2c1.4-1.5,1.7-1.7,1.7-1.1c0,0.4-0.6,1.4-1.3,2.2C396.5,180.8,395.5,181.3,395.5,180.6 M481.3,182.8
		c0-0.2,0.1-0.4,0.2-0.4c0.1,0,0.3,0.2,0.4,0.4c0.1,0.2,0.1,0.4-0.2,0.4C481.5,183.2,481.3,183,481.3,182.8 M422,182.9
		c0-0.2,0.2-0.5,0.4-0.6c0.2-0.1,0.4-0.1,0.4,0.1c0,0.2-0.2,0.5-0.4,0.6C422.1,183.1,422,183.1,422,182.9 M337.6,184.8
		c-0.4-0.7-0.7-3.8-0.4-4.6c0.3-0.9,0.3-0.9,1.3,0.6c1.2,1.7,1.5,2.8,1.1,3.4C339.3,184.7,337.8,185.2,337.6,184.8z M406.5,184.1
		c-0.7-1.7-0.8-1.8-1.9-1.5c-1.1,0.2-1.1,0.2-0.7-0.6c0.3-0.6,0.7-0.8,1.5-0.6c0.8,0.2,1.3,0,2.1-0.7c0.6-0.5,1-1.2,1-1.6
		c0-1,1.4,2.2,1.7,4c0.2,1.3,0.2,1.4-0.4,0.9c-0.9-0.7-1.7,0-1,0.9c0.3,0.3,0.3,0.6,0.1,0.6c-0.2,0-0.7,0.1-1,0.2
		C407.4,185.8,407,185.4,406.5,184.1L406.5,184.1z M224.8,189.8c0-0.1,0.2-0.3,0.4-0.4c0.2-0.1,0.4-0.1,0.4,0.2
		c0,0.2-0.2,0.4-0.4,0.4C224.9,190,224.8,189.9,224.8,189.8 M484.5,193.4c-0.1-0.2-0.1-0.4,0.2-0.4c0.2,0,0.4,0.2,0.4,0.4
		c0,0.2-0.1,0.4-0.2,0.4C484.8,193.8,484.6,193.6,484.5,193.4 M222.5,194.4c0-0.1,0.2-0.3,0.4-0.4c0.2-0.1,0.4-0.1,0.4,0.2
		c0,0.2-0.2,0.4-0.4,0.4C222.7,194.5,222.5,194.4,222.5,194.4 M412.2,195.6c-0.3-0.3-0.3-0.7-0.1-1.1c0.2-0.4,0.3-0.9,0.2-1.1
		c-0.3-0.6,0.5-1.9,1.2-1.9c0.6,0,0.6,0.1,0,0.7c-0.5,0.6-0.6,0.9-0.3,1.7C413.9,195.5,413.2,196.6,412.2,195.6L412.2,195.6z
		 M473.7,196.6c0-0.1,0.2-0.3,0.4-0.4c0.2-0.1,0.4-0.1,0.4,0.2c0,0.2-0.2,0.4-0.4,0.4C473.9,196.8,473.7,196.7,473.7,196.6
		 M413.6,201.4c-0.8-0.2-0.9-0.9-0.1-0.9c0.3,0,1.1,0.1,1.8,0.3c1.1,0.2,1.1,0.3,0.5,0.5C414.9,201.7,414.5,201.7,413.6,201.4z
		 M391.6,201.4c-0.6-0.3-1.3-0.4-1.7-0.3c-0.9,0.3-4.7-0.5-5-1c-0.3-0.4-1.2-3.2-1.6-5.2c-0.1-0.5,0-1.2,0.3-1.7
		c0.4-0.6,0.7-0.6,1.3-0.3c0.7,0.4,0.9,0.3,1.3-0.5c0.2-0.5,1.1-1.3,1.8-1.7c0.8-0.4,1.6-1.2,1.9-1.8c0.3-0.8,0.9-1.3,1.8-1.6
		c0.7-0.2,1.7-1,2.3-1.7c0.5-0.7,1.2-1.3,1.4-1.3c0.2,0,1,0.6,1.7,1.2l1.2,1.2l-1,1.3c-1.1,1.5-1,2.8,0.2,4.5l0.8,1.1l-0.9,0.6
		c-0.5,0.3-0.9,0.8-0.9,1.1c0,0.9-2.4,5.9-3,6.2C392.8,201.9,392.3,201.8,391.6,201.4z M450.9,202.7c-0.4-0.5-1.2-1.3-1.8-1.6
		s-1.1-0.7-1-0.8c0.6-0.6,3.9,2.1,3.6,2.9C451.7,203.5,451.3,203.3,450.9,202.7z M399.1,204.7c-0.1-0.2-0.1-0.7,0-1.1
		c0.1-0.4,0-1.1-0.3-1.6c-0.5-0.8-0.5-1,0.1-1.8c0.3-0.5,0.8-1.8,0.9-3c0.2-1.4,0.6-2.4,1.2-3c0.8-0.8,1-0.9,2.9-0.5
		c1.6,0.3,2.2,0.3,3.1-0.2c1.5-0.8,1.6-0.7,1.1,0.3c-0.6,1.3-1.8,1.8-3.1,1.1c-2.3-1.2-5.4,0.6-3.7,2.2c0.6,0.6,0.9,0.6,2,0.3
		c1.9-0.5,2.6-0.4,1.5,0.2c-1.3,0.7-1.6,1.5-0.9,2.8c0.3,0.6,0.6,1.5,0.6,2.1c0,0.9-0.1,0.9-0.8,0.6c-0.4-0.2-1-1-1.3-1.8
		c-0.6-1.4-0.6-1.4-1.3-0.6c-0.6,0.6-0.7,0.9-0.3,2.2c0.3,1.2,0.3,1.5-0.1,1.8C399.7,205.2,399.4,205.2,399.1,204.7L399.1,204.7z
		 M299.2,204.7c0-0.2,0.2-0.4,0.4-0.4c0.2,0,0.4,0.2,0.4,0.4c0,0.2-0.2,0.4-0.4,0.4C299.4,205.1,299.2,204.9,299.2,204.7 M375.3,205
		c-1.4-0.8-3.9-3.9-4.7-5.8c-0.4-1-1.4-2.7-2.2-3.8c-0.8-1-1.7-2.4-2-3c-0.3-0.6-1.3-1.8-2.2-2.6c-1.8-1.8-2.9-3.6-2.2-3.6
		c1,0,3.5,1.4,4.6,2.6c3,3.2,3.6,3.7,5.1,4.6c1.4,0.8,2,1.7,2.1,2.8c0,0.2,0.4,0.8,0.9,1.3c0.5,0.5,1.3,1.5,2,2.2
		c0.6,0.7,1.2,1.7,1.4,2.3C378.4,204.1,376.8,205.8,375.3,205z M446.2,206.4l-0.9-0.5l1.5-0.3c0.8-0.2,2-0.8,2.7-1.4
		c0.8-0.7,1.3-0.9,1.3-0.6c0,0.8-0.5,1.4-1.9,2.4C447.3,207.1,447.4,207.1,446.2,206.4z M454.2,207.6c-0.2-0.3-0.5-1-0.6-1.6
		c-0.2-1-0.2-1,0.2-0.4c0.3,0.4,0.7,1,1,1.4c0.3,0.4,0.4,0.7,0.2,0.8C454.7,208,454.4,207.9,454.2,207.6 M456.5,208.1
		c-0.4-0.4-0.5-0.8-0.3-0.8c0.2,0,0.7,0.3,1.1,0.8c0.4,0.4,0.5,0.8,0.3,0.8S456.9,208.5,456.5,208.1 M388.7,209.9
		c-1.4-0.2-3.3-0.6-4.2-0.9c-1-0.3-2.1-0.5-2.6-0.3c-0.9,0.3-4.5-0.8-4.5-1.3c0-1.2,3.4-1.3,5.2-0.1c0.7,0.4,1.2,0.5,2.6,0.1
		c1.6-0.4,1.9-0.3,2.8,0.4c0.6,0.4,1.2,0.8,1.4,0.8c0.7,0,3,1.3,2.8,1.6c-0.1,0.2-0.4,0.3-0.6,0.3
		C391.4,210.3,390.1,210.1,388.7,209.9z M459.6,210c-1-1.1-0.5-1.3,0.6-0.2c0.5,0.5,0.7,0.9,0.5,0.9
		C460.4,210.8,459.9,210.4,459.6,210z M457.2,210.4c-0.3-0.4-0.3-0.8-0.1-0.8c0.2,0,0.5,0.3,0.8,0.8c0.2,0.4,0.3,0.8,0.1,0.8
		C457.8,211.1,457.5,210.8,457.2,210.4 M400.5,210.6c-0.7-0.8,0.1-1.1,1.9-0.6c1.8,0.5,1.8,0.6-0.1,0.9
		C401.3,211.1,400.8,211,400.5,210.6 M394.9,210.9c-0.3-0.1-0.4-0.4-0.3-0.5c0.3-0.5,2.7-0.4,3,0c0.1,0.2,0,0.4-0.3,0.4
		c-0.3,0-0.8,0.1-1.3,0.2C395.7,211,395.1,211,394.9,210.9z M491.5,212.5c0-0.1,0.2-0.3,0.4-0.4c0.2-0.1,0.4-0.1,0.4,0.2
		s-0.2,0.4-0.4,0.4C491.7,212.7,491.5,212.6,491.5,212.5 M462.3,212.1c-0.1-0.4-0.2-1-0.2-1.3c0-0.4,0.1-0.3,0.4,0.3
		c0.2,0.5,0.3,1.1,0.2,1.3C462.6,212.6,462.4,212.5,462.3,212.1 M460.5,212.5c-0.5-0.6-0.4-0.7,0.5-0.3c0.3,0.1,0.6,0.4,0.6,0.6
		C461.6,213.2,461,213.1,460.5,212.5 M405.7,211.9c1.1-1.5,2.7-2.1,4.3-1.7c1.1,0.4,1.1,0.4,0.3,0.4c-0.5,0-1.8,0.5-2.8,1.2
		C405.2,213.3,404.7,213.3,405.7,211.9z M399.3,212.4c-0.5-0.3-0.7-0.5-0.4-0.5c0.7,0,1.8,0.6,1.5,0.9
		C400.3,212.9,399.8,212.7,399.3,212.4 M462.8,214c-0.3-0.4-0.3-0.6-0.1-0.6c0.5,0,1,0.7,0.7,1C463.3,214.5,463,214.3,462.8,214z
		 M446.3,214c-2.4-0.8-3.5-1.5-4.4-2.9c-1.1-1.6-3-2.8-4-2.5c-0.4,0.1-1.1,0.8-1.5,1.6c-0.7,1.2-0.9,1.3-2.2,1.1
		c-0.8-0.1-1.9-0.7-2.4-1.2c-0.7-0.7-1.2-0.9-1.8-0.7c-0.4,0.1-1.1,0.1-1.4-0.1c-0.5-0.3-0.5-0.4,0.4-1c1-0.6,1-0.6,0.3-2
		c-0.5-1.1-1.2-1.7-3.6-2.8c-1.6-0.8-3.4-1.5-4-1.5c-1.4,0-2-1.3-0.9-2.1c0.6-0.5,0.5-0.6-1.1-1.4c-1.7-0.8-1.8-0.9-0.9-1.3
		c0.5-0.3,1.2-0.5,1.7-0.5c0.9,0,2,1.3,2,2.3c0,0.3,0.4,1.1,0.8,1.7c0.8,1,0.8,1,1.4,0.3c0.3-0.4,1.4-1.2,2.3-1.7l1.7-1l2.4,1.1
		c1.3,0.6,3.2,1.4,4.2,1.7c1,0.4,2.9,1.4,4.3,2.3c2.7,1.8,3.9,3.3,3.2,4.1c-0.5,0.7,1.6,3.7,3.8,5.3
		C449.1,214.7,449,214.9,446.3,214z M280.5,217.6c-0.1-0.2-0.1-0.4,0.2-0.4s0.4,0.2,0.4,0.4c0,0.2-0.1,0.4-0.2,0.4
		C280.8,217.9,280.6,217.8,280.5,217.6 M503.8,219.4c-0.3-0.6,0-0.8,0.8-0.7c0.6,0.1,0.6,0.2,0.1,0.6
		C504.2,219.7,503.9,219.8,503.8,219.4 M473,223.1c0-0.4,0.1-0.6,0.2-0.5c0.1,0.1,0.1,0.5,0,0.7C473.1,223.6,473,223.5,473,223.1z
		 M471.6,223.3c-0.8-1.7-0.5-2.3,0.3-0.7c0.8,1.7,0.8,1.7,0.5,1.7C472.2,224.4,471.8,223.9,471.6,223.3 M489.2,224.7
		c-0.7-0.5-0.2-0.8,0.9-0.7c0.9,0.1,0.9,0.2,0.3,0.6C490,224.9,489.5,224.9,489.2,224.7 M486.8,226.4c-0.4-1,0.1-1.3,1.1-0.8
		c0.9,0.4,0.9,0.5,0.3,0.9C487.4,227.2,487.1,227.1,486.8,226.4 M300.3,230.2c0-0.1,0.2-0.3,0.4-0.4c0.2-0.1,0.4-0.1,0.4,0.2
		c0,0.2-0.2,0.4-0.4,0.4C300.5,230.4,300.3,230.3,300.3,230.2 M496.6,230.9c-0.1-0.2-0.1-0.5,0.2-0.6c0.6-0.3,0.8-0.1,0.4,0.5
		C497,231.1,496.8,231.1,496.6,230.9z M297.7,231.5c0-0.2,0.2-0.4,0.4-0.4c0.2,0,0.4,0.2,0.4,0.4c0,0.2-0.2,0.4-0.4,0.4
		C297.8,231.9,297.7,231.8,297.7,231.5 M466.2,232.1c-1.2-1.3-1.9-2.5-1.9-3c0-1.3,0.2-1.2,1.3,0.7c0.5,0.9,1.5,2.1,2.1,2.7
		c0.6,0.6,1.1,1.2,1.1,1.4C468.8,234.6,468,234.1,466.2,232.1z M280.1,238.6c-1.1-0.6-1.2-0.9-1.5-3.2c-0.2-1.8-0.1-2.2,0.9-3.9
		c1.1-1.8,1.2-2.1,0.9-4c-0.3-2.8,0.2-4.2,1.8-4.6c1.5-0.3,4.8-3.2,5.6-4.9l0.6-1.3l0.4,0.9c1,2.3,0.9,3.3-0.9,8.4
		c-1,2.7-2,5.9-2.3,7.2c-1,4-1.5,5-3.1,5.4C280.9,239.2,281,239.2,280.1,238.6z M290.5,133.1c1-0.5,1.1-0.8,1.1-2.2
		c0-1-0.2-1.8-0.6-2.1c-0.3-0.3-0.9-1-1.2-1.6c-0.5-1-0.5-1.1,0-0.9c0.7,0.3,1.7-0.1,1.7-0.6c0-0.2-0.4-0.9-0.8-1.5
		c-0.6-0.9-0.9-1-1.5-0.7c-0.5,0.3-0.7,0.3-0.7,0c0-0.2-0.7-0.7-1.5-1.1c-1.8-0.9-2.5-2-1.9-3c0.4-0.8,2-1.4,2.6-1
		c0.9,0.5,1.1-0.3,0.4-1.3c-1.8-2.5-4.2-2.3-7.3,0.5c-2,1.8-2.1,2.3-1,2.9c0.4,0.2,0.8,0.7,0.8,1c0,0.3,0.7,1.3,1.5,2.2
		c1.9,2.1,2.2,3,2,5.4l-0.2,2l2.6,1.3c1.4,0.7,2.6,1.3,2.7,1.4C289.3,133.7,289.9,133.4,290.5,133.1 M240.8,253.6
		c-0.8-0.8-0.9-1.2-0.8-2.3c0.2-1,0-1.6-0.7-2.7c-0.5-0.8-0.9-1.6-0.9-1.8c0-0.2-0.7-1.3-1.5-2.4c-1.3-1.7-1.5-2.4-1.7-4.5
		c-0.4-3.8-1.6-7.9-3.2-10.8c-0.8-1.5-1.6-3.3-1.7-4.2c-0.3-1.8,0.4-4.5,2.1-7.8l1.1-2.2l-0.6-1.9c-0.4-1.1-0.5-2.3-0.4-2.9
		c0.2-0.6,0-1.4-0.5-2.2c-0.4-0.7-1-2.1-1.3-3.3c-0.4-1.5-1-2.5-2.3-3.7c-2.4-2.3-2.7-3.3-2-5.8c1.5-5.2-0.1-8.2-4.1-7.6
		c-1.6,0.2-1.6,0.2-1.8-0.9c-0.2-0.8-0.6-1.3-1.8-1.9c-1.5-0.8-2.1-0.8-4,0c-0.4,0.2-2.1,0.8-3.8,1.3c-2.5,0.8-3.2,0.9-4.3,0.6
		c-1-0.3-1.9-0.2-4,0.4c-2.2,0.6-3,0.7-4.1,0.3c-2.5-0.7-6.7-4.5-7.3-6.6c-0.5-1.6-3.4-5.4-4.3-5.6c-0.6-0.2-0.7-0.3-0.3-0.6
		c0.4-0.2,0.3-0.4-0.3-0.5c-1-0.2-1-1-0.1-1c0.6,0,0.6-0.1,0.1-0.4c-0.4-0.2-0.4-0.4-0.1-0.4c0.3,0,0.2-0.5-0.3-1.3
		c-0.7-1.2-0.7-1.4-0.2-2c1.7-1.9,2.1-5.9,0.8-8.4c-0.6-1.2-0.2-2.9,1.1-4.6c0.5-0.7,1.5-2.2,2.1-3.5c1.2-2.3,3.9-5.4,4.6-5.4
		c0.8,0,3.4-2.8,3.4-3.6c0-1.9,1.2-3.9,3-5.1c1-0.7,2.2-1.8,2.6-2.5c0.9-1.5,1-1.5,2.1-0.8c0.4,0.3,1.4,0.6,2.3,0.8
		c1.3,0.2,1.9,0.1,3.8-1c3.3-1.7,5.3-2.2,9-1.9c2.5,0.2,3.6,0.1,4.8-0.4c1.8-0.7,3.3-0.3,2.9,0.8c-0.1,0.3,0,0.8,0.2,1.1
		c0.3,0.3,0.3,0.8,0,1.5c-0.3,0.9-0.3,1.2,0.6,2.1c0.5,0.6,1.5,1.1,2.2,1.3c3,0.6,3.9,1,4.5,2.1c0.5,0.8,1.1,1.2,2.1,1.4
		c0.8,0.1,1.9,0.5,2.5,0.8c1,0.5,1.2,0.5,2-0.3c0.6-0.5,0.8-1.1,0.7-1.5c-0.1-0.4,0-1,0.2-1.4c0.6-1.1,2.2-1,4.8,0.3
		c2.8,1.4,8.2,2.4,10.1,1.9c0.9-0.3,1.8-0.3,2.6,0c2.6,0.8,3.9,0.2,4.3-2c0.1-0.7,0.3-1.3,0.4-1.3c0.2,0,0.4-1.1,0.4-3.5
		c0-0.8,0.2-1.4,0.4-1.4c0.3,0,0.2-0.3,0-0.8c-0.5-0.9-1.4-0.8-3.7,0.1c-1.1,0.4-1.4,0.4-2.3-0.1c-1.2-0.7-2.5-0.8-2.9-0.2
		c-0.3,0.4-2.2,0.1-3.3-0.5c-0.8-0.5-1.5-1.9-1.5-2.9c0-0.4-0.4-1-0.8-1.3c-0.7-0.5-0.8-0.7-0.3-1c0.3-0.2,1-0.3,1.4-0.2
		c0.6,0.1,1.2-0.1,1.9-0.8c0.7-0.7,1.5-1,2.4-1.1c0.7,0,1.8-0.4,2.4-0.8c1.2-0.8,4.1-0.6,6.3,0.5c3,1.5,5.6,1.4,6.7-0.2
		c0.6-0.8,0.6-1,0-1.8c-0.3-0.5-1.9-1.6-3.4-2.5l-2.8-1.6l0.5-1c0.3-0.6,0.4-1.1,0.3-1.2c-0.1-0.1-0.1-0.4,0.1-0.7
		c0.2-0.3,0.3-0.7,0.4-1c0.1-0.6-0.5-0.4-3.5,0.9c-1.7,0.8-2,1-1.6,1.5c0.3,0.3,0.8,0.6,1.3,0.6c0.6,0,0.5,0.2-0.6,0.8
		c-1.4,0.7-1.5,0.7-2.4,0.1c-0.8-0.5-0.9-0.7-0.5-1.2c0.4-0.4,0.3-0.6-0.3-0.8c-0.4-0.1-0.9-0.5-1.1-0.8c-1.1-1.4-4.5,2.4-5.5,6.1
		c-0.5,1.8-0.5,1.8,0.4,2.5l0.9,0.7l-1.7,0.3c-0.9,0.2-2.2,0.2-2.8,0c-1.1-0.3-2.5,0.2-2.5,0.8c0,0.2-0.3,0.3-0.6,0.1
		c-0.3-0.1-0.8,0-1.1,0.2c-0.5,0.4-0.4,0.7,0.4,2.1c0.8,1.5,0.8,1.8,0.3,2.8c-0.6,1.3-1.2,1.2-2.1-0.3c-0.6-1.1-0.6-1.1,0.2-1.2
		c1.1-0.2,1.1-0.8,0.1-1c-2.3-0.4-3.6-1.6-3.6-3.5c0-1.5-1.4-3.2-3.1-3.7c-0.9-0.3-1.8-0.8-2.1-1.2c-0.3-0.4-1.1-1-1.9-1.3
		c-0.7-0.3-1.6-0.9-1.9-1.3c-0.4-0.6-0.7-0.6-1.2-0.3c-0.4,0.2-0.7,0.6-0.7,0.9c0,1,4.8,5.4,7.2,6.6c2.5,1.3,2.9,1.7,1.2,1.3
		c-1.5-0.3-2,0-1.4,1.2c0.4,0.8,0.3,1.1-0.4,1.8l-0.9,0.8l0.2-1.1c0.3-1.8-2-4.4-4-4.4c-0.7,0-3.5-2.7-4.2-4.1
		c-0.8-1.5-1.6-1.8-2.8-1c-1.8,1.2-3.2,1.7-4.6,1.4c-1.9-0.3-3.1,0.3-2.8,1.6c0.2,0.6,0.1,0.9-0.3,0.9c-0.3,0-1,0.4-1.6,0.9
		c-0.6,0.5-1.2,0.9-1.4,0.9c-0.5,0-1.8,2.4-1.8,3.2c0,0.8-1.5,2.4-2.9,3.1c-0.5,0.2-1.5,0.4-2.3,0.4c-1.2,0-1.6,0.2-1.9,0.8
		c-0.4,0.8-0.4,0.8-1.4-0.2c-0.9-0.9-1.4-1.1-3.3-1.4c-1-0.1-1.1-2.3-0.4-5.4c0.3-1.3,0.5-2.8,0.3-3.3c-0.4-1.4,0.8-2.3,2.6-2
		c4.3,0.7,6.9,0.7,7.5,0.1c0.8-0.8,1.2-3.5,0.7-5c-0.3-1-0.8-1.4-2.1-1.9c-2-0.7-2-1.5-0.1-1.5c0.7,0,1.8-0.3,2.3-0.7
		c0.6-0.4,1.2-0.6,1.4-0.4c0.5,0.3,2.6-0.8,3.2-1.9c0.3-0.5,1-1,1.4-1.1c0.5-0.1,1.7-1,2.7-2c1.5-1.4,2.2-1.8,3.5-2
		c1.6-0.2,3.1-1.5,2.4-2c-0.5-0.3-0.8-2.1-0.6-2.8c0.1-0.3,0.7-0.9,1.2-1.2l1-0.6l-0.2,1.6c-0.2,1.3-0.2,1.5,0.4,1.4
		c0.4-0.1,1.1-0.3,1.5-0.6c0.7-0.4,0.9-0.4,1.1,0.1c0.3,0.8-0.6,1.8-1.2,1.3c-0.3-0.3-0.6-0.3-0.8,0c-0.2,0.3-0.4,0.3-0.6-0.1
		c-0.2-0.3-0.4-0.4-0.5-0.3c-0.1,0.1,0.2,0.7,0.7,1.3c0.8,1,1,1.1,2.1,0.7c1-0.3,1.4-0.3,2.3,0.1c0.9,0.5,1.3,0.5,3.1-0.2
		c1.6-0.6,2.2-0.7,2.9-0.4c0.6,0.3,1.1,0.3,1.7,0c1.7-0.9,2.2-1.5,2-2.8c-0.3-1.8,0.3-2.4,1.8-1.8c1,0.4,1.3,0.4,1.8-0.1
		c0.5-0.5,0.4-0.7-0.4-1.5c-0.8-0.8-0.8-1-0.4-1.3c0.3-0.2,1.5-0.3,2.6-0.2c2,0.2,4.5-0.6,4.1-1.3c-0.4-0.6-2.7-0.8-4.6-0.4
		c-1.7,0.4-2.2,0.4-3.5-0.2c-2.1-0.9-2.3-2-0.9-4c1.8-2.5,2.2-3.3,1.6-4c-0.8-0.9-1.5-0.6-3.3,1.3c-0.9,1-2.2,2.1-2.8,2.3
		c-0.6,0.3-1.4,1-1.7,1.6c-0.5,1-0.5,1.2,0,2c0.3,0.5,0.9,1,1.3,1.1c1.2,0.4,0.9,1.1-0.7,2.2c-0.5,0.3-1.2,1.3-1.5,2.2
		c-0.4,1.1-1,1.8-2,2.4c-1.3,0.8-1.4,0.8-2.2,0.1c-0.4-0.4-0.9-1.2-1-1.7c-0.1-0.6-0.7-1.6-1.3-2.3l-1-1.2l-1.3,0.8
		c-0.7,0.4-1.7,0.8-2.1,0.8c-1.2,0-2.6-1.3-2.7-2.5c0-0.6-0.2-1.4-0.3-1.7c-0.3-0.8,1.4-2.4,3.1-2.9c1.8-0.5,5.3-3,6-4.2
		c0.3-0.5,1.2-1.6,2-2.3c0.9-0.8,1.5-1.6,1.5-1.8c0-0.2,0.8-0.7,1.8-1c1-0.4,2.6-1,3.7-1.4c1.3-0.5,2.9-0.8,4.9-0.9
		c3.6-0.1,5.9,0.4,7.8,1.6c1,0.6,1.7,0.8,2.5,0.7c1.3-0.3,8.3,1.9,8.5,2.6c0.3,0.8-1.7,1.5-3.4,1.2c-0.8-0.1-2.4-0.4-3.6-0.7
		c-1.6-0.3-2.3-0.4-2.6,0c-0.3,0.3-0.2,0.5,0.6,0.9c0.6,0.3,1.3,0.9,1.6,1.5c0.8,1.5,3.2,2.7,4.5,2.2c1.2-0.5,1.2-0.6-0.1-1.3
		c-1.2-0.6-0.6-0.8,0.9-0.2c1.2,0.5,2.5-0.1,2.2-0.9c-0.1-0.4,0.3-0.7,1.4-1c2.5-0.6,2.7-0.7,2.5-1.2c-0.8-1.9-0.8-1.9,0.3-1.7
		c0.6,0.1,1.1,0.3,1,0.6c0,0.3,0.3,0.7,0.7,0.9c0.7,0.4,1.2,0.2,3-0.7c2.6-1.4,4.7-1.8,5.5-1.2c0.4,0.4,1.1,0.4,3.2,0
		c1.5-0.2,2.8-0.3,3-0.2c0.2,0.1,0.5,0,0.6-0.2c0.3-0.5-0.5-1.6-1-1.3c-0.5,0.3-2.3-0.3-1.9-0.7c0.4-0.4,10.9,2.1,11.5,2.7
		c0.4,0.4,1.8-0.1,1.8-0.7c0-0.2-0.7-0.7-1.7-1.2c-2.8-1.4-3-3.6-0.4-4.3c1.6-0.4,2.2,0.1,4.4,2.9c2.8,3.7,2.7,3.5,1.8,4.8
		c-0.7,0.9-0.7,1.2-0.2,1.3c0.9,0.3,2.8-0.8,3-1.9c0.3-1.2-0.3-2.3-1.7-3c-1.1-0.6-1.9-1.6-1.9-2.5c0-0.3,0.4-0.4,1.2-0.2
		c1.2,0.2,2.2-0.2,5-2.2c0.6-0.5,1.7-0.7,2.8-0.8c2.2,0,2.9-0.4,2.3-1.2c-0.2-0.3-0.4-0.6-0.3-0.7c0.5-0.5,6.7-1.4,8.1-1.1
		c1.4,0.2,1.8,0.1,2.9-0.8c0.7-0.6,1.3-1.2,1.3-1.3c0-0.5-3.3-0.4-3.6,0c-0.4,0.6-0.9,0.4-0.8-0.3c0.1-0.6-0.2-0.7-2.9-1
		c-7.5-0.6-8.1-0.7-7.2-1.6c0.8-0.8,2.7-0.8,4.4,0c0.7,0.3,1.8,0.6,2.5,0.6c0.7,0,1.3,0.2,1.5,0.4c0.1,0.2,0.8,0.4,1.5,0.4
		c1.9,0,5.5,0.8,5.3,1.2c-0.1,0.2,0.2,0.3,0.8,0.3c0.5,0,1.5,0.3,2.2,0.7c0.9,0.5,2.1,0.7,4.8,0.7c2.9,0,3.8,0.2,4.6,0.7
		c0.6,0.4,1,0.8,1,0.9c0,0.1-0.9,0.7-1.9,1.3c-2.6,1.4-2,2,1.1,1.2c2-0.5,2.5-0.5,4.1,0c1.4,0.4,2.2,0.5,3.1,0.2
		c0.9-0.3,1.9-0.2,3.5,0.2c1.7,0.4,2.6,0.5,3.6,0.2c2.4-0.7,5.4-0.5,7.2,0.5c0.9,0.5,2.5,1.3,3.5,1.9c1.9,1,2,1.1,3.3,0.5
		c1.1-0.5,1.7-0.5,3.4-0.2c1.6,0.3,2.2,0.3,3.1-0.2c0.9-0.5,1-0.7,0.7-1.1c-0.7-0.8,1.7-1.1,4.6-0.6c1.3,0.2,3,0.5,3.7,0.5
		c0.7,0.1,2.1,0.5,3.2,0.9c1.5,0.7,2.7,0.8,7.2,1c4.3,0.1,5.6,0.3,6.7,0.8c1,0.6,2.2,0.7,6.2,0.7c3.7,0,5.3,0.2,6.4,0.7
		c1.7,0.8,2.4,0.5,1.5-0.6c-0.7-0.8-0.7-0.8,2-0.5c4.4,0.4,9.7,1.4,11.5,2.1c0.9,0.4,2.7,0.8,4,0.9c1.2,0.2,3.1,0.7,4,1.2
		c1.5,0.7,2,0.8,2.9,0.5c1.3-0.5,2.1-0.1,4.1,1.6l1.2,1.1l-0.9,0.2c-0.9,0.2-3.4-0.4-4.3-1.1c-0.3-0.2-0.6-0.3-0.8-0.2
		c-0.2,0.1-1.1-0.1-2-0.4c-2.1-0.7-3-0.5-2.1,0.6c0.7,0.7,0.6,0.7-0.6,0.7c-2.3-0.2-1.7,0.5,1.7,1.9c1.9,0.7,3.5,1.4,3.6,1.5
		c0.4,0.3-0.8,0.8-1.7,0.6c-0.9-0.2-3.2,0.8-3.2,1.4c0,0.2-0.4,0.7-0.8,1.1c-0.7,0.7-0.9,0.7-1.9,0.2c-0.9-0.5-1.2-0.5-2.1,0
		c-0.6,0.3-1.5,0.6-2.2,0.8c-0.6,0.2-1.3,0.4-1.6,0.7c-0.8,0.6,0.6,2.5,2.5,3.4c1,0.5,1.8,1.2,2,1.8c0.2,0.5,0.6,1.4,0.9,2
		c0.5,0.9,0.5,1,0,1.2c-0.4,0.2-0.5,0.5-0.3,0.9c0.1,0.4,0.3,1.1,0.4,1.6c0.1,0.5,0.2,1.2,0.4,1.6c0.2,0.4,0,0.7-0.6,0.9
		c-0.7,0.2-1.1,0-2.2-1.2c-0.8-0.8-2-2-2.8-2.5c-0.8-0.6-2.2-2-3.1-3.3c-1.6-2.2-1.7-2.3-1.1-3.3c0.3-0.6,0.6-1.5,0.6-2
		c0-0.5,0.2-1.3,0.5-1.8c0.5-1,0.3-1.8-0.8-3.1c-0.8-0.9-2.1-0.2-1.8,0.9c0.3,1-0.7,1.3-1.8,0.6c-0.5-0.3-1.6-0.7-2.5-0.8
		c-1.5-0.2-1.6-0.2-2,0.8c-0.2,0.6-0.3,1.5-0.2,2.1c0.2,0.9,0.1,1-0.8,1.2c-0.6,0.1-1.6,0-2.5-0.4c-0.9-0.4-1.8-0.5-2.4-0.3
		c-0.5,0.2-2.4,0.3-4.1,0.3c-2.7,0-3.2,0.1-4,0.9c-0.5,0.5-1.1,1.7-1.4,2.6c-0.2,1-0.7,2.1-1,2.6c-0.5,0.8-0.5,0.9,1,1.6
		c1.6,0.8,3.4,1,4.7,0.6c1-0.4,4.2,2.1,5.1,4c0.4,0.8,1.1,1.6,1.5,1.8c1.5,0.8,1.9,6.2,0.6,9.8c-0.9,2.5-1.9,3.3-3.4,2.7
		c-0.6-0.2-1.1-0.4-1.1-0.4c-0.1,0-0.5,0.7-0.9,1.5c-0.6,1.1-0.7,1.7-0.4,2c0.6,0.7,0.1,1.5-1,2c-0.5,0.2-0.9,0.6-0.9,0.8
		s1.2,1.2,2.6,2.2c1.8,1.3,2.8,2.2,3.3,3.2c0.4,0.8,0.6,1.5,0.5,1.6c-0.1,0.1-0.9,0.5-1.7,0.9l-1.6,0.8l-0.9-2.2
		c-1.1-2.4-2-3.4-3.5-3.8c-0.8-0.2-1.1-0.5-1.1-1.2c0-0.6-0.4-1.1-1.2-1.6c-1.2-0.7-1.2-0.7-2.5,0.1c-1.3,0.8-1.3,0.8-1.7,0.1
		c-0.2-0.4-0.4-1-0.4-1.3c0-0.3-0.3-0.7-0.7-1c-0.6-0.3-0.9-0.1-2,1c-0.7,0.8-1.6,1.6-2,1.8c-0.6,0.4-0.7,0.5-0.2,1
		c0.3,0.3,1.2,1,2.1,1.5c1.4,0.8,1.7,0.8,2.2,0.4c0.5-0.5,0.8-0.5,2.2-0.1l1.7,0.4l-0.9,0.6c-1.7,1.1-2.3,1.7-2.5,2.8
		c-0.2,0.8-0.1,1.1,0.7,1.5c0.5,0.2,1.3,1.2,1.7,2.1c0.4,0.9,1.3,1.9,1.9,2.3c1.4,0.8,1.8,1.7,1,2.1c-0.7,0.4-0.4,1,0.6,1
		c1.2,0,1.2,0.7,0,4.8c-1.4,4.9-2.6,6.5-5.9,7.7c-1.3,0.5-2.8,0.9-3.5,0.9c-1.4,0.1-2.6,0.7-3.6,1.9l-0.8,1l-0.4-1
		c-0.5-1.2-1.6-1.6-3.1-0.9c-1.4,0.6-2.4,1.6-2.7,2.8c-0.3,1.1,0.9,3.1,2.9,4.7c1.6,1.3,3.5,4.5,3.9,6.9c0.4,2.1-0.3,3.4-2.1,4.2
		c-0.8,0.4-1.6,1-1.7,1.3c-0.3,0.9-2,2-2.3,1.5c-0.1-0.2-0.1-0.7,0-1.1c0.1-0.4,0.1-1,0-1.3c-0.2-0.5-0.4-0.5-1-0.2
		c-0.6,0.3-0.9,0.2-1.4-0.5c-1.2-1.8-4.8-4.7-5.8-4.7c-0.3,0-0.5,0.4-0.4,1.3c0,0.7-0.1,2.1-0.3,3.2c-0.4,1.6-0.3,1.9,0.4,2.9
		c0.4,0.6,0.9,1.5,1,2c0.1,0.5,1.2,1.7,2.5,2.7c2.1,1.7,2.3,2,3.2,4.8c0.5,1.6,0.9,3.1,0.9,3.3c0,0.6-0.8,0.4-2.4-0.8
		c-1.7-1.2-2.8-3.2-3.7-6.6c-0.4-1.5-0.8-2.1-2.1-3c-1.5-1.1-1.5-1.2-1.4-3c0.1-1,0.2-2.5,0.4-3.3c0.2-1.1,0-1.8-0.7-3.4
		c-0.5-1.1-1.2-2.8-1.4-3.8c-0.5-2.2-1.3-2.5-2.6-1.3c-0.5,0.5-1.1,1-1.2,1c-0.6,0-1.4-1.3-1.2-1.9c0.4-1.1-1.9-5.1-3.1-5.6
		c-0.7-0.3-1.4-1-1.8-2c-0.8-1.7-1.6-2.3-2.4-1.8c-0.3,0.2-1.5,0.5-2.7,0.7c-2.2,0.4-3,1.1-2.7,2.3c0.1,0.4-0.3,0.8-1.2,1.3
		c-0.7,0.4-1.5,1.1-1.8,1.6c-0.2,0.5-0.8,1-1.2,1.2c-0.4,0.1-1,0.7-1.4,1.3c-0.4,0.6-1.4,1.6-2.3,2.4c-1.3,1-1.7,1.5-1.6,2.2
		c0.4,4-0.2,7.4-1.6,9.4c-1.4,2-1.4,2-2.6,1.5c-0.6-0.3-1-0.8-1.2-1.7c-0.1-0.7-0.9-2.7-1.7-4.4c-4.8-10.4-5.5-12.4-5.1-14.2
		c0.3-1.3-0.4-3.2-1-3c-0.3,0.1-0.5,0.4-0.5,0.7c0,1.7-2,2-3.5,0.5l-1-1l0.9-0.3c1-0.4,0.9-1.3-0.1-1.1c-0.4,0.1-1.2-0.3-1.8-0.8
		c-0.6-0.5-1.3-1-1.5-1c-0.2,0-0.4-0.3-0.6-0.8c-0.3-1.1-2.4-2.1-3.4-1.6c-0.9,0.4-9.1,0.3-10.5-0.1c-0.5-0.2-1.4-0.9-2-1.6
		c-1.1-1.3-1.1-1.3-2.8-0.8c-1.6,0.4-1.8,0.4-4-0.7c-1.9-0.9-2.4-1.4-3-2.7c-0.7-1.6-2.4-2.8-3.4-2.4c-0.3,0.1-0.7,0.7-0.8,1.3
		c-0.2,0.9,0,1.4,0.9,2.7c0.6,0.9,1.3,2.2,1.6,3c0.5,1.7,1.4,2.2,2.1,1.2c0.5-0.6,0.6-0.6,0.9-0.2c0.2,0.3,0.3,0.7,0.2,0.9
		c-0.2,0.7,2,1.7,3,1.5c0.5-0.1,1.6-1,2.4-1.9c1.3-1.5,1.8-1.6,1.5-0.3c-0.2,0.8,0.5,1.8,1.6,2.4c1.7,0.9,4,2.8,4,3.3
		c0,0.2-0.4,0.8-1,1.4c-0.5,0.5-1.3,1.6-1.7,2.4c-1,1.9-3.9,4.8-4.9,4.8c-1.1,0-2.8,1-3.5,2c-0.3,0.5-1.1,1.2-1.9,1.5
		c-3.6,1.8-7.9,3.6-9.1,3.8c-1.3,0.2-1.4,0.2-2.1-1.2c-0.4-0.8-0.9-2.4-1-3.5c-0.2-1.5-0.6-2.4-1.4-3.3c-0.6-0.7-1.1-1.4-1.1-1.6
		s-0.7-1.1-1.5-1.9c-1-1.1-1.7-2.2-2.1-3.7c-0.3-1.2-1-2.6-1.5-3.3c-3.5-4.3-4.5-5.8-5-7.4c-0.7-2.1-1.3-2.4-1.5-0.9l-0.2,1.1
		l-1.3-1.6c-2-2.5-2.2-1.4-0.4,1.7c0.9,1.4,2.3,4,3.1,5.6c0.8,1.7,1.9,3.5,2.4,4.2c0.5,0.7,0.9,1.7,0.9,2.4c0,1.4,0.4,2.3,2.1,4.4
		c0.7,0.8,1.3,2,1.5,2.7c0.2,0.8,0.9,1.7,2.5,3c2.4,1.9,3.9,3.9,4.3,5.6c0.1,0.6,0.7,1.3,1.4,1.6c1.1,0.5,1.4,0.5,4.8-0.2
		c2-0.4,4.1-1,4.7-1.3l1.1-0.6l0.3,1.5c0.2,1.4,0,2-2.7,7.2c-2.9,5.5-3,5.7-5.9,8c-1.6,1.3-3.3,2.8-3.8,3.5
		c-0.5,0.6-1.9,2.3-3.2,3.8c-3.8,4.3-4.4,8-1.8,13c0.6,1.3,0.9,2.2,0.7,2.9c-0.1,0.5,0,1.8,0.2,2.8c0.4,1.7,0.3,2.1-0.3,3.3
		c-0.9,1.8-1.6,2.4-4.1,3.6c-1.1,0.5-2,1.2-2,1.4c0,0.2-0.8,1.2-1.7,2.3c-0.9,1.1-1.7,2.1-1.7,2.3s0.4,1.1,0.8,1.9
		c1.3,2.5,0.4,4.3-2.7,5.6c-1.3,0.5-1.7,1.6-1.4,3.6c0.2,1,0.1,1.4-0.5,1.7c-0.4,0.2-1.1,1-1.6,1.8c-1.5,2.4-6,6.7-8,7.8
		c-1.7,0.9-2.1,0.9-3.4,0.6c-1.1-0.3-2-0.3-3.8,0.2C241.6,254.7,241.9,254.8,240.8,253.6L240.8,253.6z M425,261.6
		c-0.8-0.8-0.9-0.9-1.7-0.4c-1,0.6-2.8,0.3-4.3-0.9c-0.8-0.6-0.8-0.8-0.4-1.6c0.3-0.6,0.4-1.1,0-1.8c-0.2-0.5-0.4-1.2-0.4-1.7
		c0-0.9-0.6-1-1.1-0.1c-0.2,0.4-0.5,0.5-0.6,0.4c-0.1-0.1,0.3-0.9,1-1.6c1.6-1.9,1-2.4-1.2-0.9c-0.9,0.6-1.8,1.3-1.8,1.5
		c-0.1,0.2-0.5-0.4-1-1.4c-0.5-1.1-1.4-2.2-2.2-2.7c-1.2-0.8-1.6-0.9-3.9-0.6c-3.4,0.3-6.6,1.2-8.8,2.2c-1,0.5-2.9,1-4.3,1.1
		c-1.4,0.2-3.7,0.7-5.1,1.2c-2.1,0.8-2.7,0.9-3.7,0.5c-1.4-0.5-2-1.4-1.1-1.8c0.3-0.1,0.9-1,1.3-1.9c0.6-1.5,0.7-2,0.3-3.9
		c-0.3-1.6-0.3-3.1,0-5.6c0.2-1.9,0.3-3.7,0.2-4.2c-0.1-0.4,0.1-1.5,0.4-2.4c0.6-1.6,0.7-1.7,4.8-3.4c2.3-1,4.7-1.8,5.2-1.8
		c1.6,0,3.5-1.5,4.6-3.5c0.7-1.2,1.1-1.7,1.5-1.6c1.1,0.4,1.3,0.3,1.2-0.5c-0.1-0.5,0.2-0.9,0.6-1.1c0.4-0.1,1.1-0.8,1.6-1.5
		c0.5-0.7,1.5-1.6,2.4-1.9c1.4-0.6,1.5-0.5,2.3,0.1c1.4,1.3,2.4,1.6,2.8,1.1c0.2-0.3,0.3-0.6,0.2-0.7c-0.4-0.4,1.5-2.9,2.5-3.2
		c0.5-0.1,1.6-0.6,2.4-0.9c1.2-0.6,1.7-0.7,3-0.3c3,0.8,3.1,0.9,2,2.6c-1.4,2.1-1,3,2.4,5.4c1.6,1.1,3.1,2,3.4,1.9
		c0.2-0.1,1-0.9,1.7-1.9c1-1.3,1.3-2.3,1.5-3.8c0.2-2.2,1.3-5.3,1.8-5.3c0.2,0,0.6,0.9,0.9,2c0.3,1.1,1,2.4,1.5,2.9
		c1.2,1.1,1.9,4.2,1.3,6c-0.4,1.2-0.3,1.4,0.9,2.6c0.7,0.7,1.8,2.5,2.5,4c0.7,1.5,1.9,3.5,2.7,4.6l1.5,1.9l-0.4,3
		c-0.3,2.2-0.8,3.6-1.7,5.2c-1.4,2.5-3.6,4.9-4.7,5.3c-0.4,0.1-1.3,1.1-2.1,2.1c-0.7,1-1.5,1.9-1.7,1.9c-0.2,0-1.1,0.9-1.9,2
		c-1.4,1.8-1.7,2-3.2,2c-1.1,0-2,0.3-2.9,1l-1.3,1L425,261.6L425,261.6z M464.9,266.4c-0.1-0.1,0.2-0.6,0.7-1
		c0.8-0.6,0.9-0.9,0.5-1.5c-0.5-0.9,0.2-1.9,1.9-2.6c1.3-0.5,1.6-1.6,1.3-4.3c-0.2-1.8-0.2-1.9,0.4-1.4c0.5,0.4,0.6,0.9,0.4,1.7
		c-0.2,1,0,1.5,0.8,2.4c0.9,1,1.1,1.1,1.8,0.8c0.7-0.4,0.7-0.3,0.5,0.2c-0.1,0.4-0.2,0.7-0.2,0.8c0,0.1-0.6,0.4-1.2,0.8
		c-0.7,0.3-2,1.3-2.9,2c-1.5,1.3-3.1,2.3-3.5,2.3C465.2,266.7,465.1,266.6,464.9,266.4z M421.3,269.7c-0.4-0.2-0.4-0.5-0.1-1.1
		c0.2-0.4,0.4-1.3,0.4-2c0-1.1,0.1-1.2,0.9-0.9c0.5,0.2,1.4,0.3,2.2,0.3c0.7,0,1.5,0.1,1.6,0.1c0.6,0.1-1,2-2.6,2.9
		C421.9,270.2,422,270.2,421.3,269.7z M447.7,274.7c-1.1-0.7,1.2-2.2,6.8-4.5c1.6-0.7,3.9-2,5.3-3c2.3-1.7,2.5-1.8,2.9-1.2
		c0.7,1,0.3,1.7-1.4,2.4c-0.8,0.4-1.8,1.1-2.2,1.6c-0.4,0.5-1.1,0.9-1.5,0.9c-0.4,0-1.4,0.6-2.2,1.3
		C452.6,274.5,449.3,275.6,447.7,274.7z M132.2,284.1c0-0.2,0.2-0.5,0.5-0.8c0.2-0.2,0.3-0.5,0.1-0.5c-0.2,0-0.5,0.3-0.8,0.6
		c-0.4,0.5-0.6,0.5-1.2,0.2c-0.4-0.2-0.5-0.4-0.2-0.4c0.3,0,0.4-0.2,0.3-0.4c-0.2-0.4,0.4-0.5,2.3-0.4c1.7,0.1,1.8,0.4,0.8,1.2
		C133,284.5,132.2,284.7,132.2,284.1 M103.8,121c0.8-0.6,0.8-0.7,0.3-1c-0.8-0.5-3.2,0.3-3.2,1.1C100.8,121.8,102.7,121.8,103.8,121
		 M97.1,123.8c1.3-0.7,1.5-0.9,1-1.3c-0.5-0.5-0.8-0.4-2.3,0.2c-1.8,0.8-2.4,1.9-1,1.9C95.2,124.6,96.3,124.3,97.1,123.8
		 M90.3,121.5c1-2.1,2.9-3.7,4.4-3.7c1.1,0,1.1,0.2,0.1,1.4l-0.8,1l0.8,0.7c0.6,0.5,1,0.6,1.7,0.2c0.5-0.2,1-0.7,1.1-1.1
		c0.2-0.5,0.5-0.7,1.1-0.5c0.6,0.2,1,0,1.3-0.4c0.8-1.4-1.2-3.1-2.6-2.4c-1,0.6-2.4-0.5-2.1-1.7c0.1-0.4-0.1-1.2-0.5-1.7
		c-0.8-1-2-1.1-4.6-0.4c-0.9,0.3-2,0.5-2.4,0.4c-0.4,0-0.6,0.1-0.4,0.3c0.1,0.2,0.1,0.4-0.1,0.4c-0.2,0-0.7,0.3-1.2,0.7l-0.9,0.7
		l1.1,0.4c0.8,0.3,1.3,0.3,2.2-0.2c1.1-0.6,1.3-0.6,2.5,0c0.7,0.3,1.7,0.5,2.2,0.4c0.5-0.1,1-0.1,1.1,0.2c0.1,0.2-0.4,0.5-1.2,0.6
		c-2.2,0.4-3.4,1.3-5,4c-1.3,2.2-1.4,2.5-0.9,3.1c0.5,0.6,0.7,0.6,1.4,0.1C89,123.7,89.7,122.6,90.3,121.5z M118.1,285.1
		c-0.4-0.2-1-0.3-1.3-0.2c-0.5,0.2-0.8-0.1-1.2-0.7c-0.3-0.5-0.8-1-1.1-1.1c-0.8-0.3-2.3-2.8-3.2-5.2c-0.4-1.2-1-2.1-1.8-2.5
		c-1.3-0.7-1.4-1-0.4-1.4c1.1-0.4,1.3-2.3,0.4-3.7c-0.5-0.6-0.7-1.4-0.6-1.7c0.2-0.4-0.3-1.1-1.4-2.2c-1.4-1.4-1.6-1.9-1.7-3.3
		c0-0.9-0.3-1.9-0.5-2.2c-0.3-0.4-0.4-1.7-0.2-4.3c0.2-2.8,0.1-4.5-0.4-6.9c-0.7-3.6-1.1-10.3-0.9-16.3c0-1.3-0.1-3.1-0.4-4
		c-0.6-2.1-3.4-4.9-6.8-6.6c-2.4-1.3-2.8-1.6-3.7-3.6c-0.6-1.2-1.7-3-2.4-4c-0.8-1-1.6-2.4-1.9-3.2c-0.8-2.5-2.2-5-3.2-5.6
		c-0.5-0.3-1.1-1.2-1.3-1.9c-0.3-1.2-0.2-1.5,0.8-3c1.1-1.6,1.1-1.7,0.4-1.9c-1.8-0.5-1.1-3,2.2-7.1c2.2-2.8,2.8-4.9,2.2-7.3
		c-0.2-0.9-0.4-1.9-0.5-2.2c0-0.3-0.2-0.5-0.4-0.5c-0.2,0-0.1-0.3,0.1-0.8c0.3-0.6,0.3-0.8-0.6-1.2c-1.2-0.5-3,0-3,0.9
		c0,1.1-0.5,1.2-2.1,0.3c-0.8-0.4-1.7-0.8-2-0.8c-0.2,0-1.1-0.6-2-1.3c-0.9-0.7-1.8-1.5-2-1.7c-0.3-0.2-0.5-0.8-0.5-1.2
		s-0.3-1.2-0.7-1.5c-0.4-0.4-0.9-1.3-1.2-2c-0.3-0.9-0.5-1.2-0.8-0.9c-0.6,0.6-1.5,0.5-3.8-0.5c-1.2-0.5-2.4-1.4-2.9-2.1
		c-0.5-0.7-1.4-1.4-2-1.8c-1-0.5-1.3-0.5-2.8,0l-1.6,0.6l-5-2.4c-3.1-1.5-5.5-2.9-6.3-3.7c-1.2-1.2-1.2-1.4-0.8-2.9
		c0.4-1.4,0.3-1.8-0.5-3.4c-0.5-1-1.5-2.5-2.3-3.4c-0.8-0.9-1.4-1.7-1.3-1.9c0.1-0.2-0.5-1.4-1.3-2.7c-0.9-1.5-1.6-3.1-1.7-4.2
		c-0.2-1.5-0.4-2-1.2-2.3c-0.8-0.4-1-0.3-1.5,0.3c-0.6,0.9-0.5,1.8,1,4.9c0.6,1.3,1.2,3.1,1.3,4.1c0.2,1,0.6,2.5,1,3.3
		c0.9,1.9,0.3,1.8-1.2-0.1c-0.9-1.1-1.1-1.7-0.9-2.4c0.2-0.7,0-1.1-0.9-1.8c-1.4-1-1.7-1.7-1.2-2.6c0.3-0.6,0.2-1.2-0.6-2.7
		c-0.8-1.5-0.9-2.2-0.7-3.4c0.3-1.8-0.5-3.5-2.1-4.1c-0.9-0.4-1.2-0.8-1.4-1.8c-0.1-0.8-0.4-1.9-0.5-2.6c-0.2-0.7-0.2-1.3,0-1.4
		c0.2-0.1,0.1-0.6-0.3-1.2c-0.5-0.8-0.5-1.1-0.2-1.9c0.2-0.5,0.3-1.1,0.2-1.3c-0.1-0.2,0.2-0.8,0.7-1.4c0.5-0.6,1.2-1.7,1.5-2.5
		c0.3-0.8,1.3-2.3,2.2-3.3c0.9-1,2.1-2.8,2.6-3.9c0.7-1.6,1.1-2.1,1.7-2.1c0.4,0,0.8,0.2,0.8,0.5c-0.1,1.1,0.7,0.7,1.7-0.7
		c0.6-0.8,0.9-1.6,0.7-1.6c-0.2-0.1-0.4-0.4-0.4-0.7c0-0.3-0.8-1.3-1.7-2.3c-1.6-1.5-1.7-1.7-1.2-2.3c0.4-0.5,0.5-0.8,0.2-1.3
		c-0.5-0.9,0.3-2.9,1.1-2.9c0.4,0,0.5-0.1,0.2-0.3c-0.5-0.4-0.7-1.2-0.6-2.4c0.1-1.9-0.3-2.7-1.7-3.3c-0.8-0.3-1.9-1-2.6-1.5
		c-0.7-0.5-1.5-0.9-1.9-0.9s-2-0.3-3.7-0.8c-2.6-0.7-3.1-0.7-4-0.2c-1.9,1-3.9,1.4-4.7,0.9c-0.6-0.3-1.3-0.1-3.6,1.1
		c-1.6,0.8-3.5,1.6-4.2,1.8c-0.7,0.2-2.1,0.7-3.1,1.2c-2.8,1.4-6.7,2.8-7.8,2.8c-0.7,0-0.2-0.3,1.7-1.1c3.2-1.3,6.5-2.9,6.8-3.4
		c0.4-0.6-0.4-0.8-1.4-0.4c-0.7,0.3-1.2,0.3-2-0.1l-1.1-0.6l1.2-0.6c1.3-0.7,1.7-1.4,1.4-2.6c-0.3-1.2,1.3-2,4.8-2.5
		c1.9-0.3,3.3-0.7,4.2-1.4c1.7-1.1,1.4-2-0.4-1.3c-0.9,0.4-1.5,0.4-2.8,0c-1.5-0.4-1.6-0.5-0.9-1c1.2-0.8,3.5-1.4,5.1-1.1
		c1,0.2,1.8,0.1,2.6-0.4l1.2-0.6l-0.8-0.8c-0.4-0.5-0.8-0.9-0.8-1.1c0-0.4,2.3-1.1,3.4-1.1c0.6,0,2.1-0.4,3.5-0.9
		c1.3-0.5,4.4-1.2,6.8-1.5c3.9-0.5,4.8-0.6,7.7-0.1c1.8,0.3,4.3,0.7,5.6,0.8c1.2,0.1,3.5,0.6,4.9,1c3.4,0.9,5.6,0.9,9.3,0
		c1.7-0.4,3.3-0.7,3.7-0.5c0.4,0.1,1.1,0,1.5-0.2c0.6-0.3,1-0.3,1.9,0.2c0.7,0.4,1.7,0.5,2.9,0.4c1.3-0.2,2.5,0,4.2,0.6
		c1.3,0.4,2.7,0.8,3.2,0.8c0.8,0,0.8,0,0.1,0.5c-0.7,0.5-0.7,0.6,0,0.8c0.4,0.1,1.7,0.2,2.9,0c2.2-0.2,2.2-0.2,2.9,1l0.6,1.2l0.8-1
		c0.5-0.6,1.6-1.2,2.6-1.6c1.6-0.5,2-0.5,3.6,0c1.1,0.3,2.4,0.5,3.4,0.3c1.3-0.2,1.8-0.1,2.7,0.5c1,0.7,1.1,0.7,2,0
		c0.5-0.4,1.6-0.9,2.3-1.1c1.9-0.5,2.5-1.6,1.4-2.4c-0.8-0.6-0.8-0.6,1.3-1.6c1.5-0.8,2.2-0.9,2.5-0.6c0.3,0.3,0.3,0.6,0,1.2
		c-0.5,1,0.1,2.5,1,2.2c0.3-0.1,0.8-0.1,1.1,0c0.5,0.2,0.5,0.3-0.1,1.1c-1.5,2.2,1.8,1.6,4-0.8c0.9-1,2.3-1.3,3.6-0.8
		c0.8,0.3,0.8,0.6-0.6,2.1c-1.7,1.8-2.5,2.2-5,2.2c-1.2,0-2.6,0.3-3.3,0.6c-0.9,0.5-1.4,0.5-2.1,0.2c-1.3-0.6-1.8-0.1-0.9,0.9
		l0.8,0.9l-1.6,0.5c-0.9,0.3-2.4,0.5-3.3,0.5c-1.4,0-1.7,0.2-1.7,0.7c0,0.5-0.7,0.9-2.1,1.5c-4.6,1.9-8.5,5.3-7.1,6.1
		c0.3,0.2,0.7,0.8,0.9,1.3c0.3,0.7,0.8,1.1,1.5,1.2c0.6,0.1,2.1,0.7,3.3,1.3c1.2,0.6,2.8,1.2,3.4,1.4c1.7,0.4,1.7,0.4,0.9,2.4
		c-0.7,1.7-0.7,2-0.2,3c0.3,0.6,0.8,1.1,1,1.1c1.2,0,2.4-1.2,3.1-3.1c0.7-1.8,1-2.1,3-3.2c2.9-1.6,4.1-3.1,3.8-4.8
		c-0.2-1.1-0.1-1.4,0.9-2.1c0.6-0.4,1.4-1.5,1.8-2.3c0.8-1.9,2.2-2.5,4.4-2.1c2,0.3,4.4,1.6,4.7,2.5c0.1,0.4,0,1-0.2,1.5
		c-0.4,0.7-0.3,1,0.4,1.7l0.8,0.9l1.4-0.7c0.8-0.4,2-1.2,2.7-1.7l1.3-1l0.3,0.8c0.2,0.5,0.2,1.1,0.1,1.4c-0.1,0.3,0,0.9,0.2,1.3
		c0.2,0.5,0.3,1,0,1.3c-0.2,0.4-0.1,1.1,0.5,2.1c0.9,1.5,0.9,1.5,0.1,2.1c-1,0.7-0.4,1.5,0.7,0.9c1.1-0.6,2.4-0.5,3.1,0.2
		c1.1,1,0.2,2.3-2.8,3.7c-3.3,1.6-4.8,1.9-9.1,1.9c-3.2,0-3.6,0.1-6.7,1.6c-1.8,0.9-3.3,1.7-3.3,1.9c0,0.8,0.6,0.7,2.8-0.3
		c1.3-0.6,3-1.1,3.8-1.1c1.4,0,1.4,0,1,0.8c-0.2,0.5-0.8,1.1-1.2,1.4c-0.6,0.5-0.7,0.7-0.3,1.6c0.6,1.3,2.1,1.9,4,1.6l1.5-0.2
		l-1.1,0.8c-0.6,0.4-1.6,0.9-2.3,1c-0.6,0.1-1.9,0.6-2.9,1.1c-1,0.5-1.9,0.7-2.2,0.6c-0.6-0.4,0-0.9,2-1.7c1.7-0.7,1.5-1.5-0.4-1.1
		c-0.7,0.1-3.1,1-5.2,2c-3.4,1.5-3.9,1.9-4.1,2.8c-0.2,1.1-1.1,1.6-3.9,2.5c-0.9,0.3-2.1,1-2.6,1.5c-0.5,0.5-1.6,1.4-2.3,1.8
		c-0.7,0.5-1.4,1.2-1.5,1.8c-0.2,0.9-0.2,0.9-0.5,0.2c-0.5-1.2-1.2,0-1.2,2.1c0,2.1-1.1,3.6-3.5,4.7c-2.4,1.2-5.9,3.9-6.6,5.2
		c-0.6,1.2-0.6,1.6-0.3,4.6c0.4,2.8,0.3,3.5-0.1,4.4c-0.4,0.7-0.8,1-1.1,0.9c-0.8-0.3-1.8-3.6-1.5-5.1c0.2-1,0.1-1.4-0.7-2.1
		c-0.6-0.6-1.2-0.8-1.7-0.6c-0.4,0.1-1.5-0.1-2.5-0.5c-1.5-0.7-2-0.7-3.1-0.3c-0.7,0.2-1.5,0.8-1.7,1.3c-0.4,0.8-0.6,0.9-1.6,0.7
		c-0.6-0.1-1.6-0.5-2.2-0.8c-1.4-0.7-2.2-0.7-3.7,0.2c-0.7,0.4-2.2,1.2-3.3,1.8c-1.2,0.6-2.1,1.4-2.3,2c-0.2,0.5-0.9,2.6-1.5,4.6
		l-1.2,3.6l0.6,2.4c1.1,4.3,2.7,5.6,5.9,4.9c2.4-0.5,3.9-1.6,4.5-3.2c0.3-1,0.7-1.4,1.8-1.7c1.7-0.5,2.4-0.5,3-0.1
		c0.5,0.3,0.3,0.9-2,6c-1.6,3.5-1.5,3.8,1.3,3.4c2.5-0.4,4.9-0.1,5.1,0.6c0.1,0.3-0.1,2.1-0.4,4.1c-0.6,3.6-0.6,3.6,0.3,5
		c0.5,0.7,1.3,1.6,1.9,1.9c0.9,0.5,1.2,0.5,2.4,0c1.9-0.8,2.9-0.7,4.2,0.3c1,0.8,1.2,0.9,2,0.3c0.5-0.3,1.1-1.1,1.5-1.7
		c0.7-1.5,2-2.5,3-2.5c0.4,0,1.2-0.4,1.7-1c1-1.1,2.7-1.4,1.9-0.4c-0.7,0.9-1.1,3.6-0.7,4.5c0.4,0.7,0.4,0.7,1.1-0.1
		c0.5-0.6,0.6-1,0.3-1.3c-0.6-0.6-0.5-1.2,0.8-2.1c1.3-0.9,2.2-0.8,3.3,0.3c0.8,0.8,5,2,6.2,1.7c1.8-0.5,6.8,2.6,8.7,5.3
		c0.9,1.3,3.7,2.6,5,2.3c2.6-0.6,6.1,1.9,6.9,5.1c0.2,0.9,0.6,1.8,0.8,1.9c0.6,0.3-0.3,1.7-2.1,3.4c-1.2,1.1-1.4,1.6-1.1,1.9
		c0.3,0.3,0.9,0,2.1-1.1c1.9-1.7,2.5-1.9,3.4-1c0.6,0.6,0.6,0.7-0.2,1.5c-0.5,0.5-1.1,0.9-1.4,0.9c-0.3,0-0.2,0.2,0.3,0.4
		c0.7,0.3,1.1,0.2,1.9-0.4c2-1.6,2.5-1.7,4.2-0.7c1.2,0.6,1.6,1.1,1.6,1.7c-0.2,1.4,0.2,1.8,1.2,1.1c0.8-0.5,1.3-0.5,4-0.2
		c2.8,0.4,3.2,0.5,4.6,1.9c1,1,2.1,1.7,3.6,2.1c1.9,0.6,2.1,0.7,2.5,2c0.5,1.9-0.1,3.9-1.7,5.9c-0.7,0.8-1.5,2.1-1.9,2.7
		c-0.3,0.7-1.1,1.7-1.6,2.2c-0.9,0.9-1,1.1-0.7,3.3c0.4,4.3-1.6,12.2-3.6,13.9c-0.7,0.6-1.2,0.7-2.2,0.5c-0.9-0.1-1.5,0-1.6,0.2
		c-0.1,0.2-1,0.7-1.8,1.1c-0.9,0.4-2.1,1.2-2.8,1.8c-1.2,1-1.3,1.2-0.9,2.4c0.5,1.4,0.2,3.1-0.9,4.6c-0.3,0.5-0.6,1.3-0.6,1.8
		c0,0.5-0.4,1.4-0.9,2.1c-0.5,0.6-1.4,2.1-2.1,3.3c-1.6,2.8-2.6,3.3-4.9,2.5c-2-0.7-3.1-0.8-3.1-0.2c0,0.2,0.4,0.6,0.9,0.8
		c0.5,0.2,1.3,1.1,1.7,2c0.7,1.3,0.7,1.8,0.4,2.6c-0.5,1.2-2.6,2.2-4.5,2.2c-1.7,0-2.1,0.4-1.5,1.5c0.4,0.7,0.1,1.8-0.6,2.6
		c-0.1,0.1-0.6-0.2-1.3-0.5c-1.6-0.8-2.2-0.3-1.4,1.3c0.3,0.6,0.9,1.3,1.4,1.4c0.7,0.2,0.8,0.3,0.1,1c-0.4,0.4-0.5,1-0.4,1.3
		c0.1,0.4-0.2,1.1-0.8,1.9c-0.9,1.2-1,1.3-0.4,2.3c0.3,0.5,0.9,1.1,1.2,1.2c1.1,0.4,1.3,1.9,0.5,3.6c-0.9,1.7-1,3.4-0.3,4.2
		C121.1,284.2,119,285.7,118.1,285.1z M122.5,288.8c-1.9-0.7-2.5-1.4-2-2.6c0.2-0.6,0.6-1,0.9-1c0.3,0,1.5,0.7,2.8,1.5
		c1.2,0.8,2.8,1.6,3.4,1.9l1.1,0.4l-1.4,0c-0.8,0-1.9,0.1-2.5,0.2C124.2,289.2,123.1,289.1,122.5,288.8z"/>
	<path class="st1" d="M36.3,129.3c-0.9,0-1.6-0.7-1.6-1.6c0-0.9,0.7-1.6,1.6-1.6c0.9,0,1.6,0.7,1.6,1.6
		C37.9,128.6,37.2,129.3,36.3,129.3"/>
	<path class="st1" d="M36.3,133.2c-0.9,0-1.6-0.7-1.6-1.6s0.7-1.6,1.6-1.6c0.9,0,1.6,0.7,1.6,1.6S37.2,133.2,36.3,133.2"/>
	<path class="st1" d="M36.6,138.3c-0.9,0-1.6-0.7-1.6-1.6s0.7-1.6,1.6-1.6c0.9,0,1.6,0.7,1.6,1.6S37.5,138.3,36.6,138.3"/>
	<path class="st1" d="M39.8,140.8c-0.9,0-1.6-0.7-1.6-1.6c0-0.9,0.7-1.6,1.6-1.6c0.9,0,1.6,0.7,1.6,1.6
		C41.4,140.1,40.7,140.8,39.8,140.8"/>
	<path class="st1" d="M92.9,131.3c-0.9,0-1.6-0.7-1.6-1.6s0.7-1.6,1.6-1.6c0.9,0,1.6,0.7,1.6,1.6S93.8,131.3,92.9,131.3"/>
	<path class="st1" d="M96.5,129.7c-0.9,0-1.6-0.7-1.6-1.6c0-0.9,0.7-1.6,1.6-1.6c0.9,0,1.6,0.7,1.6,1.6
		C98.1,128.9,97.3,129.7,96.5,129.7"/>
	<path class="st1" d="M99.3,132.2c-0.9,0-1.6-0.7-1.6-1.6s0.7-1.6,1.6-1.6c0.9,0,1.6,0.7,1.6,1.6S100.2,132.2,99.3,132.2"/>
	<path class="st1" d="M92.9,135.4c-0.9,0-1.6-0.7-1.6-1.6s0.7-1.6,1.6-1.6c0.9,0,1.6,0.7,1.6,1.6S93.8,135.4,92.9,135.4"/>
	<path class="st1" d="M99.3,136c-0.9,0-1.6-0.7-1.6-1.6s0.7-1.6,1.6-1.6c0.9,0,1.6,0.7,1.6,1.6S100.2,136,99.3,136"/>
	<path class="st1" d="M95.8,133.2c-0.9,0-1.6-0.7-1.6-1.6s0.7-1.6,1.6-1.6c0.9,0,1.6,0.7,1.6,1.6S96.7,133.2,95.8,133.2"/>
	<path class="st1" d="M213.5,109.2c-0.9,0-1.6-0.7-1.6-1.6c0-0.9,0.7-1.6,1.6-1.6c0.9,0,1.6,0.7,1.6,1.6
		C215.1,108.5,214.4,109.2,213.5,109.2"/>
	<path class="st1" d="M236.9,97c-0.9,0-1.6-0.7-1.6-1.6c0-0.9,0.7-1.6,1.6-1.6s1.6,0.7,1.6,1.6C238.5,96.3,237.8,97,236.9,97"/>
	<path class="st1" d="M417.3,136.4c-0.9,0-1.6-0.7-1.6-1.6s0.7-1.6,1.6-1.6c0.9,0,1.6,0.7,1.6,1.6S418.2,136.4,417.3,136.4"/>
</g>
</svg>
