<?xml version="1.0" encoding="utf-8"?>
<!-- Generator: Adobe Illustrator 24.0.0, SVG Export Plug-In . SVG Version: 6.00 Build 0)  -->
<svg version="1.1" id="Layer_1" xmlns="http://www.w3.org/2000/svg" xmlns:xlink="http://www.w3.org/1999/xlink" x="0px" y="0px"
	 viewBox="0 0 960 600" style="enable-background:new 0 0 960 600;" xml:space="preserve">
<style type="text/css">
	.st0{fill:#09424C;}
	.st1{fill:#EEE8D5;}
	.st2{fill:#268BD2;}
</style>
<g>
	<rect class="st0" width="430" height="600"/>
</g>
<g>
	<rect x="480" class="st0" width="480" height="600"/>
</g>
<g>
	<path class="st1" d="M57.05,267.24L122.31,209l12.22,12.48l-50.7,44.98l50.7,44.46l-12.22,13.52L57.05,267.24z"/>
	<path class="st2" d="M165.99,206.14h21.84v13.26c6.5-7.8,18.2-16.38,35.88-16.38c30.68,0,50.96,23.92,50.96,65.26
		c0,39.52-23.14,66.04-55.64,66.04c-17.16,0-26.52-6.5-31.2-10.66v64.48h-21.84V206.14z M251.01,268.8c0-27.04-10.14-46.8-32.5-46.8
		c-16.38,0-27.3,12.22-30.68,16.64v66.3c5.46,4.94,14.04,10.92,28.34,10.92C239.05,315.86,251.01,296.36,251.01,268.8z"/>
	<path class="st1" d="M295.47,311.96l50.7-44.98l-50.7-44.46L307.69,209l65.26,57.2l-65.26,58.24L295.47,311.96z"/>
</g>
<g>
	<path class="st1" d="M508.62,267.24L573.88,209l12.22,12.48l-50.7,44.98l50.7,44.46l-12.22,13.52L508.62,267.24z"/>
	<path class="st2" d="M632.38,331.2h-21.06l62.66-173.16h21.32L632.38,331.2z"/>
	<path class="st2" d="M724.42,206.14h21.84v13.26c6.5-7.8,18.2-16.38,35.88-16.38c30.68,0,50.96,23.92,50.96,65.26
		c0,39.52-23.14,66.04-55.64,66.04c-17.16,0-26.52-6.5-31.2-10.66v64.48h-21.84V206.14z M809.44,268.8c0-27.04-10.14-46.8-32.5-46.8
		c-16.38,0-27.3,12.22-30.68,16.64v66.3c5.46,4.94,14.04,10.92,28.34,10.92C797.48,315.86,809.44,296.36,809.44,268.8z"/>
	<path class="st1" d="M853.9,311.96l50.7-44.98l-50.7-44.46L866.12,209l65.26,57.2l-65.26,58.24L853.9,311.96z"/>
</g>
<g>
	<path class="st2" d="M39.63,538.67c0-9.95,6.65-19.03,18.92-19.03s18.86,8.96,18.86,18.81c0,9.95-6.43,19.14-18.7,19.14
		C46.45,557.58,39.63,548.56,39.63,538.67z M69.22,538.67c0-6.82-3.19-12.76-10.5-12.76c-7.37,0-10.83,5.72-10.83,12.54
		c0,6.87,3.35,12.87,10.67,12.87C65.92,551.31,69.22,545.48,69.22,538.67z"/>
	<path class="st2" d="M84.23,520.3h12.04c7.97,0,14.02,3.68,14.02,11.55c0,7.97-5.77,12.04-14.9,12.04h-3.35v13.03h-7.81V520.3z
		 M95.51,538c4.89,0,6.98-1.98,6.98-6.05c0-3.68-2.03-5.72-6.82-5.72h-3.63V538H95.51z"/>
	<path class="st2" d="M116.85,520.3h21.12v6.38h-13.47v8.25h11.88v6.05h-11.88v9.57h13.86v6.38h-21.5V520.3z"/>
	<path class="st2" d="M145.94,520.3h7.81l13.2,18.97c2.2,3.13,3.52,5.55,3.85,6.16h0.11c-0.06-0.49-0.22-2.97-0.22-5.77V520.3h7.04
		v36.62h-7.09l-14.24-20.35c-1.98-2.75-3.08-4.78-3.52-5.5h-0.11c0.05,0.5,0.22,2.58,0.22,4.89v20.95h-7.04V520.3z"/>
	<path class="st2" d="M187.14,520.3h7.75v36.62h-7.75V520.3z"/>
	<path class="st2" d="M204.57,520.3h7.81l13.2,18.97c2.2,3.13,3.52,5.55,3.85,6.16h0.11c-0.06-0.49-0.22-2.97-0.22-5.77V520.3h7.04
		v36.62h-7.09l-14.24-20.35c-1.98-2.75-3.08-4.78-3.52-5.5h-0.11c0.05,0.5,0.22,2.58,0.22,4.89v20.95h-7.04V520.3z"/>
	<path class="st2" d="M243.24,538.55c0-9.95,7.26-18.92,19.96-18.92c5.5,0,9.18,1.21,12.04,3.3l-3.46,5.77
		c-2.25-1.65-4.95-2.64-8.74-2.64c-7.81,0-11.55,5.28-11.55,12.26c0,7.04,3.35,12.92,11.05,12.92c2.97,0,5.22-0.61,6.49-1.43v-7.26
		h-6.76v-5.99h14.19v17.49c-2.58,1.76-6.82,3.52-13.86,3.52C250,557.58,243.24,548.45,243.24,538.55z"/>
	<path class="st2" d="M301.48,526.68h-10.12v-6.38h27.99v6.38h-10.06v30.25h-7.81V526.68z"/>
	<path class="st2" d="M332.44,520.3h7.48l14.35,36.62h-8.47l-2.47-6.87H328.7l-2.42,6.87h-7.81L332.44,520.3z M341.13,543.83
		l-3.13-8.74c-1.15-3.13-1.65-5.5-1.98-6.32h-0.11c-0.27,0.88-0.88,3.35-1.92,6.32l-3.13,8.74H341.13z"/>
	<path class="st2" d="M355.93,538.55c0-9.95,7.26-18.92,19.96-18.92c5.5,0,9.18,1.21,12.04,3.3l-3.46,5.77
		c-2.25-1.65-4.95-2.64-8.74-2.64c-7.81,0-11.55,5.28-11.55,12.26c0,7.04,3.35,12.92,11.05,12.92c2.97,0,5.22-0.61,6.49-1.43v-7.26
		h-6.76v-5.99h14.19v17.49c-2.58,1.76-6.82,3.52-13.86,3.52C362.69,557.58,355.93,548.45,355.93,538.55z"/>
</g>
<g>
	<path class="st2" d="M551.64,538.55c0-9.95,6.54-18.92,18.92-18.92c4.78,0,8.14,1.04,11,2.91l-3.46,5.67
		c-2.04-1.32-4.29-2.15-7.64-2.15c-6.87,0-10.56,5.5-10.56,12.26c0,6.98,3.52,12.76,10.67,12.76c3.96,0,6.38-1.38,8.3-2.8l3.19,5.44
		c-1.87,1.7-6.27,3.85-11.6,3.85C557.97,557.58,551.64,548.51,551.64,538.55z"/>
	<path class="st2" d="M587.94,520.3h7.81v30.36h13.64v6.27h-21.45V520.3z"/>
	<path class="st2" d="M611.98,538.67c0-9.95,6.65-19.03,18.92-19.03c12.26,0,18.86,8.96,18.86,18.81c0,9.95-6.43,19.14-18.7,19.14
		S611.98,548.56,611.98,538.67z M641.56,538.67c0-6.82-3.19-12.76-10.5-12.76c-7.37,0-10.83,5.72-10.83,12.54
		c0,6.87,3.35,12.87,10.67,12.87C638.26,551.31,641.56,545.48,641.56,538.67z"/>
	<path class="st2" d="M653.56,553.95l3.3-5.39c0.82,0.61,3.63,2.75,7.86,2.75c3.68,0,5.83-1.87,5.83-4.23
		c0-3.25-3.91-4.18-8.19-6.32c-4.51-2.2-7.86-5-7.86-10.94c0-6.27,5.28-10.17,11.82-10.17c6,0,9.18,1.92,10.72,3.08l-3.13,5.44
		c-1.27-0.82-4.01-2.25-7.15-2.25c-2.97,0-4.89,1.32-4.89,3.79c0,2.86,2.92,3.79,6.76,5.55c4.84,2.2,9.4,4.67,9.4,11.44
		c0,6.65-5,10.89-13.14,10.89C658.95,557.58,655.15,555.27,653.56,553.95z"/>
	<path class="st2" d="M685.13,520.3h7.75v36.62h-7.75V520.3z"/>
	<path class="st2" d="M702.56,520.3h7.81l13.2,18.97c2.2,3.13,3.52,5.55,3.85,6.16h0.11c-0.05-0.49-0.22-2.97-0.22-5.77V520.3h7.04
		v36.62h-7.09l-14.24-20.35c-1.98-2.75-3.08-4.78-3.52-5.5h-0.11c0.05,0.5,0.22,2.58,0.22,4.89v20.95h-7.04V520.3z"/>
	<path class="st2" d="M741.22,538.55c0-9.95,7.26-18.92,19.96-18.92c5.5,0,9.18,1.21,12.04,3.3l-3.46,5.77
		c-2.25-1.65-4.95-2.64-8.74-2.64c-7.81,0-11.55,5.28-11.55,12.26c0,7.04,3.35,12.92,11.05,12.92c2.97,0,5.22-0.61,6.49-1.43v-7.26
		h-6.76v-5.99h14.19v17.49c-2.58,1.76-6.82,3.52-13.86,3.52C747.99,557.58,741.22,548.45,741.22,538.55z"/>
	<path class="st2" d="M799.47,526.68h-10.12v-6.38h27.99v6.38h-10.06v30.25h-7.81V526.68z"/>
	<path class="st2" d="M830.43,520.3h7.48l14.35,36.62h-8.47l-2.47-6.87h-14.63l-2.42,6.87h-7.81L830.43,520.3z M839.12,543.83
		l-3.13-8.74c-1.15-3.13-1.65-5.5-1.98-6.32h-0.11c-0.28,0.88-0.88,3.35-1.92,6.32l-3.13,8.74H839.12z"/>
	<path class="st2" d="M853.92,538.55c0-9.95,7.26-18.92,19.96-18.92c5.5,0,9.18,1.21,12.04,3.3l-3.46,5.77
		c-2.25-1.65-4.95-2.64-8.74-2.64c-7.81,0-11.55,5.28-11.55,12.26c0,7.04,3.35,12.92,11.05,12.92c2.97,0,5.22-0.61,6.49-1.43v-7.26
		h-6.76v-5.99h14.19v17.49c-2.58,1.76-6.82,3.52-13.86,3.52C860.68,557.58,853.92,548.45,853.92,538.55z"/>
</g>
</svg>
