<?xml version="1.0" encoding="utf-8"?>
<!-- Generator: Adobe Illustrator 24.0.0, SVG Export Plug-In . SVG Version: 6.00 Build 0)  -->
<svg version="1.1" id="Layer_1" xmlns="http://www.w3.org/2000/svg" xmlns:xlink="http://www.w3.org/1999/xlink" x="0px" y="0px"
	 viewBox="0 0 960 600" style="enable-background:new 0 0 960 600;" xml:space="preserve">
<style type="text/css">
	.st0{fill:#09424C;}
	.st1{fill:#EEE8D5;}
	.st2{fill:#268BD2;}
	.st3{fill:none;stroke:#93A1A1;stroke-width:3.5433;stroke-miterlimit:10;}
	.st4{fill:none;stroke:#93A1A1;stroke-width:3.5433;stroke-miterlimit:10;stroke-dasharray:9.2773,9.2773;}
	.st5{fill:#93A1A1;}
	.st6{fill:none;stroke:#93A1A1;stroke-width:3.5433;stroke-miterlimit:10;stroke-dasharray:8.192,8.192;}
</style>
<g>
	<rect class="st0" width="430" height="600"/>
</g>
<g>
	<rect x="480" class="st0" width="480" height="600"/>
</g>
<g>
	<path class="st1" d="M57.05,267.24L122.31,209l12.22,12.48l-50.7,44.98l50.7,44.46l-12.22,13.52L57.05,267.24z"/>
	<path class="st2" d="M165.99,206.14h21.84v13.26c6.5-7.8,18.2-16.38,35.88-16.38c30.68,0,50.96,23.92,50.96,65.26
		c0,39.52-23.14,66.04-55.64,66.04c-17.16,0-26.52-6.5-31.2-10.66v64.48h-21.84V206.14z M251.01,268.8c0-27.04-10.14-46.8-32.5-46.8
		c-16.38,0-27.3,12.22-30.68,16.64v66.3c5.46,4.94,14.04,10.92,28.34,10.92C239.05,315.86,251.01,296.36,251.01,268.8z"/>
	<path class="st1" d="M295.47,311.96l50.7-44.98l-50.7-44.46L307.69,209l65.26,57.2l-65.26,58.24L295.47,311.96z"/>
</g>
<g>
	<path class="st1" d="M508.62,267.24L573.88,209l12.22,12.48l-50.7,44.98l50.7,44.46l-12.22,13.52L508.62,267.24z"/>
	<path class="st2" d="M632.38,331.2h-21.06l62.66-173.16h21.32L632.38,331.2z"/>
	<path class="st2" d="M724.42,206.14h21.84v13.26c6.5-7.8,18.2-16.38,35.88-16.38c30.68,0,50.96,23.92,50.96,65.26
		c0,39.52-23.14,66.04-55.64,66.04c-17.16,0-26.52-6.5-31.2-10.66v64.48h-21.84V206.14z M809.44,268.8c0-27.04-10.14-46.8-32.5-46.8
		c-16.38,0-27.3,12.22-30.68,16.64v66.3c5.46,4.94,14.04,10.92,28.34,10.92C797.48,315.86,809.44,296.36,809.44,268.8z"/>
	<path class="st1" d="M853.9,311.96l50.7-44.98l-50.7-44.46L866.12,209l65.26,57.2l-65.26,58.24L853.9,311.96z"/>
</g>
<g>
	<path class="st2" d="M39.63,538.67c0-9.95,6.65-19.03,18.92-19.03s18.86,8.96,18.86,18.81c0,9.95-6.43,19.14-18.7,19.14
		C46.45,557.58,39.63,548.56,39.63,538.67z M69.22,538.67c0-6.82-3.19-12.76-10.5-12.76c-7.37,0-10.83,5.72-10.83,12.54
		c0,6.87,3.35,12.87,10.67,12.87C65.92,551.31,69.22,545.48,69.22,538.67z"/>
	<path class="st2" d="M84.23,520.3h12.04c7.97,0,14.02,3.68,14.02,11.55c0,7.97-5.77,12.04-14.9,12.04h-3.35v13.03h-7.81V520.3z
		 M95.51,538c4.89,0,6.98-1.98,6.98-6.05c0-3.68-2.03-5.72-6.82-5.72h-3.63V538H95.51z"/>
	<path class="st2" d="M116.85,520.3h21.12v6.38h-13.47v8.25h11.88v6.05h-11.88v9.57h13.86v6.38h-21.5V520.3z"/>
	<path class="st2" d="M145.94,520.3h7.81l13.2,18.97c2.2,3.13,3.52,5.55,3.85,6.16h0.11c-0.06-0.49-0.22-2.97-0.22-5.77V520.3h7.04
		v36.62h-7.09l-14.24-20.35c-1.98-2.75-3.08-4.78-3.52-5.5h-0.11c0.05,0.5,0.22,2.58,0.22,4.89v20.95h-7.04V520.3z"/>
	<path class="st2" d="M187.14,520.3h7.75v36.62h-7.75V520.3z"/>
	<path class="st2" d="M204.57,520.3h7.81l13.2,18.97c2.2,3.13,3.52,5.55,3.85,6.16h0.11c-0.06-0.49-0.22-2.97-0.22-5.77V520.3h7.04
		v36.62h-7.09l-14.24-20.35c-1.98-2.75-3.08-4.78-3.52-5.5h-0.11c0.05,0.5,0.22,2.58,0.22,4.89v20.95h-7.04V520.3z"/>
	<path class="st2" d="M243.24,538.55c0-9.95,7.26-18.92,19.96-18.92c5.5,0,9.18,1.21,12.04,3.3l-3.46,5.77
		c-2.25-1.65-4.95-2.64-8.74-2.64c-7.81,0-11.55,5.28-11.55,12.26c0,7.04,3.35,12.92,11.05,12.92c2.97,0,5.22-0.61,6.49-1.43v-7.26
		h-6.76v-5.99h14.19v17.49c-2.58,1.76-6.82,3.52-13.86,3.52C250,557.58,243.24,548.45,243.24,538.55z"/>
	<path class="st2" d="M301.48,526.68h-10.12v-6.38h27.99v6.38h-10.06v30.25h-7.81V526.68z"/>
	<path class="st2" d="M332.44,520.3h7.48l14.35,36.62h-8.47l-2.47-6.87H328.7l-2.42,6.87h-7.81L332.44,520.3z M341.13,543.83
		l-3.13-8.74c-1.15-3.13-1.65-5.5-1.98-6.32h-0.11c-0.27,0.88-0.88,3.35-1.92,6.32l-3.13,8.74H341.13z"/>
	<path class="st2" d="M355.93,538.55c0-9.95,7.26-18.92,19.96-18.92c5.5,0,9.18,1.21,12.04,3.3l-3.46,5.77
		c-2.25-1.65-4.95-2.64-8.74-2.64c-7.81,0-11.55,5.28-11.55,12.26c0,7.04,3.35,12.92,11.05,12.92c2.97,0,5.22-0.61,6.49-1.43v-7.26
		h-6.76v-5.99h14.19v17.49c-2.58,1.76-6.82,3.52-13.86,3.52C362.69,557.58,355.93,548.45,355.93,538.55z"/>
</g>
<g>
	<path class="st2" d="M551.64,538.55c0-9.95,6.54-18.92,18.92-18.92c4.78,0,8.14,1.04,11,2.91l-3.46,5.67
		c-2.04-1.32-4.29-2.15-7.64-2.15c-6.87,0-10.56,5.5-10.56,12.26c0,6.98,3.52,12.76,10.67,12.76c3.96,0,6.38-1.38,8.3-2.8l3.19,5.44
		c-1.87,1.7-6.27,3.85-11.6,3.85C557.97,557.58,551.64,548.51,551.64,538.55z"/>
	<path class="st2" d="M587.94,520.3h7.81v30.36h13.64v6.27h-21.45V520.3z"/>
	<path class="st2" d="M611.98,538.67c0-9.95,6.65-19.03,18.92-19.03c12.26,0,18.86,8.96,18.86,18.81c0,9.95-6.43,19.14-18.7,19.14
		S611.98,548.56,611.98,538.67z M641.56,538.67c0-6.82-3.19-12.76-10.5-12.76c-7.37,0-10.83,5.72-10.83,12.54
		c0,6.87,3.35,12.87,10.67,12.87C638.26,551.31,641.56,545.48,641.56,538.67z"/>
	<path class="st2" d="M653.56,553.95l3.3-5.39c0.82,0.61,3.63,2.75,7.86,2.75c3.68,0,5.83-1.87,5.83-4.23
		c0-3.25-3.91-4.18-8.19-6.32c-4.51-2.2-7.86-5-7.86-10.94c0-6.27,5.28-10.17,11.82-10.17c6,0,9.18,1.92,10.72,3.08l-3.13,5.44
		c-1.27-0.82-4.01-2.25-7.15-2.25c-2.97,0-4.89,1.32-4.89,3.79c0,2.86,2.92,3.79,6.76,5.55c4.84,2.2,9.4,4.67,9.4,11.44
		c0,6.65-5,10.89-13.14,10.89C658.95,557.58,655.15,555.27,653.56,553.95z"/>
	<path class="st2" d="M685.13,520.3h7.75v36.62h-7.75V520.3z"/>
	<path class="st2" d="M702.56,520.3h7.81l13.2,18.97c2.2,3.13,3.52,5.55,3.85,6.16h0.11c-0.05-0.49-0.22-2.97-0.22-5.77V520.3h7.04
		v36.62h-7.09l-14.24-20.35c-1.98-2.75-3.08-4.78-3.52-5.5h-0.11c0.05,0.5,0.22,2.58,0.22,4.89v20.95h-7.04V520.3z"/>
	<path class="st2" d="M741.22,538.55c0-9.95,7.26-18.92,19.96-18.92c5.5,0,9.18,1.21,12.04,3.3l-3.46,5.77
		c-2.25-1.65-4.95-2.64-8.74-2.64c-7.81,0-11.55,5.28-11.55,12.26c0,7.04,3.35,12.92,11.05,12.92c2.97,0,5.22-0.61,6.49-1.43v-7.26
		h-6.76v-5.99h14.19v17.49c-2.58,1.76-6.82,3.52-13.86,3.52C747.99,557.58,741.22,548.45,741.22,538.55z"/>
	<path class="st2" d="M799.47,526.68h-10.12v-6.38h27.99v6.38h-10.06v30.25h-7.81V526.68z"/>
	<path class="st2" d="M830.43,520.3h7.48l14.35,36.62h-8.47l-2.47-6.87h-14.63l-2.42,6.87h-7.81L830.43,520.3z M839.12,543.83
		l-3.13-8.74c-1.15-3.13-1.65-5.5-1.98-6.32h-0.11c-0.28,0.88-0.88,3.35-1.92,6.32l-3.13,8.74H839.12z"/>
	<path class="st2" d="M853.92,538.55c0-9.95,7.26-18.92,19.96-18.92c5.5,0,9.18,1.21,12.04,3.3l-3.46,5.77
		c-2.25-1.65-4.95-2.64-8.74-2.64c-7.81,0-11.55,5.28-11.55,12.26c0,7.04,3.35,12.92,11.05,12.92c2.97,0,5.22-0.61,6.49-1.43v-7.26
		h-6.76v-5.99h14.19v17.49c-2.58,1.76-6.82,3.52-13.86,3.52C860.68,557.58,853.92,548.45,853.92,538.55z"/>
</g>
<g>
	<g>
		<line class="st3" x1="215" y1="91" x2="215" y2="95.25"/>
		<line class="st4" x1="215" y1="104.53" x2="215" y2="174.11"/>
		<line class="st3" x1="215" y1="178.75" x2="215" y2="183"/>
	</g>
</g>
<g>
	<g>
		<line class="st3" x1="340" y1="309" x2="340" y2="313.25"/>
		<line class="st4" x1="340" y1="322.53" x2="340" y2="392.11"/>
		<line class="st3" x1="340" y1="396.75" x2="340" y2="401"/>
	</g>
</g>
<g>
	<g>
		<line class="st3" x1="540" y1="309" x2="540" y2="313.25"/>
		<line class="st4" x1="540" y1="322.53" x2="540" y2="392.11"/>
		<line class="st3" x1="540" y1="396.75" x2="540" y2="401"/>
	</g>
</g>
<g>
	<path class="st5" d="M107.97,45.26H97.85v-6.38h27.99v6.38h-10.06v30.25h-7.81V45.26z"/>
	<path class="st5" d="M125.41,68.63c0-6.98,7.2-9.51,14.3-9.51h0.94v-1.54c0-2.58-1.15-3.74-4.34-3.74c-2.91,0-5.22,1.26-6.82,2.53
		l-3.19-4.45c2.14-1.98,5.77-3.85,10.83-3.85c7.31,0,10.78,2.8,10.78,9.9v9.62c0,3.63,0.39,6.21,0.77,7.92h-7.2
		c-0.22-0.66-0.38-2.03-0.44-2.86c-1.43,1.76-4.07,3.52-7.53,3.52C128.93,76.17,125.41,73.42,125.41,68.63z M140.64,68.47v-4.84
		h-0.94c-4.29,0-7.26,1.26-7.26,4.4c0,1.98,1.59,2.8,3.24,2.8C137.95,70.83,139.49,69.79,140.64,68.47z"/>
	<path class="st5" d="M152.8,81.5c0-2.97,1.87-5.11,4.51-6.54c-1.48-0.88-2.36-2.15-2.36-4.07c0-2.47,1.37-4.07,2.97-5.06
		c-3.02-1.65-4.73-4.51-4.73-8.03c0-5.77,4.45-9.73,11.88-9.73c1.76,0,3.41,0.22,4.78,0.66h9.73v4.78h-3.68
		c0.71,1.26,1.1,2.75,1.1,4.29c0,5.72-4.07,9.68-11.55,9.68c-1.1,0-2.2-0.06-3.19-0.22c-0.66,0.39-0.99,0.88-0.99,1.54
		c0,1.43,1.54,1.7,5.39,1.92c5.55,0.27,12.59,0.33,12.59,8.25c0,5.66-5.88,9.68-14.68,9.68C157.2,88.65,152.8,86.34,152.8,81.5z
		 M171.99,79.8c0-2.86-2.53-2.75-6.43-3.02c-1.26-0.11-2.53-0.16-3.68-0.38c-1.37,0.99-2.09,2.14-2.09,3.74
		c0,2.14,1.48,3.63,5.22,3.63C169.46,83.76,171.99,82.05,171.99,79.8z M169.95,57.8c0-3.13-1.81-4.95-4.84-4.95
		c-3.02,0-4.84,1.81-4.84,4.95c0,3.08,1.81,4.95,4.84,4.95C168.14,62.75,169.95,60.88,169.95,57.8z"/>
	<path class="st5" d="M195.91,38.88h7.81l13.2,18.97c2.2,3.13,3.52,5.55,3.85,6.16h0.11c-0.06-0.49-0.22-2.97-0.22-5.77V38.88h7.04
		v36.62h-7.09l-14.24-20.35c-1.98-2.75-3.08-4.78-3.52-5.5h-0.11c0.05,0.5,0.22,2.58,0.22,4.89v20.95h-7.04V38.88z"/>
	<path class="st5" d="M234.03,68.63c0-6.98,7.2-9.51,14.3-9.51h0.94v-1.54c0-2.58-1.15-3.74-4.34-3.74c-2.91,0-5.22,1.26-6.82,2.53
		l-3.19-4.45c2.14-1.98,5.77-3.85,10.83-3.85c7.31,0,10.78,2.8,10.78,9.9v9.62c0,3.63,0.39,6.21,0.77,7.92h-7.2
		c-0.22-0.66-0.38-2.03-0.44-2.86c-1.43,1.76-4.07,3.52-7.53,3.52C237.55,76.17,234.03,73.42,234.03,68.63z M249.26,68.47v-4.84
		h-0.94c-4.29,0-7.26,1.26-7.26,4.4c0,1.98,1.59,2.8,3.24,2.8C246.57,70.83,248.11,69.79,249.26,68.47z"/>
	<path class="st5" d="M263.4,48.73h7.15v3.3c1.38-1.54,3.74-3.96,8.03-3.96c3.79,0,5.88,1.7,6.87,4.23
		c2.25-2.53,4.73-4.23,8.58-4.23c5.66,0,7.64,3.74,7.64,8.69v18.75h-7.31V58.24c0-2.64-0.77-4.07-3.19-4.07
		c-2.25,0-3.96,1.76-5,3.02v18.31h-7.31V58.24c0-2.69-0.93-4.07-3.13-4.07c-2.69,0-4.45,2.58-5,3.3v18.04h-7.31V48.73z"/>
	<path class="st5" d="M306.74,61.98c0-8.47,5.83-13.91,13.25-13.91c7.59,0,11.66,4.84,11.66,13.2c0,0.82-0.06,1.65-0.11,2.53H314.6
		c0.33,3.96,2.36,6.93,6.82,6.93c3.63,0,5.66-1.21,6.98-1.87l2.36,4.73c-1.76,0.99-4.51,2.58-10.01,2.58
		C311.8,76.17,306.74,70.5,306.74,61.98z M324.5,58.85c-0.06-3.02-1.27-5.5-4.62-5.5c-3.13,0-4.84,2.03-5.39,5.5H324.5z"/>
</g>
<g>
	<path class="st5" d="M275.38,445.54l3.3-5.39c0.82,0.61,3.63,2.75,7.86,2.75c3.68,0,5.83-1.87,5.83-4.23c0-3.25-3.9-4.18-8.19-6.32
		c-4.51-2.2-7.86-5-7.86-10.94c0-6.27,5.28-10.17,11.82-10.17c5.99,0,9.18,1.92,10.72,3.08l-3.13,5.44
		c-1.27-0.82-4.01-2.25-7.15-2.25c-2.97,0-4.89,1.32-4.89,3.79c0,2.86,2.91,3.79,6.76,5.55c4.84,2.2,9.4,4.67,9.4,11.44
		c0,6.65-5,10.89-13.14,10.89C280.77,449.17,276.97,446.86,275.38,445.54z"/>
	<path class="st5" d="M305.3,421.73h7.15v2.8c1.48-1.81,3.79-3.46,7.42-3.46c6.76,0,10.89,5.06,10.89,14.02
		c0,8.47-5,14.08-11.99,14.08c-3.3,0-5.22-1.1-6.16-1.92v13.25h-7.31V421.73z M323,435.09c0-5.06-1.76-8.19-5.33-8.19
		c-2.75,0-4.51,1.98-5.06,2.75v12.04c0.93,0.83,2.31,1.81,4.62,1.81C320.97,443.5,323,440.37,323,435.09z"/>
	<path class="st5" d="M335.71,413.86c0-2.31,1.87-4.29,4.45-4.29c2.58,0,4.51,1.98,4.51,4.29c0,2.36-1.92,4.4-4.51,4.4
		C337.58,418.26,335.71,416.23,335.71,413.86z M336.48,421.73h7.37v26.78h-7.37V421.73z"/>
	<path class="st5" d="M353.2,440.81v-13.64h-4.29v-5.44h4.29v-7.75h7.26v7.75h6.27v5.44h-6.27v12.21c0,2.64,0.66,3.79,2.69,3.79
		c1.59,0,2.97-0.66,3.52-0.99l1.7,5.44c-1.1,0.6-3.35,1.54-6.71,1.54C355.35,449.17,353.2,445.92,353.2,440.81z"/>
	<path class="st5" d="M371.3,444.55l11.66-17.32h-11.11v-5.5h20.02v4.23l-11.6,17.05h11.71v5.5H371.3V444.55z"/>
	<path class="st5" d="M395.22,434.98c0-8.47,5.83-13.91,13.25-13.91c7.59,0,11.66,4.84,11.66,13.2c0,0.82-0.06,1.65-0.11,2.53
		h-16.94c0.33,3.96,2.36,6.93,6.82,6.93c3.63,0,5.66-1.21,6.98-1.87l2.36,4.73c-1.76,0.99-4.51,2.58-10.01,2.58
		C400.28,449.17,395.22,443.5,395.22,434.98z M412.98,431.84c-0.06-3.02-1.27-5.5-4.62-5.5c-3.13,0-4.84,2.03-5.39,5.5H412.98z"/>
	<path class="st5" d="M437.35,411.88h7.7v15.95l12.48-15.95h8.58l-13.47,16.99l14.08,19.63h-9.18l-12.48-17.54v17.54h-7.7V411.88z"
		/>
	<path class="st5" d="M471.34,408.91h7.31v39.59h-7.31V408.91z"/>
	<path class="st5" d="M484.37,441.63c0-6.98,7.2-9.51,14.3-9.51h0.94v-1.54c0-2.58-1.16-3.74-4.34-3.74c-2.92,0-5.22,1.26-6.82,2.53
		l-3.19-4.45c2.14-1.98,5.77-3.85,10.83-3.85c7.31,0,10.78,2.8,10.78,9.9v9.62c0,3.63,0.38,6.21,0.77,7.92h-7.2
		c-0.22-0.66-0.38-2.04-0.44-2.86c-1.43,1.76-4.07,3.52-7.53,3.52C487.89,449.17,484.37,446.42,484.37,441.63z M499.61,441.47v-4.84
		h-0.94c-4.29,0-7.26,1.26-7.26,4.4c0,1.98,1.59,2.8,3.25,2.8C496.91,443.83,498.45,442.79,499.61,441.47z"/>
	<path class="st5" d="M513.74,421.73h7.15v3.3c1.38-1.54,3.74-3.96,8.03-3.96c3.79,0,5.88,1.7,6.87,4.23
		c2.25-2.53,4.73-4.23,8.58-4.23c5.66,0,7.64,3.74,7.64,8.69v18.75h-7.31v-17.27c0-2.64-0.77-4.07-3.19-4.07
		c-2.25,0-3.96,1.76-5,3.03v18.31h-7.31v-17.27c0-2.7-0.93-4.07-3.13-4.07c-2.7,0-4.46,2.58-5,3.3v18.04h-7.31V421.73z"/>
	<path class="st5" d="M559.01,421.73h7.15v3.3c1.38-1.54,3.74-3.96,8.03-3.96c3.79,0,5.88,1.7,6.87,4.23
		c2.25-2.53,4.73-4.23,8.58-4.23c5.66,0,7.64,3.74,7.64,8.69v18.75h-7.31v-17.27c0-2.64-0.77-4.07-3.19-4.07
		c-2.25,0-3.96,1.76-5,3.03v18.31h-7.31v-17.27c0-2.7-0.93-4.07-3.13-4.07c-2.69,0-4.45,2.58-5,3.3v18.04h-7.31V421.73z"/>
	<path class="st5" d="M602.35,434.98c0-8.47,5.83-13.91,13.25-13.91c7.59,0,11.66,4.84,11.66,13.2c0,0.82-0.06,1.65-0.11,2.53
		h-16.94c0.33,3.96,2.36,6.93,6.82,6.93c3.63,0,5.66-1.21,6.98-1.87l2.37,4.73c-1.76,0.99-4.51,2.58-10.01,2.58
		C607.41,449.17,602.35,443.5,602.35,434.98z M620.11,431.84c-0.05-3.02-1.26-5.5-4.62-5.5c-3.13,0-4.84,2.03-5.39,5.5H620.11z"/>
	<path class="st5" d="M632.82,421.73h7.31v3.63c1.15-1.98,3.35-4.29,6.76-4.29c1.98,0,3.02,0.38,3.63,0.71l-1.76,6.38
		c-0.44-0.27-1.26-0.6-2.8-0.6c-3.25,0-5.17,2.86-5.83,4.07v16.88h-7.31V421.73z"/>
	<path class="st5" d="M654.27,421.73h7.15v3.35c1.92-2.25,4.67-4.01,8.52-4.01c5.83,0,8.03,3.74,8.03,8.69v18.75h-7.31v-17.27
		c0-2.7-0.93-4.07-3.57-4.07c-2.37,0-4.4,1.87-5.5,3.36v17.98h-7.31V421.73z"/>
</g>
<g>
	<g>
		<line class="st3" x1="645" y1="91" x2="645" y2="95.25"/>
		<line class="st6" x1="645" y1="103.44" x2="645" y2="197.65"/>
		<line class="st3" x1="645" y1="201.75" x2="645" y2="206"/>
	</g>
</g>
<g>
	<path class="st5" d="M584.67,72.54l3.3-5.39c0.83,0.6,3.63,2.75,7.86,2.75c3.68,0,5.83-1.87,5.83-4.23c0-3.24-3.9-4.18-8.19-6.32
		c-4.51-2.2-7.86-5-7.86-10.94c0-6.27,5.28-10.17,11.82-10.17c5.99,0,9.18,1.92,10.72,3.08l-3.13,5.44
		c-1.26-0.82-4.01-2.25-7.15-2.25c-2.97,0-4.89,1.32-4.89,3.79c0,2.86,2.91,3.79,6.76,5.55c4.84,2.2,9.4,4.67,9.4,11.44
		c0,6.65-5,10.89-13.14,10.89C590.06,76.17,586.26,73.86,584.67,72.54z"/>
	<path class="st5" d="M615.25,35.91h7.31v39.59h-7.31V35.91z"/>
	<path class="st5" d="M628.28,68.63c0-6.98,7.2-9.51,14.3-9.51h0.94v-1.54c0-2.58-1.16-3.74-4.34-3.74c-2.92,0-5.22,1.26-6.82,2.53
		l-3.19-4.45c2.14-1.98,5.77-3.85,10.83-3.85c7.31,0,10.78,2.8,10.78,9.9v9.62c0,3.63,0.38,6.21,0.77,7.92h-7.2
		c-0.22-0.66-0.38-2.03-0.44-2.86c-1.43,1.76-4.07,3.52-7.53,3.52C631.8,76.17,628.28,73.42,628.28,68.63z M643.51,68.47v-4.84
		h-0.94c-4.29,0-7.26,1.26-7.26,4.4c0,1.98,1.59,2.8,3.25,2.8C640.82,70.83,642.36,69.79,643.51,68.47z"/>
	<path class="st5" d="M655.5,73.64l2.47-5.11c1.04,0.71,3.63,2.2,6.6,2.2c2.8,0,4.4-0.83,4.4-2.42c0-1.81-2.97-2.31-6.76-4.12
		c-3.74-1.76-6-3.85-6-7.92c0-5,3.96-8.19,10.01-8.19c4.56,0,7.37,1.43,8.58,2.15l-2.58,5c-1.04-0.66-3.13-1.7-5.72-1.7
		s-3.68,0.94-3.68,2.36c0,1.81,2.42,2.31,5.5,3.52c4.23,1.76,7.31,3.68,7.31,8.19c0,5.61-4.01,8.58-10.61,8.58
		C660.23,76.17,657.16,74.74,655.5,73.64z"/>
	<path class="st5" d="M680.64,35.91h7.31v16.06c1.38-1.48,3.96-3.9,8.36-3.9c5.88,0,8.03,3.74,8.03,8.69v18.75h-7.31V58.24
		c0-2.69-0.94-4.07-3.52-4.07c-2.86,0-5,2.64-5.55,3.35v17.98h-7.31V35.91z"/>
</g>
</svg>
