<svg viewBox="0 0 1100 1000" xmlns="http://www.w3.org/2000/svg"><path d="m901.55 837.77c-.04 0-.08.05-.06.09 1.33 2.94 4.28 4.99 7.72 4.99s6.39-2.05 7.72-4.99c.02-.04-.01-.09-.06-.09z" fill="#ede7d4"/><path d="m933.67 905.54h13.55m-6.77-6.78v50.82m-45.74-56.75c0 7.95-6.45 14.4-14.4 14.4s-14.4-6.45-14.4-14.4 6.45-14.4 14.4-14.4 14.4 6.45 14.4 14.4zm-1.69-.85h11.86m10.16 0h10.16m-20.32-.4c0 2.81 2.28 5.08 5.08 5.08s5.08-2.28 5.08-5.08-2.27-5.08-5.08-5.08-5.08 2.27-5.08 5.08zm32.18-50.42v10.16m-54.21-10.16v10.16m27.11-56.54v29.44m-25.41.85h52.52m-57.61 55.06v-.91c0-16.57 12.88-30.7 29.44-31.26 17.32-.59 31.55 13.28 31.55 30.47v15.25m-42.35 40.66v22.02m23.72 0v-23.72m16.95-132.14c-.99 2.8-3.65 4.84-6.78 4.84m-50.84-4.84c.99 2.8 3.65 4.84 6.78 4.84m-5.08 32.43v-17.68c0-13.98 13.12-25.31 27.1-25.31s27.1 11.33 27.1 25.31v17.68m-42.34 55.91-6.78 38.96h43.23l-5.96-40.66v-22.02m-3.38-20.33c0 6.55-5.31 11.86-11.86 11.86s-11.86-5.31-11.86-11.86m11.9 11.86v25.01m-20.37-62.28v2.66c0 11.23 8.78 20.88 20 21.06 11.38.18 20.65-8.99 20.65-20.33v-1.69" fill="none" stroke="#ede7d4" stroke-miterlimit="10" stroke-width="3.388"/><path d="m389.49 607.02c1.01 2.84 3.69 4.88 6.87 4.88s5.86-2.04 6.87-4.88z" fill="#ede7d4"/><path d="m658.21 860.2v9.76m-15.29 35.11h30.49m-30.49 33.55h30.49m-30.49-68.66v86.4m30.49 0 .01-86.4m-234.61-265.48c0 3.27 2.66 5.93 5.93 5.93 0 0 .85 6.78-7.62 6.78h-22.02m11.85-11.87c-9.36 0-16.94-7.58-16.94-16.94h-20.33m18.63 42.35v13.55m11.86-25.41c0 6.55-5.31 11.86-11.86 11.86s-11.86-5.31-11.86-11.86m32.19-22.02c0 11.23-9.1 20.33-20.33 20.33s-20.33-9.1-20.26-20.05v-10.16c-.07-11.51 9.03-20.61 20.26-20.61s20.33 9.1 20.33 20.33zm-50.82 89.79v-38.96c0-16.84 13.65-30.49 30.49-30.49s30.49 13.65 30.49 30.49v38.96m-30.49 10.16h22.02l-6.78-30.49v-27.1m-15.24 57.59h22.02l-6.78-30.49v-27.1m-30.48-.01v27.1l-6.78 30.49h22.02m-11.85.01v28.8m23.71 0 .01-28.8m8.46-106.72v-5.08c0-2.81 2.27-5.08 5.08-5.08s5.08 2.28 5.08 5.08v1.69 18.64" fill="none" stroke="#ede7d4" stroke-miterlimit="10" stroke-width="3.388"/><path d="m650.51 837.83c-.04 0-.08.05-.06.09 1.33 2.94 4.28 4.99 7.72 4.99s6.39-2.05 7.72-4.99c.02-.04-.01-.09-.06-.09z" fill="#ede7d4"/><path d="m873.33 613.8c9.77-9.77 9.77-25.6 0-35.37m-6.12 29.2c6.24-6.24 6.24-16.36 0-22.61m-6.33 17.17c3.11-3.11 3.11-8.14 0-11.25m85.8-12.09c-9.77 9.77-9.77 25.6 0 35.37m6.12-29.21c-6.24 6.24-6.24 16.37 0 22.61m6.33-17.16c-3.11 3.11-3.11 8.14 0 11.25m-270.06-107.65v-59.29h8.47m-25.41-71.16v1.69c0 2.81-2.28 5.08-5.08 5.08-2.81 0-5.08-2.28-5.08-5.08v-1.69m-6.78 0v1.69c0 2.81-2.27 5.08-5.08 5.08s-5.08-2.28-5.08-5.08v-1.69m8.46-28.8v-1.7c0-2.81 2.27-5.08 5.08-5.08s5.08 2.27 5.08 5.08v1.7m6.78 52.52c0 6.55-5.31 11.86-11.86 11.86s-11.86-5.31-11.86-11.86m32.19-22.02c0 11.23-9.1 20.33-20.33 20.33s-20.33-9.1-20.26-20.04v-10.16c-.07-11.51 9.03-20.61 20.26-20.61s20.33 9.1 20.33 20.33zm-50.82 89.78v-38.96c0-16.84 13.65-30.49 30.49-30.49s30.49 13.65 30.49 30.49v13.22m-30.48 35.91h22.02l-6.78-30.49v-27.1m-15.24 57.59h22.02l-6.78-30.49v-27.1m-30.49-.01v27.1l-6.78 30.49h22.02m-11.85.01v28.8m23.71 0 .01-28.8m-32.19-108.42h38.97m.53 6.77h-39.51m-249.24 449.88h40.66m-40.59 14.12c0 11.23 9.1 20.33 20.33 20.33s20.33-9.1 20.26-20.05v-25.69l-3.52-4.86-4.16 4.18-4.16-4.18-4.16 4.18-4.16-4.18-4.16 4.18-4.16-4.18-4.16 4.18-4.16-4.18-3.86 4.86zm-10.23 89.79v-38.18c0-16.57 12.88-30.7 29.44-31.26 17.32-.59 31.55 13.28 31.55 30.48v38.96m-30.71-67.77v55.9m-15.67.18h30.49m-30.17 9.93h30.49m-30.18-45.68v86.4m30.49 0 .01-87.2m218.34-28.71h-2.79c-18.17 0-15.57-23.36-15.57-23.36v-3.89c0-10.75 8.72-19.47 19.47-19.47l14.15 2.6 14.28-2.6c10.75 0 19.47 8.72 19.47 19.47v3.89s2.6 23.36-15.58 23.36h-2.93m-3.4 9.18c0 6.55-5.31 11.86-11.86 11.86s-11.86-5.31-11.86-11.86m-8.46-27.1v4.35c0 11.23 8.78 20.88 20.01 21.06 11.38.18 20.65-8.99 20.65-20.33v-4.35c0-11.22-8.78-14.11-20.01-14.28-11.38-.18-20.65 2.21-20.65 13.55zm-10.17 94.87v-38.18c0-16.57 12.88-30.7 29.44-31.26 17.32-.59 31.55 13.28 31.55 30.48v38.96" fill="none" stroke="#ede7d4" stroke-miterlimit="10" stroke-width="3.388"/><path d="m891.18 607.23c1.01 2.84 3.69 4.88 6.87 4.88s5.86-2.04 6.87-4.88z" fill="#ede7d4"/><path d="m678.57 586.69v10.16c0 11.23-9.1 20.33-20.33 20.33s-20.33-9.1-20.26-20.05v-10.17c-.07-11.51 9.03-20.61 20.26-20.61h2.49c13.55 0 21.99 8.22 24.61 19.15-3.47.99-7.13 1.56-10.93 1.56-13.25 0-24.21-5.65-31.43-15.62m-15.24 115.2v-38.96c0-16.84 13.65-30.49 30.49-30.49s30.49 13.65 30.49 30.49v38.96m-30.47-67.77v55.9m-15.61-.1h30.49m-30.14 10.25h30.49m-30.49-45.72v86.4m30.49 0 .01-86.4m229.99 9.34 12.88-4.87m-13.23-3.82.35 8.69 8.94 23.07 28.2-10.97v-12.12c0-17.22-13.34-31.18-30.55-31.18-17.22 0-30.55 13.96-30.55 31.18l1.92.02 29.43-11.61 5.5 6.74 8.77 23.14m3.5-68.05c-9.36 0-16.94-7.58-16.94-16.94h-20.33m-1.63 15.24c0 11.23 9.1 20.33 20.33 20.33s20.33-9.1 20.26-20.05v-25.69l-3.52-4.86-4.16 4.18-4.16-4.18-4.16 4.18-4.16-4.18-4.16 4.18-4.16-4.18-4.16 4.18-4.16-4.18-3.87 4.86zm20.27 22.03v10.16m-15.25 55.88h32.19m-32.19-22v62.68m30.48 0 .01-40.66" fill="none" stroke="#ede7d4" stroke-miterlimit="10" stroke-width="3.388"/><path d="m663.13 607.02c1.01 2.84 3.69 4.88 6.87 4.88s5.86-2.04 6.87-4.88z" fill="#ede7d4"/><path d="m930.44 380.88c0 11.23-9.1 20.33-20.33 20.33s-20.33-9.1-20.26-20.05v-10.16c-.07-11.51 9.03-20.61 20.26-20.61s20.33 9.1 20.33 20.33zm-38.7 6.76h-5.92c-4.71 0-8.52-3.82-8.52-8.52 0-4.71 3.82-8.52 8.52-8.52h54.78m-502.14 123.46v-59.29h8.47m-25.41-67.77v1.7c0 2.81-2.28 5.08-5.08 5.08-2.81 0-5.08-2.27-5.08-5.08v-1.7m-6.78 0v1.7c0 2.81-2.27 5.08-5.08 5.08s-5.08-2.27-5.08-5.08v-1.7m-45.74 127.06v-45.74m6.77 45.74c0-4.68 3.79-8.47 8.47-8.47s8.47 3.79 8.47 8.47m47.44-106.73c0 6.55-5.31 11.86-11.86 11.86s-11.86-5.31-11.86-11.86m-8.47-28.8.07 7.06c-.07 10.94 9.03 20.05 20.26 20.05s20.33-9.1 20.33-20.33v-6.78m-50.82 96.56v-38.96c0-16.84 13.65-30.49 30.49-30.49s30.49 13.65 30.49 30.49v12.78m-45.98 14.39h30.49m-30.46 9.99h30.49m-30.28-45.63v86.4m30.49 0 .01-86.4m-75.19 60.67h-12.35l-3.95-6.46 16.94-8.47m23.72 40.15c0-13.75-11.15-24.9-24.9-24.9m39.14 11.37v.58c0 6.5-5.27 11.77-11.77 11.77h-2.47m55.91-133.84c0-11.26-40.66-11.26-40.66 0m40.67 8.24h2.47c4.9 0 9.38-3.59 9.38-8.5 0-.09-.01-.43-.01-.52-.1-3.61-2.35-6.62-5.49-7.9 1.7-3.13 1.41-7.11-1.02-9.99l-.29-.34c-2.4-2.72-6.09-3.59-9.33-2.55-.64-3.26-3.08-6.02-6.5-6.9-.04-.01-.33-.08-.37-.09-3.33-.82-6.7.39-8.81 2.82-2.14-2.43-5.55-3.63-8.89-2.81-3.48.82-5.99 3.57-6.67 6.85-3.3-1.07-7.06-.14-9.47 2.65-.02.02-.2.23-.22.26-2.41 2.85-2.72 6.77-1.08 9.88-3.16 1.28-5.43 4.34-5.54 7.97l-.01.52c0 4.89 3.96 8.8 8.85 8.82h.03 2.3m38.96.06h-39.5m266.05 233.24c-2.81 0-5.08-2.28-5.08-5.08s2.28-5.08 5.08-5.08" fill="none" stroke="#ede7d4" stroke-miterlimit="10" stroke-width="3.388"/><path d="m915.19 391.04c1.01 2.84 3.69 4.88 6.87 4.88s5.86-2.04 6.87-4.88z" fill="#ede7d4"/><path d="m377.68 191.75v-6.78c0-16.84 13.65-30.49 30.49-30.49s30.49 13.65 30.49 30.49v38.96m-30.47-67.75v55.91m-15.82.09h30.49m-30.77 10.1h30.49m-29.65-45.77v86.4m30.49-.01.01-86.4m484.98 250.12 18.64-20.33m3.39 40.66 8.47 10.16h1.69v-25.41c0-16.84-13.65-30.49-30.49-30.49s-30.49 13.65-30.49 30.49v25.41h1.69l8.47-10.16m0 0c0 11.23 9.1 20.33 20.33 20.33s20.33-9.1 20.33-20.33-9.1-20.33-20.33-20.33-20.33 9.1-20.33 20.33zm29.88-44.05c0 5.35-4.34 9.69-9.69 9.69s-9.69-4.34-9.69-9.69" fill="none" stroke="#ede7d4" stroke-miterlimit="10" stroke-width="3.388"/><path d="m401.31 144.32c1.01 2.84 3.69 4.88 6.87 4.88s5.86-2.04 6.87-4.88z" fill="#ede7d4"/><path d="m688.99 223.94v-38.96c0-16.84-13.65-30.49-30.49-30.49s-30.49 13.65-30.49 30.49v13.55h38.96m-8.49-43.77v43.77m-15.23 23.59h30.49m-30.49-23.59v64.38m30.49-.01.01-86.4m-285.9-56.57h40.66m-40.59 14.11c0 11.23 9.1 20.33 20.33 20.33s20.33-9.1 20.26-20.05v-25.69l-3.52-4.86-4.16 4.18-4.16-4.18-4.16 4.18-4.16-4.18-4.16 4.18-4.16-4.18-4.16 4.18-4.16-4.18-3.87 4.86z" fill="none" stroke="#ede7d4" stroke-miterlimit="10" stroke-width="3.388"/><path d="m639.68 144.32c1.01 2.84 3.69 4.88 6.87 4.88s5.86-2.04 6.87-4.88z" fill="#ede7d4"/><path d="m914.34 186.29v29.18m6.38-35.56-15.5 15.5c-4.53 4.53-4.53 11.88 0 16.41s11.88 4.53 16.41 0l16.41-16.41m-.91.91c-4.53 4.53-11.88 4.53-16.41 0s-4.53-11.88 0-16.41 11.88-4.53 16.41 0c4.54 4.53 4.54 11.88 0 16.41zm-47.42-63.86v-2.7c10.16 0 20.33-7.46 20.33-15.93 0 8.47 10.16 15.93 20.33 15.93v2.7m-8.47 18.64h6.26c8.7 0 15.63-6.17 15.63-14.18-2.9 0-4.95-1.86-4.95-4.53v-2.19c0-14.66-12.73-26.54-28.67-26.54h-.4c-15.94 0-28.53 11.88-28.53 26.54v2.19c0 2.67-2.19 4.53-5.09 4.53 0 8 6.93 14.18 15.63 14.18h6.4m-270.17 33.88h30.49m20.33-60.99v10.16c0 11.23-9.1 20.33-20.33 20.33s-20.33-9.1-20.26-20.05v-10.16m39.47 15.39c-17.28 2.54-20.57-10.28-20.57-10.28v-7.71s-14.78 4.82-28.28 0c2.4-10 12.75-18 25.16-18l4.48.15c11.31 0 20.33 9.02 20.33 20.32v10.47" fill="none" stroke="#ede7d4" stroke-miterlimit="10" stroke-width="3.388"/><path d="m926.96 186.88c0 1.41-1.15 2.56-2.56 2.56s-2.56-1.15-2.56-2.56 1.14-2.56 2.56-2.56 2.56 1.14 2.56 2.56" fill="#ede7d4"/><path d="m930.37 130.77v3.39c0 11.23-9.1 20.33-20.33 20.33s-20.33-9.1-20.26-20.05v-3.67m50.75 57.6v-3.39c0-16.84-13.65-30.49-30.49-30.49s-30.49 13.65-30.49 30.49v27.11h25.41m-6.78 25.4v25.41m23.71 0 .01-25.41" fill="none" stroke="#ede7d4" stroke-miterlimit="10" stroke-width="3.388"/><path d="m903.17 144.32c1.01 2.84 3.69 4.88 6.87 4.88s5.86-2.04 6.87-4.88z" fill="#ede7d4"/><path d="m889.23 212.08v25.41h41.12v-35.57" fill="none" stroke="#ede7d4" stroke-miterlimit="10" stroke-width="3.388"/><g fill="#ede7d4" font-family="'Kievit', -system-ui, sans-serif" font-size="30" font-weight="500"><text transform="translate(341.8335 39.7995)">permanent</text><text transform="translate(595.2432 39.7692)">temporär</text><text transform="translate(800.5332 39.7692)">situationsbedingt</text><text transform="translate(19.0034 191.0295)">Touch</text><text transform="translate(19.0034 418.3991)">Sehen</text><text transform="translate(19.0034 645.7692)">Höhren</text><text transform="translate(19.0034 873.1393)">Sprechen</text><text transform="translate(326.9233 296.4196)">Behinderung</text><text transform="translate(376.0332 526.9094)">Blind</text><text transform="translate(378.8232 757.3991)">Taub</text><text transform="translate(363.5835 987.8893)">Stumm</text><text transform="translate(589.9629 296.3893)">Verletzung</text><text transform="translate(585.793 526.8796)">Grauer Star</text><text transform="translate(571.5732 757.3698)">Ohr-Infektion</text><text transform="translate(593.3232 987.8591)">Heiserkeit</text><text transform="translate(871.4238 296.3893)">Eltern</text><text transform="translate(839.4131 526.8796)">Autofahrer</text><text transform="translate(844.4238 757.3698)">Barkeeper</text><text transform="translate(864.8535 987.8591)">Akzent</text></g></svg>